NewtSerifLight-Italic.ufo
<glyph name="exclam" format="1">
  <advance width="257"/>
  <unicode hex="0021"/>
  <outline>
    <contour>
      <point x="114" y="188" type="curve" smooth="yes"/>
      <point x="200" y="555" type="line"/>
      <point x="204" y="567"/>
      <point x="208" y="581"/>
      <point x="216" y="591" type="curve" smooth="yes"/>
      <point x="228" y="606"/>
      <point x="249" y="616"/>
      <point x="259" y="610" type="curve" smooth="yes"/>
      <point x="269" y="604"/>
      <point x="262" y="590"/>
      <point x="250" y="573" type="curve" smooth="yes"/>
      <point x="245" y="566"/>
      <point x="239" y="556"/>
      <point x="237" y="548" type="curve" smooth="yes"/>
      <point x="210" y="457"/>
      <point x="187" y="354"/>
      <point x="152" y="195" type="curve" smooth="yes"/>
      <point x="148" y="175"/>
      <point x="142" y="164"/>
      <point x="126" y="161" type="curve"/>
      <point x="113" y="157"/>
      <point x="109" y="167"/>
    </contour>
    <contour>
      <point x="101" y="65" type="curve" smooth="yes"/>
      <point x="120" y="66"/>
      <point x="141" y="57"/>
      <point x="141" y="38" type="curve" smooth="yes"/>
      <point x="141" y="7"/>
      <point x="116" y="-3"/>
      <point x="98" y="-6" type="curve"/>
      <point x="69" y="-9"/>
      <point x="56" y="8"/>
      <point x="56" y="25" type="curve" smooth="yes"/>
      <point x="56" y="49"/>
      <point x="81" y="63"/>
    </contour>
  </outline>
</glyph>
<glyph name="quotedbl" format="1">
  <advance width="291"/>
  <unicode hex="0022"/>
  <outline>
    <contour>
      <point x="80" y="398" type="curve" smooth="yes"/>
      <point x="93" y="453"/>
      <point x="107" y="499"/>
      <point x="122" y="555" type="curve" smooth="yes"/>
      <point x="125" y="567"/>
      <point x="130" y="581"/>
      <point x="138" y="591" type="curve" smooth="yes"/>
      <point x="150" y="606"/>
      <point x="171" y="616"/>
      <point x="181" y="610" type="curve" smooth="yes"/>
      <point x="191" y="604"/>
      <point x="184" y="590"/>
      <point x="172" y="573" type="curve" smooth="yes"/>
      <point x="167" y="566"/>
      <point x="161" y="556"/>
      <point x="158" y="548" type="curve" smooth="yes"/>
      <point x="141" y="489"/>
      <point x="129" y="446"/>
      <point x="119" y="406" type="curve" smooth="yes"/>
      <point x="114" y="386"/>
      <point x="109" y="375"/>
      <point x="93" y="371" type="curve" smooth="yes"/>
      <point x="79" y="368"/>
      <point x="75" y="377"/>
    </contour>
    <contour>
      <point x="215" y="398" type="curve" smooth="yes"/>
      <point x="227" y="453"/>
      <point x="242" y="499"/>
      <point x="257" y="555" type="curve" smooth="yes"/>
      <point x="260" y="567"/>
      <point x="264" y="581"/>
      <point x="273" y="591" type="curve" smooth="yes"/>
      <point x="285" y="606"/>
      <point x="306" y="616"/>
      <point x="316" y="610" type="curve" smooth="yes"/>
      <point x="326" y="604"/>
      <point x="318" y="590"/>
      <point x="306" y="573" type="curve" smooth="yes"/>
      <point x="301" y="566"/>
      <point x="295" y="556"/>
      <point x="293" y="548" type="curve" smooth="yes"/>
      <point x="276" y="489"/>
      <point x="263" y="446"/>
      <point x="253" y="406" type="curve" smooth="yes"/>
      <point x="248" y="386"/>
      <point x="243" y="375"/>
      <point x="227" y="371" type="curve" smooth="yes"/>
      <point x="214" y="368"/>
      <point x="210" y="377"/>
    </contour>
  </outline>
</glyph>
<glyph name="numbersign" format="1">
  <advance width="462"/>
  <unicode hex="0023"/>
  <outline>
    <contour>
      <point x="75" y="407" type="curve"/>
      <point x="85" y="422"/>
      <point x="98" y="423"/>
      <point x="119" y="423" type="curve" smooth="yes"/>
      <point x="156" y="423" type="line" smooth="yes"/>
      <point x="169" y="423"/>
      <point x="168" y="432"/>
      <point x="172" y="444" type="curve" smooth="yes"/>
      <point x="184" y="489"/>
      <point x="191" y="531"/>
      <point x="198" y="556" type="curve"/>
      <point x="202" y="574"/>
      <point x="209" y="579"/>
      <point x="223" y="582" type="curve" smooth="yes"/>
      <point x="229" y="583"/>
      <point x="239" y="582"/>
      <point x="234" y="558" type="curve" smooth="yes"/>
      <point x="233" y="555"/>
      <point x="221" y="511"/>
      <point x="207" y="449" type="curve" smooth="yes"/>
      <point x="203" y="430"/>
      <point x="199" y="426"/>
      <point x="220" y="426" type="curve" smooth="yes"/>
      <point x="254" y="427"/>
      <point x="293" y="426"/>
      <point x="323" y="428" type="curve" smooth="yes"/>
      <point x="337" y="429"/>
      <point x="338" y="433"/>
      <point x="343" y="450" type="curve" smooth="yes"/>
      <point x="353" y="492"/>
      <point x="360" y="532"/>
      <point x="366" y="556" type="curve" smooth="yes"/>
      <point x="370" y="574"/>
      <point x="376" y="579"/>
      <point x="391" y="582" type="curve" smooth="yes"/>
      <point x="398" y="583"/>
      <point x="407" y="582"/>
      <point x="402" y="558" type="curve" smooth="yes"/>
      <point x="402" y="555"/>
      <point x="391" y="511"/>
      <point x="376" y="451" type="curve"/>
      <point x="373" y="434"/>
      <point x="370" y="429"/>
      <point x="386" y="429" type="curve"/>
      <point x="406" y="431"/>
      <point x="409" y="432"/>
      <point x="418" y="437" type="curve" smooth="yes"/>
      <point x="430" y="444"/>
      <point x="459" y="448"/>
      <point x="455" y="429" type="curve" smooth="yes"/>
      <point x="454" y="422"/>
      <point x="439" y="407"/>
      <point x="421" y="399" type="curve"/>
      <point x="408" y="392"/>
      <point x="395" y="392"/>
      <point x="382" y="392" type="curve" smooth="yes"/>
      <point x="364" y="392"/>
      <point x="363" y="391"/>
      <point x="357" y="372" type="curve"/>
      <point x="320" y="199" type="line" smooth="yes"/>
      <point x="316" y="185"/>
      <point x="314" y="184"/>
      <point x="330" y="184" type="curve" smooth="yes"/>
      <point x="339" y="184"/>
      <point x="348" y="186"/>
      <point x="359" y="189" type="curve"/>
      <point x="385" y="199"/>
      <point x="397" y="205"/>
      <point x="400" y="185" type="curve" smooth="yes"/>
      <point x="401" y="178"/>
      <point x="384" y="163"/>
      <point x="366" y="155" type="curve"/>
      <point x="354" y="148"/>
      <point x="340" y="148"/>
      <point x="327" y="148" type="curve" smooth="yes"/>
      <point x="310" y="148"/>
      <point x="305" y="144"/>
      <point x="301" y="122" type="curve"/>
      <point x="293" y="88"/>
      <point x="290" y="70"/>
      <point x="285" y="54" type="curve"/>
      <point x="279" y="27"/>
      <point x="276" y="16"/>
      <point x="266" y="8" type="curve" smooth="yes"/>
      <point x="252" y="-3"/>
      <point x="241" y="-6"/>
      <point x="229" y="-8" type="curve"/>
      <point x="215" y="-12"/>
      <point x="209" y="8"/>
      <point x="225" y="23" type="curve" smooth="yes"/>
      <point x="242" y="39"/>
      <point x="252" y="68"/>
      <point x="256" y="91" type="curve" smooth="yes"/>
      <point x="258" y="102"/>
      <point x="262" y="114"/>
      <point x="264" y="133" type="curve" smooth="yes"/>
      <point x="266" y="144"/>
      <point x="268" y="147"/>
      <point x="251" y="147" type="curve" smooth="yes"/>
      <point x="225" y="146"/>
      <point x="184" y="146"/>
      <point x="156" y="146" type="curve"/>
      <point x="141" y="145"/>
      <point x="137" y="144"/>
      <point x="134" y="126" type="curve" smooth="yes"/>
      <point x="127" y="93"/>
      <point x="119" y="61"/>
      <point x="117" y="54" type="curve" smooth="yes"/>
      <point x="111" y="29"/>
      <point x="108" y="15"/>
      <point x="98" y="7" type="curve" smooth="yes"/>
      <point x="83" y="-4"/>
      <point x="73" y="-8"/>
      <point x="61" y="-10" type="curve" smooth="yes"/>
      <point x="51" y="-12"/>
      <point x="40" y="3"/>
      <point x="56" y="20" type="curve" smooth="yes"/>
      <point x="76" y="40"/>
      <point x="82" y="68"/>
      <point x="88" y="91" type="curve" smooth="yes"/>
      <point x="91" y="101"/>
      <point x="93" y="109"/>
      <point x="96" y="128" type="curve" smooth="yes"/>
      <point x="98" y="136"/>
      <point x="99" y="146"/>
      <point x="87" y="146" type="curve" smooth="yes"/>
      <point x="40" y="146" type="line"/>
      <point x="19" y="145"/>
      <point x="13" y="151"/>
      <point x="20" y="163" type="curve" smooth="yes"/>
      <point x="29" y="178"/>
      <point x="45" y="180"/>
      <point x="65" y="180" type="curve" smooth="yes"/>
      <point x="88" y="180" type="line" smooth="yes"/>
      <point x="107" y="180"/>
      <point x="109" y="190"/>
      <point x="111" y="197" type="curve" smooth="yes"/>
      <point x="126" y="249"/>
      <point x="137" y="311"/>
      <point x="154" y="375" type="curve" smooth="yes"/>
      <point x="155" y="378"/>
      <point x="155" y="389"/>
      <point x="145" y="390" type="curve" smooth="yes"/>
      <point x="130" y="391"/>
      <point x="114" y="391"/>
      <point x="93" y="390" type="curve" smooth="yes"/>
      <point x="74" y="389"/>
      <point x="63" y="391"/>
    </contour>
    <contour>
      <point x="189" y="375" type="curve" smooth="yes"/>
      <point x="147" y="195" type="line" smooth="yes"/>
      <point x="144" y="180"/>
      <point x="146" y="181"/>
      <point x="160" y="181" type="curve" smooth="yes"/>
      <point x="194" y="181"/>
      <point x="232" y="182"/>
      <point x="261" y="183" type="curve" smooth="yes"/>
      <point x="278" y="184"/>
      <point x="279" y="186"/>
      <point x="282" y="201" type="curve" smooth="yes"/>
      <point x="295" y="252"/>
      <point x="307" y="313"/>
      <point x="322" y="372" type="curve" smooth="yes"/>
      <point x="326" y="389"/>
      <point x="326" y="391"/>
      <point x="312" y="391" type="curve" smooth="yes"/>
      <point x="284" y="391"/>
      <point x="241" y="391"/>
      <point x="210" y="390" type="curve" smooth="yes"/>
      <point x="195" y="390"/>
      <point x="192" y="386"/>
    </contour>
  </outline>
</glyph>
<glyph name="dollar" format="1">
  <advance width="365"/>
  <unicode hex="0024"/>
  <outline>
    <contour>
      <point x="184" y="53" type="curve" smooth="yes"/>
      <point x="180" y="37"/>
      <point x="178" y="22"/>
      <point x="173" y="11" type="curve"/>
      <point x="173" y="3"/>
      <point x="168" y="2"/>
      <point x="157" y="-3" type="curve" smooth="yes"/>
      <point x="145" y="-8"/>
      <point x="136" y="-13"/>
      <point x="140" y="7" type="curve"/>
      <point x="141" y="21"/>
      <point x="147" y="41"/>
      <point x="150" y="56" type="curve" smooth="yes"/>
      <point x="152" y="67"/>
      <point x="144" y="72"/>
      <point x="128" y="72" type="curve" smooth="yes"/>
      <point x="83" y="73"/>
      <point x="36" y="98"/>
      <point x="37" y="147" type="curve"/>
      <point x="40" y="184"/>
      <point x="77" y="220"/>
      <point x="109" y="233" type="curve" smooth="yes"/>
      <point x="118" y="237"/>
      <point x="129" y="238"/>
      <point x="132" y="234" type="curve" smooth="yes"/>
      <point x="138" y="226"/>
      <point x="135" y="211"/>
      <point x="122" y="205" type="curve"/>
      <point x="103" y="194"/>
      <point x="80" y="180"/>
      <point x="79" y="154" type="curve" smooth="yes"/>
      <point x="78" y="118"/>
      <point x="108" y="104"/>
      <point x="163" y="104" type="curve" smooth="yes"/>
      <point x="265" y="104"/>
      <point x="299" y="157"/>
      <point x="301" y="196" type="curve"/>
      <point x="302" y="243"/>
      <point x="258" y="279"/>
      <point x="209" y="311" type="curve" smooth="yes"/>
      <point x="160" y="344"/>
      <point x="109" y="378"/>
      <point x="111" y="427" type="curve" smooth="yes"/>
      <point x="113" y="469"/>
      <point x="165" y="511"/>
      <point x="215" y="526" type="curve" smooth="yes"/>
      <point x="224" y="528"/>
      <point x="232" y="536"/>
      <point x="233" y="543" type="curve" smooth="yes"/>
      <point x="237" y="558"/>
      <point x="240" y="580"/>
      <point x="243" y="591" type="curve" smooth="yes"/>
      <point x="246" y="599"/>
      <point x="249" y="599"/>
      <point x="259" y="603" type="curve" smooth="yes"/>
      <point x="276" y="609"/>
      <point x="279" y="604"/>
      <point x="277" y="593" type="curve" smooth="yes"/>
      <point x="269" y="545" type="line"/>
      <point x="268" y="529"/>
      <point x="278" y="531"/>
      <point x="286" y="531" type="curve" smooth="yes"/>
      <point x="324" y="529"/>
      <point x="364" y="513"/>
      <point x="362" y="476" type="curve"/>
      <point x="362" y="457"/>
      <point x="341" y="428"/>
      <point x="322" y="417" type="curve"/>
      <point x="309" y="407"/>
      <point x="298" y="406"/>
      <point x="291" y="412" type="curve"/>
      <point x="288" y="416"/>
      <point x="286" y="426"/>
      <point x="300" y="435" type="curve"/>
      <point x="319" y="449"/>
      <point x="327" y="456"/>
      <point x="326" y="471" type="curve" smooth="yes"/>
      <point x="324" y="497"/>
      <point x="282" y="499"/>
      <point x="250" y="499" type="curve" smooth="yes"/>
      <point x="197" y="499"/>
      <point x="152" y="460"/>
      <point x="152" y="428" type="curve" smooth="yes"/>
      <point x="152" y="395"/>
      <point x="185" y="375"/>
      <point x="234" y="340" type="curve" smooth="yes"/>
      <point x="293" y="299"/>
      <point x="341" y="258"/>
      <point x="341" y="207" type="curve" smooth="yes"/>
      <point x="341" y="152"/>
      <point x="287" y="81"/>
      <point x="199" y="72" type="curve" smooth="yes"/>
      <point x="189" y="71"/>
      <point x="186" y="61"/>
    </contour>
  </outline>
</glyph>
<glyph name="percent" format="1">
  <advance width="717"/>
  <unicode hex="0025"/>
  <outline>
    <contour>
      <point x="138" y="248" type="curve" smooth="yes"/>
      <point x="95" y="248"/>
      <point x="71" y="298"/>
      <point x="72" y="355" type="curve"/>
      <point x="72" y="468"/>
      <point x="169" y="618"/>
      <point x="262" y="618" type="curve" smooth="yes"/>
      <point x="316" y="618"/>
      <point x="322" y="546"/>
      <point x="322" y="519" type="curve" smooth="yes"/>
      <point x="318" y="398"/>
      <point x="225" y="248"/>
    </contour>
    <contour>
      <point x="253" y="584" type="curve" smooth="yes"/>
      <point x="197" y="584"/>
      <point x="111" y="469"/>
      <point x="109" y="359" type="curve" smooth="yes"/>
      <point x="108" y="299"/>
      <point x="131" y="283"/>
      <point x="149" y="283" type="curve" smooth="yes"/>
      <point x="200" y="283"/>
      <point x="285" y="402"/>
      <point x="285" y="518" type="curve" smooth="yes"/>
      <point x="285" y="561"/>
      <point x="279" y="584"/>
    </contour>
    <contour>
      <point x="124" y="-33" type="curve"/>
      <point x="103" y="-29"/>
      <point x="114" y="-14"/>
      <point x="149" y="32" type="curve" smooth="yes"/>
      <point x="206" y="107"/>
      <point x="439" y="416"/>
      <point x="491" y="491" type="curve" smooth="yes"/>
      <point x="515" y="527"/>
      <point x="523" y="547"/>
      <point x="533" y="582" type="curve" smooth="yes"/>
      <point x="538" y="596"/>
      <point x="537" y="614"/>
      <point x="556" y="609" type="curve"/>
      <point x="579" y="605"/>
      <point x="565" y="563"/>
      <point x="557" y="538" type="curve" smooth="yes"/>
      <point x="548" y="509"/>
      <point x="540" y="497"/>
      <point x="522" y="474" type="curve" smooth="yes"/>
      <point x="481" y="421"/>
      <point x="247" y="108"/>
      <point x="176" y="9" type="curve"/>
      <point x="147" y="-29"/>
      <point x="136" y="-34"/>
    </contour>
    <contour>
      <point x="497" y="-13" type="curve" smooth="yes"/>
      <point x="454" y="-13"/>
      <point x="429" y="37"/>
      <point x="430" y="94" type="curve" smooth="yes"/>
      <point x="431" y="207"/>
      <point x="528" y="357"/>
      <point x="620" y="357" type="curve" smooth="yes"/>
      <point x="674" y="357"/>
      <point x="680" y="285"/>
      <point x="680" y="258" type="curve" smooth="yes"/>
      <point x="677" y="137"/>
      <point x="583" y="-13"/>
    </contour>
    <contour>
      <point x="611" y="323" type="curve" smooth="yes"/>
      <point x="556" y="323"/>
      <point x="470" y="208"/>
      <point x="467" y="98" type="curve" smooth="yes"/>
      <point x="466" y="38"/>
      <point x="490" y="22"/>
      <point x="508" y="22" type="curve" smooth="yes"/>
      <point x="559" y="22"/>
      <point x="643" y="141"/>
      <point x="644" y="257" type="curve" smooth="yes"/>
      <point x="644" y="301"/>
      <point x="638" y="323"/>
    </contour>
  </outline>
</glyph>
<glyph name="ampersand" format="1">
  <advance width="472"/>
  <unicode hex="0026"/>
  <outline>
    <contour>
      <point x="347" y="612" type="curve" smooth="yes"/>
      <point x="407" y="612"/>
      <point x="451" y="591"/>
      <point x="449" y="545" type="curve" smooth="yes"/>
      <point x="449" y="527"/>
      <point x="439" y="505"/>
      <point x="407" y="482" type="curve" smooth="yes"/>
      <point x="391" y="471"/>
      <point x="378" y="463"/>
      <point x="371" y="471" type="curve"/>
      <point x="364" y="476"/>
      <point x="365" y="494"/>
      <point x="375" y="498" type="curve"/>
      <point x="396" y="509"/>
      <point x="409" y="531"/>
      <point x="409" y="542" type="curve" smooth="yes"/>
      <point x="409" y="561"/>
      <point x="391" y="580"/>
      <point x="335" y="580" type="curve" smooth="yes"/>
      <point x="261" y="580"/>
      <point x="178" y="528"/>
      <point x="176" y="471" type="curve" smooth="yes"/>
      <point x="173" y="408"/>
      <point x="264" y="396"/>
      <point x="315" y="396" type="curve" smooth="yes"/>
      <point x="340" y="396"/>
      <point x="359" y="393"/>
      <point x="354" y="382" type="curve" smooth="yes"/>
      <point x="349" y="370"/>
      <point x="348" y="367"/>
      <point x="317" y="364" type="curve" smooth="yes"/>
      <point x="228" y="353"/>
      <point x="77" y="292"/>
      <point x="71" y="152" type="curve" smooth="yes"/>
      <point x="67" y="65"/>
      <point x="145" y="23"/>
      <point x="229" y="23" type="curve" smooth="yes"/>
      <point x="243" y="23"/>
      <point x="258" y="24"/>
      <point x="272" y="27" type="curve" smooth="yes"/>
      <point x="282" y="29"/>
      <point x="279" y="35"/>
      <point x="274" y="40" type="curve" smooth="yes"/>
      <point x="246" y="68"/>
      <point x="229" y="109"/>
      <point x="229" y="147" type="curve" smooth="yes"/>
      <point x="229" y="243"/>
      <point x="301" y="301"/>
      <point x="376" y="301" type="curve" smooth="yes"/>
      <point x="444" y="301"/>
      <point x="479" y="256"/>
      <point x="476" y="183" type="curve" smooth="yes"/>
      <point x="470" y="70"/>
      <point x="332" y="-8"/>
      <point x="227" y="-8" type="curve" smooth="yes"/>
      <point x="77" y="-8"/>
      <point x="29" y="70"/>
      <point x="33" y="151" type="curve"/>
      <point x="37" y="285"/>
      <point x="156" y="347"/>
      <point x="203" y="363" type="curve" smooth="yes"/>
      <point x="237" y="374"/>
      <point x="237" y="376"/>
      <point x="205" y="382" type="curve" smooth="yes"/>
      <point x="171" y="389"/>
      <point x="135" y="426"/>
      <point x="137" y="467" type="curve"/>
      <point x="144" y="559"/>
      <point x="247" y="612"/>
    </contour>
    <contour>
      <point x="436" y="183" type="curve" smooth="yes"/>
      <point x="439" y="242"/>
      <point x="402" y="264"/>
      <point x="371" y="264" type="curve" smooth="yes"/>
      <point x="302" y="264"/>
      <point x="266" y="201"/>
      <point x="266" y="147" type="curve" smooth="yes"/>
      <point x="266" y="112"/>
      <point x="288" y="77"/>
      <point x="313" y="56" type="curve"/>
      <point x="321" y="51"/>
      <point x="331" y="51"/>
      <point x="339" y="56" type="curve"/>
      <point x="395" y="82"/>
      <point x="433" y="137"/>
    </contour>
  </outline>
</glyph>
<glyph name="quotesingle" format="1">
  <advance width="157"/>
  <unicode hex="0027"/>
  <outline>
    <contour>
      <point x="80" y="398" type="curve" smooth="yes"/>
      <point x="93" y="453"/>
      <point x="107" y="499"/>
      <point x="122" y="555" type="curve" smooth="yes"/>
      <point x="125" y="567"/>
      <point x="130" y="581"/>
      <point x="138" y="591" type="curve" smooth="yes"/>
      <point x="150" y="606"/>
      <point x="171" y="616"/>
      <point x="181" y="610" type="curve" smooth="yes"/>
      <point x="191" y="604"/>
      <point x="184" y="590"/>
      <point x="172" y="573" type="curve" smooth="yes"/>
      <point x="167" y="566"/>
      <point x="161" y="556"/>
      <point x="158" y="548" type="curve" smooth="yes"/>
      <point x="141" y="489"/>
      <point x="129" y="446"/>
      <point x="119" y="406" type="curve" smooth="yes"/>
      <point x="114" y="386"/>
      <point x="109" y="375"/>
      <point x="93" y="371" type="curve" smooth="yes"/>
      <point x="79" y="368"/>
      <point x="75" y="377"/>
    </contour>
  </outline>
</glyph>
<glyph name="parenleft" format="1">
  <advance width="274"/>
  <unicode hex="0028"/>
  <outline>
    <contour>
      <point x="312" y="614" type="curve"/>
      <point x="317" y="604"/>
      <point x="306" y="593"/>
      <point x="286" y="573" type="curve" smooth="yes"/>
      <point x="221" y="508"/>
      <point x="149" y="425"/>
      <point x="105" y="281" type="curve"/>
      <point x="72" y="168"/>
      <point x="95" y="50"/>
      <point x="154" y="-26" type="curve" smooth="yes"/>
      <point x="160" y="-35"/>
      <point x="164" y="-51"/>
      <point x="153" y="-60" type="curve"/>
      <point x="144" y="-66"/>
      <point x="134" y="-55"/>
      <point x="121" y="-40" type="curve" smooth="yes"/>
      <point x="59" y="33"/>
      <point x="35" y="178"/>
      <point x="73" y="294" type="curve" smooth="yes"/>
      <point x="118" y="428"/>
      <point x="205" y="545"/>
      <point x="269" y="599" type="curve"/>
      <point x="285" y="614"/>
      <point x="304" y="626"/>
    </contour>
  </outline>
</glyph>
<glyph name="parenright" format="1">
  <advance width="274"/>
  <unicode hex="0029"/>
  <outline>
    <contour>
      <point x="-9" y="-55" type="curve"/>
      <point x="-14" y="-45"/>
      <point x="-3" y="-34"/>
      <point x="17" y="-14" type="curve" smooth="yes"/>
      <point x="82" y="51"/>
      <point x="154" y="134"/>
      <point x="198" y="278" type="curve"/>
      <point x="231" y="391"/>
      <point x="208" y="509"/>
      <point x="149" y="585" type="curve" smooth="yes"/>
      <point x="143" y="593"/>
      <point x="139" y="610"/>
      <point x="150" y="619" type="curve"/>
      <point x="159" y="625"/>
      <point x="169" y="614"/>
      <point x="182" y="599" type="curve" smooth="yes"/>
      <point x="244" y="526"/>
      <point x="268" y="381"/>
      <point x="230" y="265" type="curve" smooth="yes"/>
      <point x="185" y="131"/>
      <point x="98" y="13"/>
      <point x="34" y="-40" type="curve"/>
      <point x="19" y="-56"/>
      <point x="-1" y="-67"/>
    </contour>
  </outline>
</glyph>
<glyph name="asterisk" format="1">
  <advance width="403"/>
  <unicode hex="002A"/>
  <outline>
    <contour>
      <point x="295" y="593" type="line"/>
      <point x="309" y="630"/>
      <point x="314" y="647"/>
      <point x="344" y="653" type="curve" smooth="yes"/>
      <point x="382" y="661"/>
      <point x="382" y="632"/>
      <point x="368" y="624" type="curve" smooth="yes"/>
      <point x="348" y="612"/>
      <point x="337" y="605"/>
      <point x="325" y="568" type="curve"/>
      <point x="316" y="545"/>
      <point x="315" y="550"/>
      <point x="310" y="531" type="curve" smooth="yes"/>
      <point x="304" y="512"/>
      <point x="311" y="509"/>
      <point x="319" y="510" type="curve" smooth="yes"/>
      <point x="350" y="514"/>
      <point x="385" y="517"/>
      <point x="406" y="517" type="curve" smooth="yes"/>
      <point x="444" y="517"/>
      <point x="449" y="520"/>
      <point x="463" y="495" type="curve" smooth="yes"/>
      <point x="487" y="449"/>
      <point x="453" y="447"/>
      <point x="442" y="460" type="curve" smooth="yes"/>
      <point x="430" y="474"/>
      <point x="429" y="476"/>
      <point x="391" y="477" type="curve" smooth="yes"/>
      <point x="368" y="478"/>
      <point x="353" y="476"/>
      <point x="333" y="474" type="curve" smooth="yes"/>
      <point x="319" y="472"/>
      <point x="311" y="467"/>
      <point x="322" y="453" type="curve" smooth="yes"/>
      <point x="341" y="427"/>
      <point x="349" y="412"/>
      <point x="358" y="389" type="curve" smooth="yes"/>
      <point x="371" y="352"/>
      <point x="375" y="341"/>
      <point x="354" y="320" type="curve"/>
      <point x="333" y="297"/>
      <point x="294" y="295"/>
      <point x="312" y="327" type="curve" smooth="yes"/>
      <point x="326" y="351"/>
      <point x="325" y="354"/>
      <point x="316" y="382" type="curve"/>
      <point x="310" y="406"/>
      <point x="299" y="420"/>
      <point x="285" y="440" type="curve" smooth="yes"/>
      <point x="274" y="455"/>
      <point x="272" y="456"/>
      <point x="259" y="445" type="curve" smooth="yes"/>
      <point x="235" y="423"/>
      <point x="203" y="401"/>
      <point x="188" y="391" type="curve" smooth="yes"/>
      <point x="155" y="369"/>
      <point x="152" y="363"/>
      <point x="123" y="376" type="curve" smooth="yes"/>
      <point x="95" y="389"/>
      <point x="84" y="416"/>
      <point x="120" y="416" type="curve" smooth="yes"/>
      <point x="141" y="416"/>
      <point x="141" y="410"/>
      <point x="176" y="429" type="curve" smooth="yes"/>
      <point x="195" y="440"/>
      <point x="220" y="459"/>
      <point x="236" y="473" type="curve" smooth="yes"/>
      <point x="242" y="479"/>
      <point x="247" y="489"/>
      <point x="231" y="498" type="curve" smooth="yes"/>
      <point x="205" y="512"/>
      <point x="184" y="520"/>
      <point x="168" y="537" type="curve" smooth="yes"/>
      <point x="142" y="564"/>
      <point x="130" y="566"/>
      <point x="134" y="596" type="curve"/>
      <point x="136" y="626"/>
      <point x="160" y="647"/>
      <point x="171" y="611" type="curve"/>
      <point x="178" y="593"/>
      <point x="177" y="582"/>
      <point x="206" y="558" type="curve" smooth="yes"/>
      <point x="224" y="544"/>
      <point x="234" y="540"/>
      <point x="250" y="528" type="curve" smooth="yes"/>
      <point x="265" y="517"/>
      <point x="271" y="514"/>
      <point x="275" y="529" type="curve" smooth="yes"/>
    </contour>
  </outline>
</glyph>
<glyph name="plus" format="1">
  <advance width="444"/>
  <unicode hex="002B"/>
  <outline>
    <contour>
      <point x="76" y="263" type="curve" smooth="yes"/>
      <point x="56" y="263"/>
      <point x="47" y="269"/>
      <point x="56" y="282" type="curve" smooth="yes"/>
      <point x="65" y="296"/>
      <point x="78" y="298"/>
      <point x="99" y="298" type="curve" smooth="yes"/>
      <point x="211" y="301" type="line" smooth="yes"/>
      <point x="228" y="301"/>
      <point x="230" y="305"/>
      <point x="234" y="320" type="curve" smooth="yes"/>
      <point x="240" y="349"/>
      <point x="249" y="382"/>
      <point x="258" y="422" type="curve" smooth="yes"/>
      <point x="263" y="443"/>
      <point x="268" y="455"/>
      <point x="284" y="462" type="curve" smooth="yes"/>
      <point x="298" y="468"/>
      <point x="301" y="459"/>
      <point x="296" y="439" type="curve"/>
      <point x="292" y="418"/>
      <point x="281" y="375"/>
      <point x="271" y="325" type="curve"/>
      <point x="269" y="306"/>
      <point x="269" y="302"/>
      <point x="284" y="302" type="curve" smooth="yes"/>
      <point x="316" y="301"/>
      <point x="364" y="301"/>
      <point x="385" y="312" type="curve"/>
      <point x="407" y="326"/>
      <point x="431" y="322"/>
      <point x="427" y="302" type="curve" smooth="yes"/>
      <point x="425" y="296"/>
      <point x="411" y="282"/>
      <point x="393" y="273" type="curve" smooth="yes"/>
      <point x="380" y="266"/>
      <point x="367" y="266"/>
      <point x="354" y="266" type="curve" smooth="yes"/>
      <point x="339" y="265"/>
      <point x="311" y="265"/>
      <point x="277" y="264" type="curve" smooth="yes"/>
      <point x="260" y="263"/>
      <point x="258" y="261"/>
      <point x="255" y="244" type="curve" smooth="yes"/>
      <point x="247" y="208"/>
      <point x="239" y="176"/>
      <point x="237" y="161" type="curve"/>
      <point x="234" y="147"/>
      <point x="230" y="134"/>
      <point x="221" y="123" type="curve"/>
      <point x="210" y="107"/>
      <point x="188" y="93"/>
      <point x="180" y="95" type="curve" smooth="yes"/>
      <point x="162" y="100"/>
      <point x="188" y="139"/>
      <point x="195" y="165" type="curve" smooth="yes"/>
      <point x="205" y="199"/>
      <point x="208" y="212"/>
      <point x="215" y="247" type="curve" smooth="yes"/>
      <point x="219" y="263"/>
      <point x="217" y="264"/>
      <point x="202" y="264" type="curve" smooth="yes"/>
      <point x="148" y="263"/>
      <point x="97" y="263"/>
    </contour>
  </outline>
</glyph>
<glyph name="comma" format="1">
  <advance width="235"/>
  <unicode hex="002C"/>
  <outline>
    <contour>
      <point x="26" y="3" type="curve" smooth="yes"/>
      <point x="22" y="6"/>
      <point x="18" y="11"/>
      <point x="24" y="20" type="curve"/>
      <point x="42" y="42"/>
      <point x="83" y="94"/>
      <point x="119" y="94" type="curve" smooth="yes"/>
      <point x="152" y="94"/>
      <point x="163" y="72"/>
      <point x="163" y="42" type="curve" smooth="yes"/>
      <point x="163" y="-27"/>
      <point x="93" y="-120"/>
      <point x="48" y="-165" type="curve" smooth="yes"/>
      <point x="43" y="-170"/>
      <point x="28" y="-182"/>
      <point x="19" y="-175" type="curve" smooth="yes"/>
      <point x="12" y="-169"/>
      <point x="13" y="-161"/>
      <point x="21" y="-150" type="curve"/>
      <point x="61" y="-104"/>
      <point x="126" y="-23"/>
      <point x="126" y="35" type="curve" smooth="yes"/>
      <point x="126" y="55"/>
      <point x="120" y="56"/>
      <point x="113" y="56" type="curve" smooth="yes"/>
      <point x="96" y="56"/>
      <point x="72" y="29"/>
      <point x="60" y="14" type="curve"/>
      <point x="46" y="-1"/>
      <point x="31" y="-2"/>
    </contour>
  </outline>
</glyph>
<glyph name="hyphen" format="1">
  <advance width="298"/>
  <unicode hex="002D"/>
  <outline>
    <contour>
      <point x="226" y="304" type="curve" smooth="yes"/>
      <point x="246" y="322"/>
      <point x="271" y="311"/>
      <point x="252" y="277" type="curve" smooth="yes"/>
      <point x="237" y="250"/>
      <point x="216" y="250"/>
      <point x="179" y="249" type="curve" smooth="yes"/>
      <point x="151" y="248"/>
      <point x="90" y="247"/>
      <point x="64" y="247" type="curve" smooth="yes"/>
      <point x="44" y="247"/>
      <point x="36" y="252"/>
      <point x="42" y="266" type="curve" smooth="yes"/>
      <point x="49" y="282"/>
      <point x="61" y="284"/>
      <point x="77" y="284" type="curve" smooth="yes"/>
      <point x="163" y="284"/>
      <point x="201" y="280"/>
    </contour>
  </outline>
</glyph>
<glyph name="period" format="1">
  <advance width="213"/>
  <unicode hex="002E"/>
  <outline>
    <contour>
      <point x="94" y="65" type="curve" smooth="yes"/>
      <point x="113" y="66"/>
      <point x="135" y="57"/>
      <point x="135" y="38" type="curve" smooth="yes"/>
      <point x="135" y="7"/>
      <point x="109" y="-3"/>
      <point x="92" y="-6" type="curve"/>
      <point x="62" y="-9"/>
      <point x="50" y="8"/>
      <point x="50" y="25" type="curve" smooth="yes"/>
      <point x="50" y="49"/>
      <point x="74" y="63"/>
    </contour>
  </outline>
</glyph>
<glyph name="slash" format="1">
  <advance width="370"/>
  <unicode hex="002F"/>
  <outline>
    <contour>
      <point x="-8" y="-33" type="curve"/>
      <point x="-29" y="-29"/>
      <point x="-19" y="-14"/>
      <point x="17" y="32" type="curve" smooth="yes"/>
      <point x="74" y="107"/>
      <point x="307" y="416"/>
      <point x="359" y="491" type="curve" smooth="yes"/>
      <point x="383" y="527"/>
      <point x="391" y="547"/>
      <point x="401" y="582" type="curve" smooth="yes"/>
      <point x="406" y="596"/>
      <point x="405" y="614"/>
      <point x="424" y="609" type="curve"/>
      <point x="447" y="605"/>
      <point x="433" y="563"/>
      <point x="425" y="538" type="curve" smooth="yes"/>
      <point x="416" y="509"/>
      <point x="408" y="497"/>
      <point x="390" y="474" type="curve" smooth="yes"/>
      <point x="349" y="421"/>
      <point x="115" y="108"/>
      <point x="44" y="9" type="curve"/>
      <point x="15" y="-29"/>
      <point x="4" y="-34"/>
    </contour>
  </outline>
</glyph>
<glyph name="zero" format="1">
  <advance width="522"/>
  <unicode hex="0030"/>
  <outline>
    <contour>
      <point x="370" y="615" type="curve" smooth="yes"/>
      <point x="486" y="615"/>
      <point x="517" y="524"/>
      <point x="513" y="399" type="curve" smooth="yes"/>
      <point x="506" y="167"/>
      <point x="366" y="-14"/>
      <point x="228" y="-14" type="curve" smooth="yes"/>
      <point x="75" y="-14"/>
      <point x="76" y="166"/>
      <point x="77" y="220" type="curve" smooth="yes"/>
      <point x="84" y="429"/>
      <point x="222" y="615"/>
    </contour>
    <contour>
      <point x="362" y="579" type="curve" smooth="yes"/>
      <point x="237" y="579"/>
      <point x="122" y="386"/>
      <point x="117" y="222" type="curve" smooth="yes"/>
      <point x="112" y="69"/>
      <point x="172" y="19"/>
      <point x="240" y="19" type="curve" smooth="yes"/>
      <point x="311" y="19"/>
      <point x="465" y="152"/>
      <point x="473" y="399" type="curve" smooth="yes"/>
      <point x="477" y="534"/>
      <point x="432" y="579"/>
    </contour>
  </outline>
</glyph>
<glyph name="one" format="1">
  <advance width="351"/>
  <unicode hex="0031"/>
  <outline>
    <contour>
      <point x="98" y="410" type="curve" smooth="yes"/>
      <point x="136" y="447"/>
      <point x="223" y="518"/>
      <point x="269" y="561" type="curve" smooth="yes"/>
      <point x="304" y="594"/>
      <point x="306" y="602"/>
      <point x="343" y="609" type="curve" smooth="yes"/>
      <point x="360" y="612"/>
      <point x="360" y="598"/>
      <point x="346" y="560" type="curve" smooth="yes"/>
      <point x="284" y="396"/>
      <point x="253" y="280"/>
      <point x="207" y="114" type="curve" smooth="yes"/>
      <point x="187" y="40"/>
      <point x="181" y="36"/>
      <point x="321" y="30" type="curve" smooth="yes"/>
      <point x="339" y="29"/>
      <point x="346" y="24"/>
      <point x="342" y="12" type="curve" smooth="yes"/>
      <point x="338" y="-1"/>
      <point x="306" y="-2"/>
      <point x="295" y="0" type="curve" smooth="yes"/>
      <point x="237" y="6"/>
      <point x="76" y="6"/>
      <point x="17" y="-2" type="curve" smooth="yes"/>
      <point x="-12" y="-5"/>
      <point x="-18" y="0"/>
      <point x="-15" y="12" type="curve" smooth="yes"/>
      <point x="-12" y="25"/>
      <point x="-4" y="29"/>
      <point x="30" y="31" type="curve" smooth="yes"/>
      <point x="136" y="39"/>
      <point x="141" y="43"/>
      <point x="162" y="103" type="curve"/>
      <point x="202" y="233"/>
      <point x="253" y="407"/>
      <point x="287" y="511" type="curve" smooth="yes"/>
      <point x="293" y="528"/>
      <point x="289" y="533"/>
      <point x="274" y="521" type="curve" smooth="yes"/>
      <point x="241" y="494"/>
      <point x="140" y="402"/>
      <point x="119" y="382" type="curve" smooth="yes"/>
      <point x="106" y="370"/>
      <point x="92" y="371"/>
      <point x="88" y="378" type="curve" smooth="yes"/>
      <point x="83" y="385"/>
      <point x="85" y="397"/>
    </contour>
  </outline>
</glyph>
<glyph name="two" format="1">
  <advance width="537"/>
  <unicode hex="0032"/>
  <outline>
    <contour>
      <point x="246" y="670" type="curve"/>
      <point x="254" y="670"/>
      <point x="256" y="654"/>
      <point x="247" y="644" type="curve" smooth="yes"/>
      <point x="226" y="620"/>
      <point x="219" y="584"/>
      <point x="262" y="584" type="curve" smooth="yes"/>
      <point x="291" y="584"/>
      <point x="323" y="591"/>
      <point x="356" y="599" type="curve"/>
      <point x="369" y="604"/>
      <point x="416" y="613"/>
      <point x="432" y="613" type="curve" smooth="yes"/>
      <point x="486" y="613"/>
      <point x="518" y="586"/>
      <point x="518" y="535" type="curve" smooth="yes"/>
      <point x="518" y="446"/>
      <point x="449" y="380"/>
      <point x="364" y="294" type="curve" smooth="yes"/>
      <point x="301" y="231"/>
      <point x="226" y="156"/>
      <point x="165" y="109" type="curve" smooth="yes"/>
      <point x="136" y="86"/>
      <point x="143" y="83"/>
      <point x="165" y="86" type="curve" smooth="yes"/>
      <point x="178" y="88"/>
      <point x="185" y="88"/>
      <point x="211" y="88" type="curve" smooth="yes"/>
      <point x="251" y="88"/>
      <point x="294" y="73"/>
      <point x="322" y="47" type="curve" smooth="yes"/>
      <point x="330" y="40"/>
      <point x="345" y="29"/>
      <point x="362" y="29" type="curve" smooth="yes"/>
      <point x="397" y="29"/>
      <point x="464" y="94"/>
      <point x="465" y="148" type="curve" smooth="yes"/>
      <point x="465" y="166"/>
      <point x="468" y="177"/>
      <point x="480" y="178" type="curve" smooth="yes"/>
      <point x="497" y="179"/>
      <point x="498" y="162"/>
      <point x="498" y="146" type="curve" smooth="yes"/>
      <point x="498" y="95"/>
      <point x="437" y="-8"/>
      <point x="355" y="-8" type="curve" smooth="yes"/>
      <point x="333" y="-8"/>
      <point x="317" y="-3"/>
      <point x="304" y="8" type="curve"/>
      <point x="268" y="43"/>
      <point x="237" y="52"/>
      <point x="201" y="52" type="curve" smooth="yes"/>
      <point x="145" y="52"/>
      <point x="78" y="42"/>
      <point x="45" y="14" type="curve" smooth="yes"/>
      <point x="33" y="3"/>
      <point x="10" y="-13"/>
      <point x="-4" y="2" type="curve"/>
      <point x="-19" y="14"/>
      <point x="-8" y="30"/>
      <point x="12" y="40" type="curve" smooth="yes"/>
      <point x="58" y="64"/>
      <point x="91" y="93"/>
      <point x="129" y="123" type="curve" smooth="yes"/>
      <point x="163" y="149"/>
      <point x="270" y="250"/>
      <point x="339" y="317" type="curve" smooth="yes"/>
      <point x="419" y="396"/>
      <point x="476" y="466"/>
      <point x="476" y="535" type="curve" smooth="yes"/>
      <point x="476" y="561"/>
      <point x="454" y="575"/>
      <point x="429" y="575" type="curve" smooth="yes"/>
      <point x="408" y="575"/>
      <point x="384" y="571"/>
      <point x="352" y="561" type="curve" smooth="yes"/>
      <point x="332" y="555"/>
      <point x="300" y="546"/>
      <point x="253" y="546" type="curve" smooth="yes"/>
      <point x="215" y="546"/>
      <point x="191" y="567"/>
      <point x="191" y="597" type="curve" smooth="yes"/>
      <point x="191" y="623"/>
      <point x="201" y="635"/>
      <point x="213" y="648" type="curve" smooth="yes"/>
      <point x="225" y="662"/>
      <point x="242" y="676"/>
    </contour>
  </outline>
</glyph>
<glyph name="three" format="1">
  <advance width="477"/>
  <unicode hex="0033"/>
  <outline>
    <contour>
      <point x="157" y="-8" type="curve" smooth="yes"/>
      <point x="82" y="-8"/>
      <point x="24" y="17"/>
      <point x="24" y="62" type="curve" smooth="yes"/>
      <point x="24" y="108"/>
      <point x="67" y="147"/>
      <point x="107" y="163" type="curve" smooth="yes"/>
      <point x="117" y="168"/>
      <point x="127" y="169"/>
      <point x="133" y="161" type="curve" smooth="yes"/>
      <point x="138" y="154"/>
      <point x="139" y="147"/>
      <point x="128" y="140" type="curve" smooth="yes"/>
      <point x="94" y="118"/>
      <point x="67" y="96"/>
      <point x="67" y="72" type="curve" smooth="yes"/>
      <point x="67" y="35"/>
      <point x="122" y="26"/>
      <point x="163" y="26" type="curve" smooth="yes"/>
      <point x="310" y="26"/>
      <point x="402" y="125"/>
      <point x="402" y="215" type="curve" smooth="yes"/>
      <point x="402" y="295"/>
      <point x="345" y="311"/>
      <point x="276" y="309" type="curve" smooth="yes"/>
      <point x="197" y="307"/>
      <point x="188" y="317"/>
      <point x="200" y="339" type="curve"/>
      <point x="213" y="360"/>
      <point x="242" y="359"/>
      <point x="273" y="373" type="curve" smooth="yes"/>
      <point x="353" y="409"/>
      <point x="428" y="471"/>
      <point x="428" y="521" type="curve" smooth="yes"/>
      <point x="428" y="565"/>
      <point x="391" y="577"/>
      <point x="373" y="577" type="curve" smooth="yes"/>
      <point x="347" y="577"/>
      <point x="321" y="570"/>
      <point x="302" y="562" type="curve" smooth="yes"/>
      <point x="282" y="554"/>
      <point x="236" y="543"/>
      <point x="207" y="543" type="curve" smooth="yes"/>
      <point x="175" y="543"/>
      <point x="154" y="558"/>
      <point x="154" y="592" type="curve" smooth="yes"/>
      <point x="154" y="615"/>
      <point x="166" y="634"/>
      <point x="177" y="647" type="curve" smooth="yes"/>
      <point x="190" y="663"/>
      <point x="198" y="673"/>
      <point x="214" y="665" type="curve"/>
      <point x="226" y="657"/>
      <point x="215" y="646"/>
      <point x="210" y="638" type="curve" smooth="yes"/>
      <point x="185" y="606"/>
      <point x="195" y="582"/>
      <point x="210" y="582" type="curve" smooth="yes"/>
      <point x="220" y="582"/>
      <point x="246" y="582"/>
      <point x="306" y="602" type="curve" smooth="yes"/>
      <point x="326" y="608"/>
      <point x="354" y="614"/>
      <point x="380" y="614" type="curve" smooth="yes"/>
      <point x="455" y="614"/>
      <point x="466" y="557"/>
      <point x="466" y="524" type="curve" smooth="yes"/>
      <point x="466" y="458"/>
      <point x="386" y="392"/>
      <point x="330" y="366" type="curve" smooth="yes"/>
      <point x="265" y="336"/>
      <point x="285" y="343"/>
      <point x="322" y="343" type="curve" smooth="yes"/>
      <point x="387" y="343"/>
      <point x="443" y="307"/>
      <point x="443" y="222" type="curve" smooth="yes"/>
      <point x="443" y="98"/>
      <point x="308" y="-8"/>
    </contour>
  </outline>
</glyph>
<glyph name="four" format="1">
  <advance width="537"/>
  <unicode hex="0034"/>
  <outline>
    <contour>
      <point x="386" y="216" type="curve" smooth="yes"/>
      <point x="385" y="207"/>
      <point x="394" y="207"/>
      <point x="424" y="207" type="curve" smooth="yes"/>
      <point x="462" y="207"/>
      <point x="468" y="229"/>
      <point x="491" y="275" type="curve" smooth="yes"/>
      <point x="503" y="299"/>
      <point x="529" y="287"/>
      <point x="524" y="270" type="curve" smooth="yes"/>
      <point x="511" y="233"/>
      <point x="495" y="210"/>
      <point x="470" y="184" type="curve" smooth="yes"/>
      <point x="460" y="173"/>
      <point x="449" y="170"/>
      <point x="439" y="170" type="curve" smooth="yes"/>
      <point x="425" y="170"/>
      <point x="414" y="172"/>
      <point x="400" y="173" type="curve"/>
      <point x="375" y="173"/>
      <point x="375" y="173"/>
      <point x="371" y="155" type="curve" smooth="yes"/>
      <point x="366" y="130"/>
      <point x="354" y="75"/>
      <point x="350" y="51" type="curve" smooth="yes"/>
      <point x="346" y="29"/>
      <point x="335" y="7"/>
      <point x="309" y="-19" type="curve" smooth="yes"/>
      <point x="289" y="-39"/>
      <point x="276" y="-41"/>
      <point x="262" y="-31" type="curve" smooth="yes"/>
      <point x="245" y="-19"/>
      <point x="257" y="-7"/>
      <point x="269" y="4" type="curve" smooth="yes"/>
      <point x="294" y="26"/>
      <point x="304" y="44"/>
      <point x="309" y="60" type="curve" smooth="yes"/>
      <point x="317" y="90"/>
      <point x="325" y="119"/>
      <point x="332" y="157" type="curve" smooth="yes"/>
      <point x="334" y="173"/>
      <point x="331" y="177"/>
      <point x="314" y="180" type="curve" smooth="yes"/>
      <point x="284" y="186"/>
      <point x="262" y="186"/>
      <point x="226" y="186" type="curve" smooth="yes"/>
      <point x="177" y="186"/>
      <point x="141" y="182"/>
      <point x="86" y="169" type="curve" smooth="yes"/>
      <point x="58" y="163"/>
      <point x="49" y="173"/>
      <point x="46" y="183" type="curve" smooth="yes"/>
      <point x="44" y="191"/>
      <point x="45" y="215"/>
      <point x="58" y="228" type="curve" smooth="yes"/>
      <point x="164" y="334"/>
      <point x="328" y="490"/>
      <point x="416" y="584" type="curve" smooth="yes"/>
      <point x="428" y="598"/>
      <point x="434" y="599"/>
      <point x="456" y="606" type="curve" smooth="yes"/>
      <point x="475" y="612"/>
      <point x="473" y="568"/>
      <point x="460" y="532" type="curve" smooth="yes"/>
      <point x="454" y="513"/>
      <point x="394" y="284"/>
    </contour>
    <contour>
      <point x="419" y="512" type="curve" smooth="yes"/>
      <point x="426" y="539"/>
      <point x="422" y="540"/>
      <point x="399" y="518" type="curve" smooth="yes"/>
      <point x="309" y="434"/>
      <point x="199" y="320"/>
      <point x="109" y="232" type="curve"/>
      <point x="88" y="210"/>
      <point x="89" y="205"/>
      <point x="114" y="212" type="curve" smooth="yes"/>
      <point x="136" y="219"/>
      <point x="210" y="224"/>
      <point x="229" y="224" type="curve" smooth="yes"/>
      <point x="259" y="224"/>
      <point x="300" y="221"/>
      <point x="316" y="217" type="curve" smooth="yes"/>
      <point x="332" y="214"/>
      <point x="340" y="212"/>
      <point x="345" y="231" type="curve" smooth="yes"/>
      <point x="359" y="279"/>
      <point x="407" y="460"/>
    </contour>
  </outline>
</glyph>
<glyph name="five" format="1">
  <advance width="471"/>
  <unicode hex="0035"/>
  <outline>
    <contour>
      <point x="461" y="645" type="curve"/>
      <point x="471" y="641"/>
      <point x="467" y="625"/>
      <point x="461" y="605" type="curve" smooth="yes"/>
      <point x="459" y="595"/>
      <point x="457" y="585"/>
      <point x="450" y="574" type="curve" smooth="yes"/>
      <point x="428" y="541"/>
      <point x="398" y="540"/>
      <point x="353" y="540" type="curve" smooth="yes"/>
      <point x="319" y="540"/>
      <point x="273" y="560"/>
      <point x="248" y="562" type="curve"/>
      <point x="227" y="565"/>
      <point x="218" y="567"/>
      <point x="210" y="552" type="curve"/>
      <point x="198" y="535"/>
      <point x="166" y="455"/>
      <point x="159" y="439" type="curve" smooth="yes"/>
      <point x="152" y="423"/>
      <point x="153" y="410"/>
      <point x="180" y="407" type="curve" smooth="yes"/>
      <point x="296" y="396"/>
      <point x="452" y="374"/>
      <point x="452" y="248" type="curve" smooth="yes"/>
      <point x="452" y="130"/>
      <point x="348" y="-12"/>
      <point x="170" y="-12" type="curve" smooth="yes"/>
      <point x="82" y="-12"/>
      <point x="30" y="14"/>
      <point x="30" y="62" type="curve" smooth="yes"/>
      <point x="30" y="96"/>
      <point x="56" y="129"/>
      <point x="101" y="154" type="curve" smooth="yes"/>
      <point x="125" y="168"/>
      <point x="136" y="168"/>
      <point x="142" y="162" type="curve" smooth="yes"/>
      <point x="152" y="152"/>
      <point x="150" y="135"/>
      <point x="127" y="125" type="curve" smooth="yes"/>
      <point x="87" y="109"/>
      <point x="70" y="83"/>
      <point x="70" y="69" type="curve" smooth="yes"/>
      <point x="70" y="36"/>
      <point x="113" y="22"/>
      <point x="181" y="22" type="curve" smooth="yes"/>
      <point x="315" y="22"/>
      <point x="415" y="135"/>
      <point x="415" y="239" type="curve" smooth="yes"/>
      <point x="415" y="360"/>
      <point x="204" y="368"/>
      <point x="117" y="374" type="curve" smooth="yes"/>
      <point x="101" y="375"/>
      <point x="93" y="388"/>
      <point x="106" y="407" type="curve"/>
      <point x="130" y="448"/>
      <point x="164" y="532"/>
      <point x="188" y="579" type="curve" smooth="yes"/>
      <point x="198" y="600"/>
      <point x="198" y="606"/>
      <point x="233" y="606" type="curve" smooth="yes"/>
      <point x="274" y="606"/>
      <point x="313" y="581"/>
      <point x="355" y="581" type="curve" smooth="yes"/>
      <point x="394" y="581"/>
      <point x="425" y="579"/>
      <point x="440" y="631" type="curve"/>
      <point x="444" y="640"/>
      <point x="450" y="647"/>
    </contour>
  </outline>
</glyph>
<glyph name="six" format="1">
  <advance width="480"/>
  <unicode hex="0036"/>
  <outline>
    <contour>
      <point x="434" y="635" type="curve"/>
      <point x="444" y="622"/>
      <point x="434" y="610"/>
      <point x="387" y="580" type="curve" smooth="yes"/>
      <point x="300" y="523"/>
      <point x="96" y="387"/>
      <point x="93" y="194" type="curve" smooth="yes"/>
      <point x="91" y="98"/>
      <point x="138" y="23"/>
      <point x="225" y="23" type="curve" smooth="yes"/>
      <point x="332" y="23"/>
      <point x="444" y="127"/>
      <point x="445" y="258" type="curve" smooth="yes"/>
      <point x="446" y="319"/>
      <point x="417" y="370"/>
      <point x="361" y="370" type="curve" smooth="yes"/>
      <point x="320" y="370"/>
      <point x="283" y="344"/>
      <point x="258" y="330" type="curve"/>
      <point x="246" y="322"/>
      <point x="221" y="316"/>
      <point x="217" y="323" type="curve" smooth="yes"/>
      <point x="210" y="335"/>
      <point x="221" y="343"/>
      <point x="241" y="359" type="curve"/>
      <point x="283" y="385"/>
      <point x="326" y="408"/>
      <point x="370" y="408" type="curve" smooth="yes"/>
      <point x="423" y="408"/>
      <point x="484" y="369"/>
      <point x="482" y="263" type="curve" smooth="yes"/>
      <point x="478" y="99"/>
      <point x="350" y="-13"/>
      <point x="219" y="-13" type="curve" smooth="yes"/>
      <point x="118" y="-13"/>
      <point x="51" y="66"/>
      <point x="53" y="192" type="curve" smooth="yes"/>
      <point x="56" y="377"/>
      <point x="236" y="527"/>
      <point x="359" y="604" type="curve"/>
      <point x="379" y="615"/>
      <point x="426" y="643"/>
    </contour>
  </outline>
</glyph>
<glyph name="seven" format="1">
  <advance width="446"/>
  <unicode hex="0037"/>
  <outline>
    <contour>
      <point x="159" y="-7" type="curve"/>
      <point x="121" y="-6"/>
      <point x="104" y="20"/>
      <point x="104" y="55" type="curve" smooth="yes"/>
      <point x="104" y="157"/>
      <point x="355" y="470"/>
      <point x="409" y="540" type="curve" smooth="yes"/>
      <point x="426" y="561"/>
      <point x="423" y="561"/>
      <point x="387" y="554" type="curve" smooth="yes"/>
      <point x="345" y="545"/>
      <point x="307" y="540"/>
      <point x="269" y="540" type="curve" smooth="yes"/>
      <point x="200" y="540"/>
      <point x="115" y="549"/>
      <point x="115" y="598" type="curve" smooth="yes"/>
      <point x="115" y="614"/>
      <point x="120" y="629"/>
      <point x="135" y="652" type="curve" smooth="yes"/>
      <point x="143" y="665"/>
      <point x="154" y="673"/>
      <point x="162" y="670" type="curve" smooth="yes"/>
      <point x="175" y="665"/>
      <point x="170" y="653"/>
      <point x="166" y="643" type="curve" smooth="yes"/>
      <point x="161" y="633"/>
      <point x="157" y="623"/>
      <point x="157" y="614" type="curve" smooth="yes"/>
      <point x="157" y="578"/>
      <point x="224" y="578"/>
      <point x="269" y="578" type="curve" smooth="yes"/>
      <point x="338" y="578"/>
      <point x="377" y="587"/>
      <point x="461" y="604" type="curve"/>
      <point x="497" y="613"/>
      <point x="503" y="593"/>
      <point x="486" y="577" type="curve"/>
      <point x="438" y="526"/>
      <point x="143" y="156"/>
      <point x="143" y="59" type="curve" smooth="yes"/>
      <point x="143" y="33"/>
      <point x="163" y="29"/>
      <point x="178" y="29" type="curve" smooth="yes"/>
      <point x="188" y="29"/>
      <point x="207" y="35"/>
      <point x="220" y="45" type="curve"/>
      <point x="232" y="56"/>
      <point x="246" y="56"/>
      <point x="251" y="51" type="curve" smooth="yes"/>
      <point x="258" y="45"/>
      <point x="261" y="35"/>
      <point x="249" y="24" type="curve" smooth="yes"/>
      <point x="232" y="10"/>
      <point x="205" y="-7"/>
    </contour>
  </outline>
</glyph>
<glyph name="eight" format="1">
  <advance width="499"/>
  <unicode hex="0038"/>
  <outline>
    <contour>
      <point x="218" y="-12" type="curve" smooth="yes"/>
      <point x="125" y="-12"/>
      <point x="49" y="27"/>
      <point x="49" y="117" type="curve" smooth="yes"/>
      <point x="49" y="221"/>
      <point x="157" y="295"/>
      <point x="205" y="317" type="curve" smooth="yes"/>
      <point x="238" y="332"/>
      <point x="242" y="336"/>
      <point x="207" y="354" type="curve" smooth="yes"/>
      <point x="174" y="372"/>
      <point x="141" y="401"/>
      <point x="141" y="440" type="curve" smooth="yes"/>
      <point x="141" y="533"/>
      <point x="255" y="609"/>
      <point x="369" y="609" type="curve" smooth="yes"/>
      <point x="442" y="609"/>
      <point x="507" y="573"/>
      <point x="507" y="496" type="curve" smooth="yes"/>
      <point x="507" y="427"/>
      <point x="455" y="371"/>
      <point x="386" y="332" type="curve"/>
      <point x="365" y="322"/>
      <point x="352" y="315"/>
      <point x="374" y="304" type="curve" smooth="yes"/>
      <point x="430" y="275"/>
      <point x="470" y="241"/>
      <point x="470" y="180" type="curve" smooth="yes"/>
      <point x="470" y="71"/>
      <point x="365" y="-12"/>
    </contour>
    <contour>
      <point x="223" y="21" type="curve" smooth="yes"/>
      <point x="331" y="21"/>
      <point x="428" y="82"/>
      <point x="428" y="173" type="curve" smooth="yes"/>
      <point x="428" y="237"/>
      <point x="367" y="272"/>
      <point x="291" y="304" type="curve" smooth="yes"/>
      <point x="274" y="311"/>
      <point x="265" y="310"/>
      <point x="248" y="302" type="curve" smooth="yes"/>
      <point x="175" y="269"/>
      <point x="90" y="205"/>
      <point x="90" y="122" type="curve" smooth="yes"/>
      <point x="90" y="79"/>
      <point x="120" y="21"/>
    </contour>
    <contour>
      <point x="363" y="355" type="curve" smooth="yes"/>
      <point x="434" y="399"/>
      <point x="469" y="442"/>
      <point x="469" y="492" type="curve" smooth="yes"/>
      <point x="469" y="553"/>
      <point x="402" y="575"/>
      <point x="359" y="575" type="curve" smooth="yes"/>
      <point x="266" y="575"/>
      <point x="183" y="504"/>
      <point x="183" y="449" type="curve" smooth="yes"/>
      <point x="183" y="397"/>
      <point x="241" y="372"/>
      <point x="301" y="344" type="curve" smooth="yes"/>
      <point x="326" y="332"/>
      <point x="337" y="338"/>
    </contour>
  </outline>
</glyph>
<glyph name="nine" format="1">
  <advance width="480"/>
  <unicode hex="0039"/>
  <outline>
    <contour>
      <point x="109" y="-33" type="curve"/>
      <point x="99" y="-20"/>
      <point x="109" y="-8"/>
      <point x="156" y="22" type="curve" smooth="yes"/>
      <point x="243" y="79"/>
      <point x="447" y="215"/>
      <point x="450" y="408" type="curve" smooth="yes"/>
      <point x="452" y="503"/>
      <point x="409" y="579"/>
      <point x="322" y="579" type="curve" smooth="yes"/>
      <point x="189" y="579"/>
      <point x="104" y="456"/>
      <point x="103" y="359" type="curve" smooth="yes"/>
      <point x="102" y="298"/>
      <point x="131" y="250"/>
      <point x="187" y="250" type="curve" smooth="yes"/>
      <point x="228" y="250"/>
      <point x="265" y="273"/>
      <point x="290" y="287" type="curve"/>
      <point x="302" y="295"/>
      <point x="327" y="301"/>
      <point x="331" y="294" type="curve" smooth="yes"/>
      <point x="338" y="282"/>
      <point x="327" y="274"/>
      <point x="307" y="258" type="curve"/>
      <point x="265" y="232"/>
      <point x="222" y="212"/>
      <point x="178" y="212" type="curve" smooth="yes"/>
      <point x="125" y="212"/>
      <point x="64" y="252"/>
      <point x="66" y="357" type="curve" smooth="yes"/>
      <point x="70" y="513"/>
      <point x="208" y="615"/>
      <point x="328" y="615" type="curve" smooth="yes"/>
      <point x="429" y="615"/>
      <point x="492" y="535"/>
      <point x="490" y="410" type="curve" smooth="yes"/>
      <point x="487" y="225"/>
      <point x="307" y="75"/>
      <point x="184" y="-2" type="curve"/>
      <point x="164" y="-13"/>
      <point x="117" y="-41"/>
    </contour>
  </outline>
</glyph>
<glyph name="colon" format="1">
  <advance width="234"/>
  <unicode hex="003A"/>
  <outline>
    <contour>
      <point x="147" y="354" type="curve" smooth="yes"/>
      <point x="166" y="355"/>
      <point x="188" y="346"/>
      <point x="188" y="327" type="curve" smooth="yes"/>
      <point x="188" y="295"/>
      <point x="162" y="285"/>
      <point x="145" y="283" type="curve" smooth="yes"/>
      <point x="115" y="279"/>
      <point x="103" y="297"/>
      <point x="103" y="314" type="curve" smooth="yes"/>
      <point x="103" y="338"/>
      <point x="127" y="352"/>
    </contour>
    <contour>
      <point x="93" y="62" type="curve"/>
      <point x="111" y="64"/>
      <point x="133" y="55"/>
      <point x="133" y="35" type="curve" smooth="yes"/>
      <point x="133" y="4"/>
      <point x="108" y="-6"/>
      <point x="90" y="-8" type="curve" smooth="yes"/>
      <point x="61" y="-12"/>
      <point x="48" y="6"/>
      <point x="48" y="23" type="curve" smooth="yes"/>
      <point x="48" y="46"/>
      <point x="72" y="61"/>
    </contour>
  </outline>
</glyph>
<glyph name="semicolon" format="1">
  <advance width="237"/>
  <unicode hex="003B"/>
  <outline>
    <contour>
      <point x="26" y="2" type="curve" smooth="yes"/>
      <point x="22" y="5"/>
      <point x="18" y="10"/>
      <point x="24" y="19" type="curve"/>
      <point x="42" y="41"/>
      <point x="83" y="93"/>
      <point x="119" y="93" type="curve" smooth="yes"/>
      <point x="152" y="93"/>
      <point x="163" y="72"/>
      <point x="163" y="41" type="curve" smooth="yes"/>
      <point x="163" y="-28"/>
      <point x="93" y="-120"/>
      <point x="48" y="-166" type="curve" smooth="yes"/>
      <point x="43" y="-171"/>
      <point x="28" y="-183"/>
      <point x="19" y="-176" type="curve" smooth="yes"/>
      <point x="12" y="-170"/>
      <point x="13" y="-162"/>
      <point x="21" y="-151" type="curve"/>
      <point x="61" y="-104"/>
      <point x="126" y="-24"/>
      <point x="126" y="34" type="curve" smooth="yes"/>
      <point x="126" y="54"/>
      <point x="120" y="56"/>
      <point x="113" y="56" type="curve" smooth="yes"/>
      <point x="96" y="56"/>
      <point x="72" y="28"/>
      <point x="60" y="13" type="curve"/>
      <point x="46" y="-2"/>
      <point x="31" y="-3"/>
    </contour>
    <contour>
      <point x="148" y="354" type="curve" smooth="yes"/>
      <point x="167" y="355"/>
      <point x="189" y="346"/>
      <point x="189" y="327" type="curve" smooth="yes"/>
      <point x="189" y="295"/>
      <point x="163" y="285"/>
      <point x="146" y="283" type="curve" smooth="yes"/>
      <point x="116" y="279"/>
      <point x="104" y="297"/>
      <point x="104" y="314" type="curve" smooth="yes"/>
      <point x="104" y="338"/>
      <point x="128" y="352"/>
    </contour>
  </outline>
</glyph>
<glyph name="less" format="1">
  <advance width="354"/>
  <unicode hex="003C"/>
  <outline>
    <contour>
      <point x="65" y="250" type="curve" smooth="yes"/>
      <point x="116" y="277"/>
      <point x="238" y="327"/>
      <point x="275" y="347" type="curve" smooth="yes"/>
      <point x="283" y="351"/>
      <point x="309" y="371"/>
      <point x="318" y="383" type="curve" smooth="yes"/>
      <point x="327" y="394"/>
      <point x="343" y="397"/>
      <point x="343" y="383" type="curve"/>
      <point x="344" y="371"/>
      <point x="332" y="352"/>
      <point x="328" y="347" type="curve" smooth="yes"/>
      <point x="321" y="337"/>
      <point x="308" y="326"/>
      <point x="282" y="314" type="curve" smooth="yes"/>
      <point x="231" y="290"/>
      <point x="133" y="248"/>
      <point x="90" y="226" type="curve" smooth="yes"/>
      <point x="86" y="223"/>
      <point x="78" y="216"/>
      <point x="85" y="209" type="curve" smooth="yes"/>
      <point x="94" y="199"/>
      <point x="230" y="116"/>
      <point x="254" y="101" type="curve" smooth="yes"/>
      <point x="267" y="93"/>
      <point x="264" y="77"/>
      <point x="258" y="72" type="curve" smooth="yes"/>
      <point x="247" y="64"/>
      <point x="234" y="70"/>
      <point x="227" y="75" type="curve" smooth="yes"/>
      <point x="210" y="88"/>
      <point x="82" y="173"/>
      <point x="36" y="201" type="curve" smooth="yes"/>
      <point x="29" y="205"/>
      <point x="29" y="209"/>
      <point x="35" y="220" type="curve" smooth="yes"/>
      <point x="42" y="235"/>
      <point x="45" y="240"/>
    </contour>
  </outline>
</glyph>
<glyph name="equal" format="1">
  <advance width="477"/>
  <unicode hex="003D"/>
  <outline>
    <contour>
      <point x="101" y="289" type="curve" smooth="yes"/>
      <point x="80" y="289"/>
      <point x="72" y="292"/>
      <point x="78" y="305" type="curve"/>
      <point x="86" y="319"/>
      <point x="98" y="320"/>
      <point x="120" y="320" type="curve" smooth="yes"/>
      <point x="247" y="318"/>
      <point x="277" y="318"/>
      <point x="372" y="321" type="curve" smooth="yes"/>
      <point x="379" y="321"/>
      <point x="395" y="322"/>
      <point x="403" y="327" type="curve"/>
      <point x="428" y="338"/>
      <point x="447" y="343"/>
      <point x="446" y="329" type="curve" smooth="yes"/>
      <point x="446" y="322"/>
      <point x="434" y="307"/>
      <point x="418" y="299" type="curve" smooth="yes"/>
      <point x="406" y="292"/>
      <point x="392" y="289"/>
      <point x="380" y="289" type="curve" smooth="yes"/>
      <point x="295" y="288"/>
      <point x="173" y="290"/>
    </contour>
    <contour>
      <point x="64" y="120" type="curve" smooth="yes"/>
      <point x="43" y="120"/>
      <point x="35" y="124"/>
      <point x="41" y="136" type="curve" smooth="yes"/>
      <point x="49" y="151"/>
      <point x="61" y="152"/>
      <point x="82" y="152" type="curve" smooth="yes"/>
      <point x="210" y="150"/>
      <point x="240" y="150"/>
      <point x="335" y="152" type="curve" smooth="yes"/>
      <point x="342" y="152"/>
      <point x="358" y="154"/>
      <point x="366" y="158" type="curve" smooth="yes"/>
      <point x="391" y="170"/>
      <point x="410" y="174"/>
      <point x="409" y="161" type="curve" smooth="yes"/>
      <point x="409" y="153"/>
      <point x="396" y="139"/>
      <point x="380" y="130" type="curve" smooth="yes"/>
      <point x="369" y="124"/>
      <point x="355" y="120"/>
      <point x="343" y="120" type="curve" smooth="yes"/>
      <point x="258" y="120"/>
      <point x="136" y="121"/>
    </contour>
  </outline>
</glyph>
<glyph name="greater" format="1">
  <advance width="354"/>
  <unicode hex="003E"/>
  <outline>
    <contour>
      <point x="294" y="211" type="curve" smooth="yes"/>
      <point x="242" y="184"/>
      <point x="120" y="134"/>
      <point x="83" y="114" type="curve" smooth="yes"/>
      <point x="76" y="110"/>
      <point x="50" y="90"/>
      <point x="40" y="78" type="curve" smooth="yes"/>
      <point x="31" y="67"/>
      <point x="15" y="64"/>
      <point x="15" y="78" type="curve"/>
      <point x="14" y="90"/>
      <point x="26" y="109"/>
      <point x="30" y="114" type="curve" smooth="yes"/>
      <point x="38" y="125"/>
      <point x="51" y="136"/>
      <point x="77" y="147" type="curve"/>
      <point x="128" y="171"/>
      <point x="226" y="213"/>
      <point x="269" y="236" type="curve" smooth="yes"/>
      <point x="273" y="238"/>
      <point x="280" y="245"/>
      <point x="274" y="253" type="curve"/>
      <point x="264" y="263"/>
      <point x="129" y="345"/>
      <point x="104" y="360" type="curve"/>
      <point x="92" y="369"/>
      <point x="94" y="385"/>
      <point x="100" y="389" type="curve" smooth="yes"/>
      <point x="112" y="397"/>
      <point x="125" y="391"/>
      <point x="131" y="386" type="curve" smooth="yes"/>
      <point x="149" y="374"/>
      <point x="276" y="289"/>
      <point x="322" y="260" type="curve" smooth="yes"/>
      <point x="330" y="256"/>
      <point x="329" y="253"/>
      <point x="324" y="242" type="curve" smooth="yes"/>
      <point x="316" y="226"/>
      <point x="313" y="221"/>
    </contour>
  </outline>
</glyph>
<glyph name="question" format="1">
  <advance width="379"/>
  <unicode hex="003F"/>
  <outline>
    <contour>
      <point x="169" y="169" type="curve" smooth="yes"/>
      <point x="156" y="169"/>
      <point x="154" y="184"/>
      <point x="157" y="193" type="curve"/>
      <point x="165" y="231"/>
      <point x="187" y="277"/>
      <point x="218" y="306" type="curve" smooth="yes"/>
      <point x="243" y="330"/>
      <point x="263" y="348"/>
      <point x="312" y="380" type="curve" smooth="yes"/>
      <point x="383" y="427"/>
      <point x="399" y="465"/>
      <point x="399" y="508" type="curve" smooth="yes"/>
      <point x="399" y="539"/>
      <point x="375" y="577"/>
      <point x="284" y="577" type="curve" smooth="yes"/>
      <point x="195" y="577"/>
      <point x="126" y="508"/>
      <point x="126" y="466" type="curve" smooth="yes"/>
      <point x="126" y="426"/>
      <point x="167" y="412"/>
      <point x="216" y="438" type="curve" smooth="yes"/>
      <point x="234" y="447"/>
      <point x="240" y="443"/>
      <point x="245" y="434" type="curve" smooth="yes"/>
      <point x="249" y="425"/>
      <point x="243" y="422"/>
      <point x="230" y="412" type="curve"/>
      <point x="213" y="401"/>
      <point x="186" y="391"/>
      <point x="162" y="391" type="curve" smooth="yes"/>
      <point x="129" y="391"/>
      <point x="90" y="407"/>
      <point x="90" y="466" type="curve" smooth="yes"/>
      <point x="90" y="524"/>
      <point x="168" y="609"/>
      <point x="292" y="609" type="curve" smooth="yes"/>
      <point x="419" y="609"/>
      <point x="441" y="549"/>
      <point x="441" y="513" type="curve" smooth="yes"/>
      <point x="441" y="449"/>
      <point x="401" y="402"/>
      <point x="319" y="347" type="curve" smooth="yes"/>
      <point x="299" y="333"/>
      <point x="263" y="305"/>
      <point x="246" y="285" type="curve"/>
      <point x="214" y="251"/>
      <point x="199" y="223"/>
      <point x="193" y="193" type="curve"/>
      <point x="188" y="179"/>
      <point x="183" y="169"/>
    </contour>
    <contour>
      <point x="149" y="65" type="curve" smooth="yes"/>
      <point x="168" y="66"/>
      <point x="189" y="57"/>
      <point x="189" y="38" type="curve" smooth="yes"/>
      <point x="189" y="7"/>
      <point x="164" y="-3"/>
      <point x="146" y="-6" type="curve"/>
      <point x="117" y="-9"/>
      <point x="104" y="8"/>
      <point x="104" y="25" type="curve" smooth="yes"/>
      <point x="104" y="49"/>
      <point x="129" y="63"/>
    </contour>
  </outline>
</glyph>
<glyph name="B" format="1">
  <advance width="575"/>
  <unicode hex="0042"/>
  <outline>
    <contour>
      <point x="193" y="491" type="curve" smooth="yes"/>
      <point x="211" y="567"/>
      <point x="212" y="574"/>
      <point x="146" y="568" type="curve" smooth="yes"/>
      <point x="122" y="566"/>
      <point x="108" y="568"/>
      <point x="108" y="580" type="curve" smooth="yes"/>
      <point x="108" y="590"/>
      <point x="117" y="594"/>
      <point x="140" y="598" type="curve"/>
      <point x="187" y="603"/>
      <point x="274" y="608"/>
      <point x="307" y="608" type="curve" smooth="yes"/>
      <point x="391" y="608"/>
      <point x="547" y="611"/>
      <point x="547" y="501" type="curve" smooth="yes"/>
      <point x="547" y="450"/>
      <point x="508" y="402"/>
      <point x="455" y="376" type="curve" smooth="yes"/>
      <point x="435" y="367"/>
      <point x="435" y="356"/>
      <point x="460" y="354" type="curve" smooth="yes"/>
      <point x="525" y="348"/>
      <point x="554" y="308"/>
      <point x="554" y="251" type="curve"/>
      <point x="552" y="145"/>
      <point x="438" y="-9"/>
      <point x="266" y="-9" type="curve" smooth="yes"/>
      <point x="215" y="-9"/>
      <point x="150" y="0"/>
      <point x="105" y="34" type="curve"/>
      <point x="86" y="45"/>
      <point x="88" y="73"/>
      <point x="97" y="112" type="curve" smooth="yes"/>
      <point x="127" y="238"/>
      <point x="162" y="360"/>
    </contour>
    <contour>
      <point x="138" y="113" type="curve" smooth="yes"/>
      <point x="132" y="88"/>
      <point x="130" y="67"/>
      <point x="152" y="53" type="curve"/>
      <point x="181" y="32"/>
      <point x="224" y="24"/>
      <point x="276" y="24" type="curve" smooth="yes"/>
      <point x="370" y="24"/>
      <point x="513" y="118"/>
      <point x="513" y="250" type="curve" smooth="yes"/>
      <point x="513" y="334"/>
      <point x="398" y="333"/>
      <point x="323" y="327" type="curve"/>
      <point x="287" y="322"/>
      <point x="282" y="329"/>
      <point x="286" y="341" type="curve"/>
      <point x="294" y="358"/>
      <point x="298" y="360"/>
      <point x="330" y="362" type="curve" smooth="yes"/>
      <point x="391" y="366"/>
      <point x="507" y="419"/>
      <point x="507" y="497" type="curve" smooth="yes"/>
      <point x="507" y="566"/>
      <point x="400" y="580"/>
      <point x="293" y="577" type="curve" smooth="yes"/>
      <point x="263" y="576"/>
      <point x="255" y="567"/>
      <point x="247" y="541" type="curve" smooth="yes"/>
      <point x="203" y="386"/>
      <point x="173" y="274"/>
    </contour>
  </outline>
</glyph>
<glyph name="C" format="1">
  <advance width="545"/>
  <unicode hex="0043"/>
  <outline>
    <contour>
      <point x="256" y="-8" type="curve" smooth="yes"/>
      <point x="113" y="-8"/>
      <point x="61" y="113"/>
      <point x="61" y="203" type="curve" smooth="yes"/>
      <point x="61" y="455"/>
      <point x="270" y="611"/>
      <point x="407" y="611" type="curve" smooth="yes"/>
      <point x="458" y="611"/>
      <point x="537" y="606"/>
      <point x="537" y="547" type="curve" smooth="yes"/>
      <point x="537" y="514"/>
      <point x="510" y="472"/>
      <point x="476" y="449" type="curve" smooth="yes"/>
      <point x="464" y="442"/>
      <point x="449" y="431"/>
      <point x="440" y="441" type="curve" smooth="yes"/>
      <point x="432" y="449"/>
      <point x="437" y="464"/>
      <point x="449" y="471" type="curve" smooth="yes"/>
      <point x="483" y="490"/>
      <point x="495" y="519"/>
      <point x="495" y="535" type="curve" smooth="yes"/>
      <point x="495" y="563"/>
      <point x="462" y="576"/>
      <point x="403" y="576" type="curve" smooth="yes"/>
      <point x="270" y="576"/>
      <point x="103" y="423"/>
      <point x="103" y="203" type="curve" smooth="yes"/>
      <point x="103" y="110"/>
      <point x="157" y="29"/>
      <point x="265" y="29" type="curve" smooth="yes"/>
      <point x="379" y="29"/>
      <point x="439" y="92"/>
      <point x="465" y="119" type="curve"/>
      <point x="481" y="134"/>
      <point x="498" y="141"/>
      <point x="506" y="136" type="curve" smooth="yes"/>
      <point x="517" y="130"/>
      <point x="505" y="114"/>
      <point x="494" y="102" type="curve" smooth="yes"/>
      <point x="415" y="19"/>
      <point x="356" y="-8"/>
    </contour>
  </outline>
</glyph>
<glyph name="D" format="1">
  <advance width="626"/>
  <unicode hex="0044"/>
  <outline>
    <contour>
      <point x="98" y="582" type="curve" smooth="yes"/>
      <point x="98" y="593"/>
      <point x="106" y="598"/>
      <point x="130" y="600" type="curve" smooth="yes"/>
      <point x="177" y="605"/>
      <point x="287" y="609"/>
      <point x="322" y="609" type="curve" smooth="yes"/>
      <point x="364" y="609"/>
      <point x="405" y="608"/>
      <point x="442" y="604" type="curve" smooth="yes"/>
      <point x="536" y="593"/>
      <point x="617" y="535"/>
      <point x="617" y="402" type="curve" smooth="yes"/>
      <point x="617" y="193"/>
      <point x="444" y="-6"/>
      <point x="259" y="-6" type="curve" smooth="yes"/>
      <point x="213" y="-6"/>
      <point x="146" y="5"/>
      <point x="104" y="38" type="curve"/>
      <point x="85" y="50"/>
      <point x="87" y="77"/>
      <point x="96" y="116" type="curve" smooth="yes"/>
      <point x="128" y="242"/>
      <point x="157" y="356"/>
      <point x="188" y="487" type="curve"/>
      <point x="207" y="560"/>
      <point x="205" y="576"/>
      <point x="136" y="570" type="curve" smooth="yes"/>
      <point x="112" y="567"/>
      <point x="98" y="572"/>
    </contour>
    <contour>
      <point x="243" y="543" type="curve" smooth="yes"/>
      <point x="203" y="392"/>
      <point x="171" y="279"/>
      <point x="138" y="116" type="curve"/>
      <point x="130" y="83"/>
      <point x="132" y="74"/>
      <point x="155" y="56" type="curve" smooth="yes"/>
      <point x="182" y="36"/>
      <point x="227" y="29"/>
      <point x="268" y="29" type="curve" smooth="yes"/>
      <point x="402" y="29"/>
      <point x="578" y="185"/>
      <point x="578" y="400" type="curve" smooth="yes"/>
      <point x="578" y="505"/>
      <point x="520" y="559"/>
      <point x="420" y="572" type="curve" smooth="yes"/>
      <point x="376" y="578"/>
      <point x="328" y="579"/>
      <point x="285" y="577" type="curve"/>
      <point x="254" y="577"/>
      <point x="250" y="568"/>
    </contour>
  </outline>
</glyph>
<glyph name="F" format="1">
  <advance width="505"/>
  <unicode hex="0046"/>
  <outline>
    <contour>
      <point x="114" y="593" type="curve" smooth="yes"/>
      <point x="115" y="605"/>
      <point x="130" y="608"/>
      <point x="167" y="600" type="curve"/>
      <point x="191" y="598"/>
      <point x="194" y="597"/>
      <point x="226" y="597" type="curve" smooth="yes"/>
      <point x="327" y="597"/>
      <point x="482" y="607"/>
      <point x="508" y="607" type="curve" smooth="yes"/>
      <point x="550" y="607"/>
      <point x="561" y="594"/>
      <point x="564" y="562" type="curve" smooth="yes"/>
      <point x="567" y="535"/>
      <point x="551" y="482"/>
      <point x="525" y="460" type="curve" smooth="yes"/>
      <point x="517" y="453"/>
      <point x="508" y="449"/>
      <point x="503" y="455" type="curve" smooth="yes"/>
      <point x="500" y="459"/>
      <point x="495" y="466"/>
      <point x="502" y="476" type="curve" smooth="yes"/>
      <point x="519" y="501"/>
      <point x="529" y="528"/>
      <point x="529" y="545" type="curve"/>
      <point x="528" y="561"/>
      <point x="525" y="572"/>
      <point x="497" y="572" type="curve" smooth="yes"/>
      <point x="443" y="572"/>
      <point x="347" y="563"/>
      <point x="272" y="562" type="curve" smooth="yes"/>
      <point x="253" y="562"/>
      <point x="245" y="553"/>
      <point x="242" y="540" type="curve" smooth="yes"/>
      <point x="231" y="500"/>
      <point x="216" y="424"/>
      <point x="205" y="366" type="curve" smooth="yes"/>
      <point x="202" y="347"/>
      <point x="196" y="331"/>
      <point x="241" y="331" type="curve" smooth="yes"/>
      <point x="258" y="331"/>
      <point x="306" y="330"/>
      <point x="320" y="330" type="curve" smooth="yes"/>
      <point x="374" y="330"/>
      <point x="379" y="330"/>
      <point x="404" y="400" type="curve" smooth="yes"/>
      <point x="407" y="407"/>
      <point x="418" y="417"/>
      <point x="431" y="415" type="curve"/>
      <point x="441" y="415"/>
      <point x="437" y="396"/>
      <point x="433" y="385" type="curve" smooth="yes"/>
      <point x="411" y="327"/>
      <point x="400" y="285"/>
      <point x="387" y="229" type="curve"/>
      <point x="386" y="219"/>
      <point x="380" y="209"/>
      <point x="367" y="208" type="curve" smooth="yes"/>
      <point x="362" y="208"/>
      <point x="354" y="216"/>
      <point x="357" y="228" type="curve" smooth="yes"/>
      <point x="370" y="279"/>
      <point x="358" y="292"/>
      <point x="318" y="296" type="curve" smooth="yes"/>
      <point x="285" y="299"/>
      <point x="232" y="299"/>
      <point x="221" y="299" type="curve" smooth="yes"/>
      <point x="198" y="297"/>
      <point x="191" y="293"/>
      <point x="186" y="274" type="curve" smooth="yes"/>
      <point x="173" y="223"/>
      <point x="160" y="167"/>
      <point x="150" y="114" type="curve" smooth="yes"/>
      <point x="136" y="41"/>
      <point x="147" y="40"/>
      <point x="215" y="32" type="curve" smooth="yes"/>
      <point x="235" y="29"/>
      <point x="242" y="17"/>
      <point x="237" y="7" type="curve" smooth="yes"/>
      <point x="232" y="-5"/>
      <point x="202" y="-2"/>
      <point x="189" y="0" type="curve" smooth="yes"/>
      <point x="134" y="6"/>
      <point x="87" y="2"/>
      <point x="29" y="-4" type="curve" smooth="yes"/>
      <point x="-4" y="-8"/>
      <point x="-6" y="1"/>
      <point x="-3" y="12" type="curve" smooth="yes"/>
      <point x="0" y="26"/>
      <point x="15" y="30"/>
      <point x="41" y="32" type="curve" smooth="yes"/>
      <point x="87" y="35"/>
      <point x="93" y="42"/>
      <point x="109" y="103" type="curve" smooth="yes"/>
      <point x="129" y="184"/>
      <point x="181" y="412"/>
      <point x="199" y="504" type="curve" smooth="yes"/>
      <point x="210" y="561"/>
      <point x="208" y="559"/>
      <point x="150" y="568" type="curve"/>
      <point x="112" y="575"/>
      <point x="114" y="582"/>
    </contour>
  </outline>
</glyph>
<glyph name="H" format="1">
  <advance width="742"/>
  <unicode hex="0048"/>
  <outline>
    <contour>
      <point x="557" y="591" type="curve" smooth="yes"/>
      <point x="561" y="608"/>
      <point x="576" y="606"/>
      <point x="611" y="603" type="curve"/>
      <point x="654" y="598"/>
      <point x="693" y="598"/>
      <point x="737" y="602" type="curve" smooth="yes"/>
      <point x="779" y="605"/>
      <point x="791" y="602"/>
      <point x="791" y="593" type="curve" smooth="yes"/>
      <point x="791" y="583"/>
      <point x="783" y="573"/>
      <point x="758" y="572" type="curve" smooth="yes"/>
      <point x="699" y="570"/>
      <point x="694" y="565"/>
      <point x="681" y="511" type="curve"/>
      <point x="649" y="391"/>
      <point x="619" y="269"/>
      <point x="587" y="114" type="curve" smooth="yes"/>
      <point x="572" y="41"/>
      <point x="576" y="36"/>
      <point x="651" y="30" type="curve" smooth="yes"/>
      <point x="669" y="29"/>
      <point x="676" y="24"/>
      <point x="672" y="12" type="curve" smooth="yes"/>
      <point x="668" y="-1"/>
      <point x="636" y="-2"/>
      <point x="625" y="0" type="curve" smooth="yes"/>
      <point x="567" y="6"/>
      <point x="508" y="6"/>
      <point x="449" y="-2" type="curve" smooth="yes"/>
      <point x="420" y="-5"/>
      <point x="414" y="2"/>
      <point x="417" y="13" type="curve" smooth="yes"/>
      <point x="420" y="27"/>
      <point x="428" y="26"/>
      <point x="462" y="29" type="curve" smooth="yes"/>
      <point x="521" y="35"/>
      <point x="523" y="43"/>
      <point x="543" y="103" type="curve" smooth="yes"/>
      <point x="554" y="136"/>
      <point x="569" y="205"/>
      <point x="586" y="278" type="curve" smooth="yes"/>
      <point x="592" y="302"/>
      <point x="585" y="303"/>
      <point x="571" y="303" type="curve" smooth="yes"/>
      <point x="471" y="305"/>
      <point x="304" y="305"/>
      <point x="215" y="302" type="curve" smooth="yes"/>
      <point x="194" y="301"/>
      <point x="193" y="299"/>
      <point x="187" y="278" type="curve" smooth="yes"/>
      <point x="173" y="230"/>
      <point x="162" y="175"/>
      <point x="149" y="114" type="curve" smooth="yes"/>
      <point x="134" y="41"/>
      <point x="138" y="36"/>
      <point x="213" y="30" type="curve" smooth="yes"/>
      <point x="231" y="29"/>
      <point x="238" y="24"/>
      <point x="234" y="12" type="curve" smooth="yes"/>
      <point x="230" y="-1"/>
      <point x="199" y="-2"/>
      <point x="187" y="0" type="curve" smooth="yes"/>
      <point x="130" y="6"/>
      <point x="70" y="6"/>
      <point x="11" y="-2" type="curve" smooth="yes"/>
      <point x="-18" y="-5"/>
      <point x="-24" y="2"/>
      <point x="-21" y="13" type="curve" smooth="yes"/>
      <point x="-18" y="27"/>
      <point x="-10" y="26"/>
      <point x="24" y="29" type="curve" smooth="yes"/>
      <point x="83" y="35"/>
      <point x="85" y="43"/>
      <point x="105" y="103" type="curve" smooth="yes"/>
      <point x="129" y="175"/>
      <point x="182" y="414"/>
      <point x="200" y="505" type="curve" smooth="yes"/>
      <point x="213" y="566"/>
      <point x="209" y="567"/>
      <point x="155" y="575" type="curve" smooth="yes"/>
      <point x="125" y="579"/>
      <point x="117" y="579"/>
      <point x="120" y="591" type="curve" smooth="yes"/>
      <point x="123" y="608"/>
      <point x="138" y="606"/>
      <point x="173" y="603" type="curve"/>
      <point x="216" y="598"/>
      <point x="255" y="598"/>
      <point x="300" y="602" type="curve" smooth="yes"/>
      <point x="341" y="605"/>
      <point x="354" y="602"/>
      <point x="354" y="593" type="curve" smooth="yes"/>
      <point x="354" y="583"/>
      <point x="345" y="573"/>
      <point x="320" y="572" type="curve" smooth="yes"/>
      <point x="261" y="570"/>
      <point x="257" y="565"/>
      <point x="243" y="511" type="curve" smooth="yes"/>
      <point x="230" y="463"/>
      <point x="217" y="414"/>
      <point x="205" y="363" type="curve"/>
      <point x="199" y="342"/>
      <point x="194" y="339"/>
      <point x="217" y="338" type="curve" smooth="yes"/>
      <point x="314" y="336"/>
      <point x="471" y="336"/>
      <point x="582" y="339" type="curve" smooth="yes"/>
      <point x="603" y="340"/>
      <point x="602" y="339"/>
      <point x="606" y="359" type="curve" smooth="yes"/>
      <point x="620" y="417"/>
      <point x="631" y="471"/>
      <point x="638" y="505" type="curve" smooth="yes"/>
      <point x="651" y="566"/>
      <point x="646" y="567"/>
      <point x="593" y="575" type="curve" smooth="yes"/>
      <point x="562" y="579"/>
      <point x="555" y="579"/>
    </contour>
  </outline>
</glyph>
<glyph name="J" format="1">
  <advance width="290"/>
  <unicode hex="004A"/>
  <outline>
    <contour>
      <point x="128" y="597" type="curve" smooth="yes"/>
      <point x="131" y="611"/>
      <point x="154" y="610"/>
      <point x="171" y="608" type="curve" smooth="yes"/>
      <point x="215" y="602"/>
      <point x="256" y="601"/>
      <point x="301" y="604" type="curve"/>
      <point x="342" y="608"/>
      <point x="359" y="606"/>
      <point x="359" y="597" type="curve" smooth="yes"/>
      <point x="360" y="588"/>
      <point x="352" y="579"/>
      <point x="327" y="577" type="curve" smooth="yes"/>
      <point x="268" y="571"/>
      <point x="269" y="551"/>
      <point x="259" y="513" type="curve" smooth="yes"/>
      <point x="225" y="375"/>
      <point x="196" y="239"/>
      <point x="184" y="198" type="curve" smooth="yes"/>
      <point x="148" y="82"/>
      <point x="65" y="-175"/>
      <point x="-108" y="-175" type="curve" smooth="yes"/>
      <point x="-152" y="-175"/>
      <point x="-178" y="-149"/>
      <point x="-178" y="-112" type="curve"/>
      <point x="-179" y="-90"/>
      <point x="-157" y="-56"/>
      <point x="-135" y="-40" type="curve" smooth="yes"/>
      <point x="-114" y="-24"/>
      <point x="-104" y="-28"/>
      <point x="-99" y="-33" type="curve" smooth="yes"/>
      <point x="-94" y="-37"/>
      <point x="-93" y="-50"/>
      <point x="-106" y="-59" type="curve" smooth="yes"/>
      <point x="-120" y="-69"/>
      <point x="-138" y="-96"/>
      <point x="-138" y="-105" type="curve" smooth="yes"/>
      <point x="-138" y="-125"/>
      <point x="-129" y="-138"/>
      <point x="-104" y="-138" type="curve" smooth="yes"/>
      <point x="46" y="-138"/>
      <point x="126" y="122"/>
      <point x="146" y="203" type="curve" smooth="yes"/>
      <point x="173" y="308"/>
      <point x="202" y="424"/>
      <point x="215" y="513" type="curve"/>
      <point x="222" y="568"/>
      <point x="211" y="567"/>
      <point x="154" y="579" type="curve" smooth="yes"/>
      <point x="134" y="583"/>
      <point x="125" y="587"/>
    </contour>
  </outline>
</glyph>
<glyph name="M" format="1">
  <advance width="866"/>
  <unicode hex="004D"/>
  <outline>
    <contour>
      <point x="144" y="587" type="curve" smooth="yes"/>
      <point x="147" y="598"/>
      <point x="158" y="602"/>
      <point x="171" y="602" type="curve"/>
      <point x="168" y="602"/>
      <point x="242" y="604"/>
      <point x="273" y="597" type="curve" smooth="yes"/>
      <point x="311" y="589"/>
      <point x="331" y="564"/>
      <point x="340" y="529" type="curve"/>
      <point x="354" y="459"/>
      <point x="376" y="228"/>
      <point x="383" y="90" type="curve" smooth="yes"/>
      <point x="384" y="81"/>
      <point x="394" y="74"/>
      <point x="402" y="90" type="curve" smooth="yes"/>
      <point x="471" y="223"/>
      <point x="615" y="471"/>
      <point x="630" y="496" type="curve" smooth="yes"/>
      <point x="670" y="566"/>
      <point x="706" y="597"/>
      <point x="768" y="601" type="curve" smooth="yes"/>
      <point x="795" y="603"/>
      <point x="815" y="603"/>
      <point x="830" y="603" type="curve" smooth="yes"/>
      <point x="845" y="603"/>
      <point x="848" y="596"/>
      <point x="846" y="586" type="curve" smooth="yes"/>
      <point x="844" y="575"/>
      <point x="830" y="570"/>
      <point x="823" y="570" type="curve" smooth="yes"/>
      <point x="742" y="566"/>
      <point x="739" y="563"/>
      <point x="737" y="495" type="curve"/>
      <point x="731" y="365"/>
      <point x="724" y="230"/>
      <point x="721" y="92" type="curve" smooth="yes"/>
      <point x="720" y="34"/>
      <point x="726" y="39"/>
      <point x="794" y="28" type="curve"/>
      <point x="806" y="25"/>
      <point x="814" y="21"/>
      <point x="810" y="10" type="curve"/>
      <point x="806" y="2"/>
      <point x="800" y="-3"/>
      <point x="782" y="-2" type="curve" smooth="yes"/>
      <point x="720" y="2"/>
      <point x="653" y="4"/>
      <point x="601" y="0" type="curve" smooth="yes"/>
      <point x="581" y="-2"/>
      <point x="566" y="-3"/>
      <point x="566" y="9" type="curve" smooth="yes"/>
      <point x="566" y="19"/>
      <point x="571" y="27"/>
      <point x="589" y="29" type="curve" smooth="yes"/>
      <point x="668" y="36"/>
      <point x="679" y="35"/>
      <point x="683" y="106" type="curve" smooth="yes"/>
      <point x="690" y="229"/>
      <point x="697" y="382"/>
      <point x="699" y="503" type="curve" smooth="yes"/>
      <point x="699" y="522"/>
      <point x="685" y="513"/>
      <point x="678" y="503" type="curve" smooth="yes"/>
      <point x="656" y="471"/>
      <point x="500" y="202"/>
      <point x="427" y="50" type="curve" smooth="yes"/>
      <point x="409" y="14"/>
      <point x="378" y="-4"/>
      <point x="357" y="-4" type="curve" smooth="yes"/>
      <point x="335" y="-4"/>
      <point x="344" y="52"/>
      <point x="344" y="67" type="curve" smooth="yes"/>
      <point x="346" y="174"/>
      <point x="323" y="383"/>
      <point x="303" y="499" type="curve" smooth="yes"/>
      <point x="301" y="510"/>
      <point x="291" y="530"/>
      <point x="279" y="499" type="curve" smooth="yes"/>
      <point x="236" y="392"/>
      <point x="132" y="180"/>
      <point x="76" y="98" type="curve" smooth="yes"/>
      <point x="38" y="41"/>
      <point x="36" y="35"/>
      <point x="82" y="36" type="curve" smooth="yes"/>
      <point x="98" y="37"/>
      <point x="130" y="36"/>
      <point x="159" y="35" type="curve" smooth="yes"/>
      <point x="175" y="34"/>
      <point x="192" y="29"/>
      <point x="185" y="13" type="curve"/>
      <point x="182" y="2"/>
      <point x="168" y="-3"/>
      <point x="152" y="-1" type="curve" smooth="yes"/>
      <point x="106" y="4"/>
      <point x="55" y="4"/>
      <point x="17" y="0" type="curve" smooth="yes"/>
      <point x="-3" y="-2"/>
      <point x="-16" y="0"/>
      <point x="-19" y="9" type="curve" smooth="yes"/>
      <point x="-24" y="29"/>
      <point x="24" y="84"/>
      <point x="38" y="105" type="curve" smooth="yes"/>
      <point x="102" y="204"/>
      <point x="189" y="372"/>
      <point x="226" y="471" type="curve"/>
      <point x="264" y="569"/>
      <point x="274" y="566"/>
      <point x="162" y="571" type="curve" smooth="yes"/>
      <point x="146" y="572"/>
      <point x="141" y="574"/>
    </contour>
  </outline>
</glyph>
<glyph name="N" format="1">
  <advance width="670"/>
  <unicode hex="004E"/>
  <outline>
    <contour>
      <point x="97" y="593" type="curve"/>
      <point x="99" y="600"/>
      <point x="106" y="602"/>
      <point x="136" y="603" type="curve" smooth="yes"/>
      <point x="210" y="604"/>
      <point x="254" y="601"/>
      <point x="291" y="583" type="curve" smooth="yes"/>
      <point x="417" y="523"/>
      <point x="503" y="289"/>
      <point x="519" y="158" type="curve"/>
      <point x="527" y="103"/>
      <point x="533" y="103"/>
      <point x="545" y="154" type="curve"/>
      <point x="569" y="245"/>
      <point x="604" y="405"/>
      <point x="625" y="503" type="curve" smooth="yes"/>
      <point x="640" y="572"/>
      <point x="642" y="573"/>
      <point x="527" y="577" type="curve" smooth="yes"/>
      <point x="508" y="578"/>
      <point x="502" y="588"/>
      <point x="504" y="597" type="curve"/>
      <point x="508" y="604"/>
      <point x="509" y="608"/>
      <point x="545" y="604" type="curve" smooth="yes"/>
      <point x="590" y="600"/>
      <point x="638" y="599"/>
      <point x="684" y="604" type="curve"/>
      <point x="694" y="604"/>
      <point x="725" y="604"/>
      <point x="726" y="594" type="curve" smooth="yes"/>
      <point x="726" y="588"/>
      <point x="721" y="582"/>
      <point x="707" y="578" type="curve" smooth="yes"/>
      <point x="684" y="572"/>
      <point x="677" y="556"/>
      <point x="664" y="508" type="curve" smooth="yes"/>
      <point x="636" y="398"/>
      <point x="600" y="237"/>
      <point x="555" y="38" type="curve" smooth="yes"/>
      <point x="545" y="-4"/>
      <point x="543" y="-5"/>
      <point x="521" y="-6" type="curve" smooth="yes"/>
      <point x="494" y="-7"/>
      <point x="495" y="-3"/>
      <point x="494" y="24" type="curve" smooth="yes"/>
      <point x="491" y="301"/>
      <point x="343" y="544"/>
      <point x="262" y="550" type="curve" smooth="yes"/>
      <point x="246" y="551"/>
      <point x="242" y="544"/>
      <point x="238" y="525" type="curve"/>
      <point x="226" y="481"/>
      <point x="168" y="227"/>
      <point x="152" y="137" type="curve" smooth="yes"/>
      <point x="135" y="43"/>
      <point x="130" y="37"/>
      <point x="219" y="31" type="curve" smooth="yes"/>
      <point x="247" y="29"/>
      <point x="249" y="22"/>
      <point x="247" y="13" type="curve" smooth="yes"/>
      <point x="243" y="-4"/>
      <point x="220" y="-3"/>
      <point x="202" y="-1" type="curve" smooth="yes"/>
      <point x="157" y="4"/>
      <point x="113" y="1"/>
      <point x="44" y="-3" type="curve" smooth="yes"/>
      <point x="16" y="-4"/>
      <point x="24" y="27"/>
      <point x="48" y="30" type="curve" smooth="yes"/>
      <point x="79" y="35"/>
      <point x="88" y="39"/>
      <point x="104" y="103" type="curve" smooth="yes"/>
      <point x="133" y="214"/>
      <point x="168" y="364"/>
      <point x="201" y="510" type="curve"/>
      <point x="216" y="568"/>
      <point x="206" y="570"/>
      <point x="125" y="572" type="curve" smooth="yes"/>
      <point x="107" y="572"/>
      <point x="91" y="581"/>
    </contour>
  </outline>
</glyph>
<glyph name="O" format="1">
  <advance width="692"/>
  <unicode hex="004F"/>
  <outline>
    <contour>
      <point x="425" y="618" type="curve" smooth="yes"/>
      <point x="595" y="618"/>
      <point x="668" y="502"/>
      <point x="668" y="380" type="curve" smooth="yes"/>
      <point x="668" y="189"/>
      <point x="524" y="-16"/>
      <point x="323" y="-16" type="curve" smooth="yes"/>
      <point x="141" y="-16"/>
      <point x="66" y="113"/>
      <point x="66" y="238" type="curve" smooth="yes"/>
      <point x="66" y="424"/>
      <point x="228" y="618"/>
    </contour>
    <contour>
      <point x="107" y="242" type="curve" smooth="yes"/>
      <point x="107" y="98"/>
      <point x="196" y="19"/>
      <point x="327" y="18" type="curve" smooth="yes"/>
      <point x="452" y="17"/>
      <point x="625" y="151"/>
      <point x="625" y="378" type="curve" smooth="yes"/>
      <point x="625" y="514"/>
      <point x="530" y="580"/>
      <point x="423" y="580" type="curve" smooth="yes"/>
      <point x="256" y="580"/>
      <point x="107" y="423"/>
    </contour>
  </outline>
</glyph>
<glyph name="P" format="1">
  <advance width="503"/>
  <unicode hex="0050"/>
  <outline>
    <contour>
      <point x="109" y="593" type="curve" smooth="yes"/>
      <point x="110" y="608"/>
      <point x="146" y="603"/>
      <point x="163" y="599" type="curve"/>
      <point x="208" y="593"/>
      <point x="235" y="597"/>
      <point x="281" y="599" type="curve"/>
      <point x="296" y="601"/>
      <point x="335" y="603"/>
      <point x="375" y="602" type="curve" smooth="yes"/>
      <point x="455" y="601"/>
      <point x="523" y="559"/>
      <point x="523" y="472" type="curve" smooth="yes"/>
      <point x="523" y="338"/>
      <point x="370" y="269"/>
      <point x="263" y="269" type="curve" smooth="yes"/>
      <point x="242" y="269"/>
      <point x="227" y="270"/>
      <point x="231" y="283" type="curve"/>
      <point x="231" y="292"/>
      <point x="238" y="303"/>
      <point x="262" y="303" type="curve" smooth="yes"/>
      <point x="361" y="303"/>
      <point x="481" y="359"/>
      <point x="481" y="464" type="curve" smooth="yes"/>
      <point x="481" y="513"/>
      <point x="460" y="557"/>
      <point x="376" y="567" type="curve" smooth="yes"/>
      <point x="356" y="570"/>
      <point x="316" y="568"/>
      <point x="299" y="566" type="curve" smooth="yes"/>
      <point x="254" y="559"/>
      <point x="249" y="569"/>
      <point x="232" y="506" type="curve" smooth="yes"/>
      <point x="209" y="417"/>
      <point x="179" y="287"/>
      <point x="145" y="118" type="curve" smooth="yes"/>
      <point x="129" y="40"/>
      <point x="136" y="38"/>
      <point x="213" y="28" type="curve" smooth="yes"/>
      <point x="232" y="25"/>
      <point x="238" y="20"/>
      <point x="236" y="10" type="curve"/>
      <point x="232" y="-3"/>
      <point x="199" y="-2"/>
      <point x="186" y="0" type="curve" smooth="yes"/>
      <point x="128" y="6"/>
      <point x="82" y="2"/>
      <point x="20" y="-4" type="curve" smooth="yes"/>
      <point x="-2" y="-6"/>
      <point x="-14" y="1"/>
      <point x="-13" y="8" type="curve" smooth="yes"/>
      <point x="-10" y="21"/>
      <point x="-4" y="26"/>
      <point x="30" y="29" type="curve" smooth="yes"/>
      <point x="76" y="32"/>
      <point x="87" y="55"/>
      <point x="101" y="106" type="curve" smooth="yes"/>
      <point x="122" y="178"/>
      <point x="174" y="412"/>
      <point x="191" y="508" type="curve" smooth="yes"/>
      <point x="201" y="564"/>
      <point x="185" y="562"/>
      <point x="146" y="570" type="curve" smooth="yes"/>
      <point x="111" y="577"/>
      <point x="109" y="579"/>
    </contour>
  </outline>
</glyph>
<glyph name="Q" format="1">
  <advance width="692"/>
  <unicode hex="0051"/>
  <outline>
    <contour>
      <point x="425" y="618" type="curve" smooth="yes"/>
      <point x="595" y="618"/>
      <point x="668" y="502"/>
      <point x="668" y="380" type="curve" smooth="yes"/>
      <point x="668" y="189"/>
      <point x="524" y="-16"/>
      <point x="323" y="-16" type="curve" smooth="yes"/>
      <point x="309" y="-16"/>
      <point x="296" y="-15"/>
      <point x="284" y="-13" type="curve" smooth="yes"/>
      <point x="260" y="-10"/>
      <point x="251" y="-9"/>
      <point x="239" y="-24" type="curve" smooth="yes"/>
      <point x="233" y="-32"/>
      <point x="203" y="-58"/>
      <point x="183" y="-70" type="curve" smooth="yes"/>
      <point x="166" y="-80"/>
      <point x="164" y="-83"/>
      <point x="204" y="-87" type="curve" smooth="yes"/>
      <point x="243" y="-90"/>
      <point x="296" y="-106"/>
      <point x="341" y="-125" type="curve" smooth="yes"/>
      <point x="380" y="-142"/>
      <point x="443" y="-169"/>
      <point x="490" y="-169" type="curve" smooth="yes"/>
      <point x="540" y="-169"/>
      <point x="582" y="-103"/>
      <point x="618" y="-57" type="curve" smooth="yes"/>
      <point x="633" y="-38"/>
      <point x="639" y="-34"/>
      <point x="647" y="-37" type="curve" smooth="yes"/>
      <point x="657" y="-40"/>
      <point x="650" y="-59"/>
      <point x="644" y="-69" type="curve" smooth="yes"/>
      <point x="620" y="-107"/>
      <point x="601" y="-134"/>
      <point x="569" y="-167" type="curve" smooth="yes"/>
      <point x="544" y="-192"/>
      <point x="519" y="-206"/>
      <point x="493" y="-206" type="curve" smooth="yes"/>
      <point x="433" y="-206"/>
      <point x="374" y="-178"/>
      <point x="324" y="-161" type="curve"/>
      <point x="287" y="-146"/>
      <point x="209" y="-120"/>
      <point x="147" y="-120" type="curve" smooth="yes"/>
      <point x="109" y="-120"/>
      <point x="62" y="-121"/>
      <point x="15" y="-135" type="curve" smooth="yes"/>
      <point x="-34" y="-149"/>
      <point x="-59" y="-153"/>
      <point x="-50" y="-129" type="curve" smooth="yes"/>
      <point x="-43" y="-111"/>
      <point x="-37" y="-110"/>
      <point x="-15" y="-107" type="curve" smooth="yes"/>
      <point x="35" y="-98"/>
      <point x="97" y="-80"/>
      <point x="138" y="-58" type="curve" smooth="yes"/>
      <point x="159" y="-47"/>
      <point x="207" y="-13"/>
      <point x="211" y="-7" type="curve" smooth="yes"/>
      <point x="219" y="5"/>
      <point x="205" y="6"/>
      <point x="196" y="10" type="curve" smooth="yes"/>
      <point x="105" y="55"/>
      <point x="66" y="147"/>
      <point x="66" y="238" type="curve" smooth="yes"/>
      <point x="66" y="424"/>
      <point x="228" y="618"/>
    </contour>
    <contour>
      <point x="107" y="242" type="curve" smooth="yes"/>
      <point x="107" y="140"/>
      <point x="151" y="72"/>
      <point x="223" y="40" type="curve" smooth="yes"/>
      <point x="241" y="32"/>
      <point x="242" y="32"/>
      <point x="254" y="49" type="curve" smooth="yes"/>
      <point x="276" y="79"/>
      <point x="304" y="114"/>
      <point x="327" y="148" type="curve" smooth="yes"/>
      <point x="336" y="161"/>
      <point x="347" y="166"/>
      <point x="355" y="162" type="curve" smooth="yes"/>
      <point x="364" y="157"/>
      <point x="364" y="143"/>
      <point x="359" y="136" type="curve" smooth="yes"/>
      <point x="339" y="113"/>
      <point x="313" y="75"/>
      <point x="290" y="41" type="curve" smooth="yes"/>
      <point x="272" y="13"/>
      <point x="303" y="19"/>
      <point x="327" y="19" type="curve" smooth="yes"/>
      <point x="452" y="18"/>
      <point x="625" y="151"/>
      <point x="625" y="378" type="curve" smooth="yes"/>
      <point x="625" y="514"/>
      <point x="530" y="580"/>
      <point x="423" y="580" type="curve" smooth="yes"/>
      <point x="256" y="580"/>
      <point x="107" y="423"/>
    </contour>
  </outline>
</glyph>
<glyph name="S" format="1">
  <advance width="436"/>
  <unicode hex="0053"/>
  <outline>
    <contour>
      <point x="170" y="-8" type="curve" smooth="yes"/>
      <point x="104" y="-8"/>
      <point x="21" y="22"/>
      <point x="22" y="99" type="curve"/>
      <point x="24" y="148"/>
      <point x="73" y="195"/>
      <point x="115" y="212" type="curve" smooth="yes"/>
      <point x="126" y="216"/>
      <point x="141" y="221"/>
      <point x="146" y="212" type="curve" smooth="yes"/>
      <point x="150" y="204"/>
      <point x="148" y="193"/>
      <point x="138" y="188" type="curve" smooth="yes"/>
      <point x="87" y="161"/>
      <point x="65" y="137"/>
      <point x="64" y="104" type="curve" smooth="yes"/>
      <point x="63" y="46"/>
      <point x="131" y="28"/>
      <point x="177" y="28" type="curve" smooth="yes"/>
      <point x="306" y="28"/>
      <point x="366" y="120"/>
      <point x="368" y="173" type="curve" smooth="yes"/>
      <point x="370" y="246"/>
      <point x="337" y="276"/>
      <point x="247" y="329" type="curve"/>
      <point x="180" y="370"/>
      <point x="115" y="407"/>
      <point x="117" y="472" type="curve"/>
      <point x="118" y="540"/>
      <point x="213" y="609"/>
      <point x="305" y="609" type="curve" smooth="yes"/>
      <point x="407" y="609"/>
      <point x="432" y="574"/>
      <point x="431" y="534" type="curve" smooth="yes"/>
      <point x="431" y="508"/>
      <point x="411" y="479"/>
      <point x="386" y="456" type="curve" smooth="yes"/>
      <point x="371" y="441"/>
      <point x="362" y="440"/>
      <point x="355" y="444" type="curve" smooth="yes"/>
      <point x="348" y="448"/>
      <point x="343" y="459"/>
      <point x="359" y="473" type="curve" smooth="yes"/>
      <point x="381" y="494"/>
      <point x="391" y="509"/>
      <point x="391" y="532" type="curve" smooth="yes"/>
      <point x="391" y="578"/>
      <point x="330" y="575"/>
      <point x="299" y="575" type="curve" smooth="yes"/>
      <point x="230" y="575"/>
      <point x="157" y="519"/>
      <point x="157" y="474" type="curve" smooth="yes"/>
      <point x="157" y="429"/>
      <point x="201" y="398"/>
      <point x="271" y="359" type="curve" smooth="yes"/>
      <point x="388" y="295"/>
      <point x="405" y="245"/>
      <point x="405" y="179" type="curve" smooth="yes"/>
      <point x="405" y="100"/>
      <point x="323" y="-8"/>
    </contour>
  </outline>
</glyph>
<glyph name="T" format="1">
  <advance width="529"/>
  <unicode hex="0054"/>
  <outline>
    <contour>
      <point x="327" y="543" type="curve" smooth="yes"/>
      <point x="332" y="566"/>
      <point x="321" y="566"/>
      <point x="308" y="566" type="curve" smooth="yes"/>
      <point x="253" y="566"/>
      <point x="214" y="566"/>
      <point x="180" y="573" type="curve" smooth="yes"/>
      <point x="150" y="579"/>
      <point x="145" y="576"/>
      <point x="136" y="559" type="curve" smooth="yes"/>
      <point x="123" y="535"/>
      <point x="109" y="492"/>
      <point x="91" y="453" type="curve"/>
      <point x="86" y="439"/>
      <point x="72" y="424"/>
      <point x="61" y="428" type="curve" smooth="yes"/>
      <point x="51" y="431"/>
      <point x="49" y="439"/>
      <point x="58" y="458" type="curve" smooth="yes"/>
      <point x="66" y="476"/>
      <point x="95" y="561"/>
      <point x="114" y="598" type="curve" smooth="yes"/>
      <point x="125" y="618"/>
      <point x="130" y="617"/>
      <point x="147" y="613" type="curve"/>
      <point x="179" y="602"/>
      <point x="231" y="596"/>
      <point x="376" y="598" type="curve"/>
      <point x="453" y="601"/>
      <point x="535" y="609"/>
      <point x="561" y="610" type="curve"/>
      <point x="585" y="613"/>
      <point x="612" y="592"/>
      <point x="611" y="559" type="curve" smooth="yes"/>
      <point x="610" y="522"/>
      <point x="601" y="463"/>
      <point x="544" y="427" type="curve" smooth="yes"/>
      <point x="535" y="421"/>
      <point x="528" y="419"/>
      <point x="523" y="423" type="curve"/>
      <point x="513" y="427"/>
      <point x="513" y="439"/>
      <point x="519" y="444" type="curve" smooth="yes"/>
      <point x="561" y="479"/>
      <point x="572" y="508"/>
      <point x="572" y="545" type="curve" smooth="yes"/>
      <point x="572" y="567"/>
      <point x="566" y="578"/>
      <point x="536" y="575" type="curve" smooth="yes"/>
      <point x="512" y="572"/>
      <point x="447" y="567"/>
      <point x="413" y="567" type="curve" smooth="yes"/>
      <point x="380" y="567"/>
      <point x="371" y="553"/>
      <point x="367" y="536" type="curve" smooth="yes"/>
      <point x="346" y="458"/>
      <point x="282" y="169"/>
      <point x="274" y="119" type="curve" smooth="yes"/>
      <point x="260" y="40"/>
      <point x="253" y="42"/>
      <point x="346" y="31" type="curve" smooth="yes"/>
      <point x="365" y="29"/>
      <point x="389" y="29"/>
      <point x="386" y="10" type="curve"/>
      <point x="386" y="0"/>
      <point x="371" y="-4"/>
      <point x="348" y="-1" type="curve" smooth="yes"/>
      <point x="285" y="7"/>
      <point x="174" y="2"/>
      <point x="127" y="-2" type="curve" smooth="yes"/>
      <point x="117" y="-3"/>
      <point x="104" y="1"/>
      <point x="104" y="11" type="curve" smooth="yes"/>
      <point x="104" y="29"/>
      <point x="124" y="30"/>
      <point x="139" y="31" type="curve" smooth="yes"/>
      <point x="210" y="36"/>
      <point x="205" y="26"/>
      <point x="227" y="109" type="curve"/>
      <point x="252" y="199"/>
      <point x="306" y="442"/>
    </contour>
  </outline>
</glyph>
<glyph name="V" format="1">
  <advance width="588"/>
  <unicode hex="0056"/>
  <outline>
    <contour>
      <point x="111" y="593" type="curve" smooth="yes"/>
      <point x="111" y="601"/>
      <point x="130" y="606"/>
      <point x="146" y="604" type="curve"/>
      <point x="173" y="598"/>
      <point x="244" y="597"/>
      <point x="284" y="604" type="curve" smooth="yes"/>
      <point x="303" y="607"/>
      <point x="322" y="604"/>
      <point x="321" y="593" type="curve" smooth="yes"/>
      <point x="320" y="584"/>
      <point x="313" y="574"/>
      <point x="298" y="573" type="curve" smooth="yes"/>
      <point x="240" y="569"/>
      <point x="237" y="556"/>
      <point x="248" y="482" type="curve" smooth="yes"/>
      <point x="260" y="407"/>
      <point x="281" y="283"/>
      <point x="292" y="118" type="curve" smooth="yes"/>
      <point x="293" y="91"/>
      <point x="302" y="80"/>
      <point x="326" y="126" type="curve"/>
      <point x="360" y="195"/>
      <point x="415" y="260"/>
      <point x="462" y="312" type="curve" smooth="yes"/>
      <point x="551" y="412"/>
      <point x="599" y="463"/>
      <point x="599" y="540" type="curve" smooth="yes"/>
      <point x="599" y="565"/>
      <point x="579" y="575"/>
      <point x="555" y="575" type="curve" smooth="yes"/>
      <point x="535" y="575"/>
      <point x="508" y="561"/>
      <point x="498" y="551" type="curve" smooth="yes"/>
      <point x="481" y="535"/>
      <point x="463" y="530"/>
      <point x="455" y="544" type="curve" smooth="yes"/>
      <point x="447" y="556"/>
      <point x="464" y="572"/>
      <point x="481" y="585" type="curve" smooth="yes"/>
      <point x="512" y="608"/>
      <point x="546" y="614"/>
      <point x="576" y="613" type="curve" smooth="yes"/>
      <point x="614" y="612"/>
      <point x="645" y="588"/>
      <point x="641" y="538" type="curve"/>
      <point x="638" y="469"/>
      <point x="575" y="380"/>
      <point x="488" y="290" type="curve"/>
      <point x="442" y="239"/>
      <point x="334" y="99"/>
      <point x="320" y="31" type="curve" smooth="yes"/>
      <point x="316" y="13"/>
      <point x="311" y="0"/>
      <point x="293" y="-4" type="curve" smooth="yes"/>
      <point x="261" y="-12"/>
      <point x="261" y="6"/>
      <point x="258" y="64" type="curve" smooth="yes"/>
      <point x="251" y="245"/>
      <point x="232" y="365"/>
      <point x="210" y="483" type="curve" smooth="yes"/>
      <point x="193" y="573"/>
      <point x="187" y="572"/>
      <point x="130" y="577" type="curve" smooth="yes"/>
      <point x="121" y="577"/>
      <point x="110" y="582"/>
    </contour>
  </outline>
</glyph>
<glyph name="W" format="1">
  <advance width="835"/>
  <unicode hex="0057"/>
  <outline>
    <contour>
      <point x="358" y="593" type="curve" smooth="yes"/>
      <point x="358" y="601"/>
      <point x="377" y="606"/>
      <point x="393" y="604" type="curve"/>
      <point x="420" y="598"/>
      <point x="491" y="597"/>
      <point x="530" y="604" type="curve" smooth="yes"/>
      <point x="550" y="607"/>
      <point x="568" y="604"/>
      <point x="567" y="593" type="curve" smooth="yes"/>
      <point x="566" y="584"/>
      <point x="560" y="574"/>
      <point x="545" y="573" type="curve" smooth="yes"/>
      <point x="487" y="569"/>
      <point x="483" y="556"/>
      <point x="495" y="482" type="curve" smooth="yes"/>
      <point x="507" y="407"/>
      <point x="528" y="283"/>
      <point x="539" y="118" type="curve"/>
      <point x="540" y="81"/>
      <point x="545" y="72"/>
      <point x="572" y="126" type="curve" smooth="yes"/>
      <point x="607" y="195"/>
      <point x="662" y="258"/>
      <point x="709" y="310" type="curve" smooth="yes"/>
      <point x="798" y="409"/>
      <point x="846" y="463"/>
      <point x="846" y="540" type="curve" smooth="yes"/>
      <point x="846" y="565"/>
      <point x="826" y="572"/>
      <point x="801" y="572" type="curve" smooth="yes"/>
      <point x="781" y="572"/>
      <point x="754" y="558"/>
      <point x="745" y="549" type="curve" smooth="yes"/>
      <point x="727" y="533"/>
      <point x="710" y="530"/>
      <point x="701" y="544" type="curve" smooth="yes"/>
      <point x="694" y="556"/>
      <point x="710" y="572"/>
      <point x="728" y="585" type="curve" smooth="yes"/>
      <point x="758" y="608"/>
      <point x="793" y="614"/>
      <point x="822" y="613" type="curve" smooth="yes"/>
      <point x="861" y="612"/>
      <point x="891" y="588"/>
      <point x="888" y="538" type="curve" smooth="yes"/>
      <point x="885" y="469"/>
      <point x="822" y="380"/>
      <point x="735" y="290" type="curve"/>
      <point x="689" y="239"/>
      <point x="581" y="99"/>
      <point x="566" y="31" type="curve" smooth="yes"/>
      <point x="563" y="13"/>
      <point x="558" y="0"/>
      <point x="540" y="-4" type="curve" smooth="yes"/>
      <point x="508" y="-12"/>
      <point x="508" y="6"/>
      <point x="505" y="64" type="curve" smooth="yes"/>
      <point x="502" y="130"/>
      <point x="497" y="195"/>
      <point x="492" y="249" type="curve" smooth="yes"/>
      <point x="491" y="256"/>
      <point x="484" y="258"/>
      <point x="477" y="251" type="curve" smooth="yes"/>
      <point x="416" y="178"/>
      <point x="327" y="67"/>
      <point x="320" y="31" type="curve" smooth="yes"/>
      <point x="316" y="13"/>
      <point x="311" y="0"/>
      <point x="293" y="-4" type="curve" smooth="yes"/>
      <point x="261" y="-12"/>
      <point x="261" y="6"/>
      <point x="258" y="64" type="curve" smooth="yes"/>
      <point x="251" y="245"/>
      <point x="232" y="365"/>
      <point x="210" y="483" type="curve" smooth="yes"/>
      <point x="193" y="573"/>
      <point x="187" y="572"/>
      <point x="130" y="577" type="curve" smooth="yes"/>
      <point x="121" y="577"/>
      <point x="110" y="582"/>
      <point x="111" y="593" type="curve" smooth="yes"/>
      <point x="111" y="601"/>
      <point x="130" y="606"/>
      <point x="146" y="604" type="curve"/>
      <point x="173" y="598"/>
      <point x="244" y="597"/>
      <point x="284" y="604" type="curve" smooth="yes"/>
      <point x="303" y="607"/>
      <point x="322" y="604"/>
      <point x="321" y="593" type="curve" smooth="yes"/>
      <point x="320" y="584"/>
      <point x="313" y="574"/>
      <point x="298" y="573" type="curve" smooth="yes"/>
      <point x="240" y="569"/>
      <point x="237" y="556"/>
      <point x="248" y="482" type="curve" smooth="yes"/>
      <point x="260" y="407"/>
      <point x="286" y="293"/>
      <point x="296" y="128" type="curve" smooth="yes"/>
      <point x="299" y="84"/>
      <point x="299" y="82"/>
      <point x="330" y="120" type="curve" smooth="yes"/>
      <point x="361" y="158"/>
      <point x="431" y="243"/>
      <point x="470" y="292" type="curve" smooth="yes"/>
      <point x="481" y="306"/>
      <point x="484" y="317"/>
      <point x="482" y="328" type="curve" smooth="yes"/>
      <point x="475" y="385"/>
      <point x="466" y="431"/>
      <point x="457" y="483" type="curve"/>
      <point x="439" y="573"/>
      <point x="434" y="572"/>
      <point x="377" y="577" type="curve" smooth="yes"/>
      <point x="368" y="577"/>
      <point x="357" y="582"/>
    </contour>
  </outline>
</glyph>
<glyph name="X" format="1">
  <advance width="738"/>
  <unicode hex="0058"/>
  <outline>
    <contour>
      <point x="26" y="35" type="curve" smooth="yes"/>
      <point x="60" y="38"/>
      <point x="106" y="61"/>
      <point x="149" y="109" type="curve" smooth="yes"/>
      <point x="187" y="152"/>
      <point x="262" y="229"/>
      <point x="318" y="301" type="curve" smooth="yes"/>
      <point x="332" y="318"/>
      <point x="333" y="331"/>
      <point x="330" y="349" type="curve" smooth="yes"/>
      <point x="322" y="395"/>
      <point x="298" y="490"/>
      <point x="286" y="529" type="curve" smooth="yes"/>
      <point x="274" y="571"/>
      <point x="268" y="572"/>
      <point x="173" y="570" type="curve" smooth="yes"/>
      <point x="126" y="569"/>
      <point x="114" y="572"/>
      <point x="114" y="587" type="curve" smooth="yes"/>
      <point x="114" y="597"/>
      <point x="121" y="601"/>
      <point x="175" y="604" type="curve"/>
      <point x="215" y="605"/>
      <point x="251" y="607"/>
      <point x="275" y="604" type="curve"/>
      <point x="322" y="602"/>
      <point x="321" y="577"/>
      <point x="322" y="568" type="curve" smooth="yes"/>
      <point x="337" y="496"/>
      <point x="343" y="448"/>
      <point x="365" y="373" type="curve" smooth="yes"/>
      <point x="370" y="357"/>
      <point x="374" y="346"/>
      <point x="398" y="373" type="curve"/>
      <point x="433" y="408"/>
      <point x="510" y="502"/>
      <point x="537" y="534" type="curve" smooth="yes"/>
      <point x="577" y="580"/>
      <point x="595" y="607"/>
      <point x="636" y="604" type="curve" smooth="yes"/>
      <point x="662" y="602"/>
      <point x="684" y="602"/>
      <point x="707" y="604" type="curve"/>
      <point x="731" y="605"/>
      <point x="737" y="598"/>
      <point x="737" y="590" type="curve"/>
      <point x="739" y="579"/>
      <point x="731" y="564"/>
      <point x="708" y="565" type="curve" smooth="yes"/>
      <point x="654" y="567"/>
      <point x="611" y="558"/>
      <point x="565" y="509" type="curve"/>
      <point x="525" y="468"/>
      <point x="430" y="364"/>
      <point x="404" y="328" type="curve" smooth="yes"/>
      <point x="389" y="308"/>
      <point x="386" y="309"/>
      <point x="391" y="285" type="curve"/>
      <point x="416" y="191"/>
      <point x="444" y="135"/>
      <point x="489" y="81" type="curve" smooth="yes"/>
      <point x="513" y="52"/>
      <point x="540" y="36"/>
      <point x="584" y="38" type="curve" smooth="yes"/>
      <point x="605" y="39"/>
      <point x="655" y="53"/>
      <point x="689" y="71" type="curve" smooth="yes"/>
      <point x="699" y="77"/>
      <point x="709" y="72"/>
      <point x="712" y="63" type="curve" smooth="yes"/>
      <point x="716" y="53"/>
      <point x="714" y="43"/>
      <point x="689" y="34" type="curve"/>
      <point x="652" y="18"/>
      <point x="609" y="-4"/>
      <point x="546" y="-4" type="curve" smooth="yes"/>
      <point x="514" y="-4"/>
      <point x="490" y="13"/>
      <point x="460" y="49" type="curve" smooth="yes"/>
      <point x="410" y="108"/>
      <point x="380" y="178"/>
      <point x="359" y="252" type="curve" smooth="yes"/>
      <point x="355" y="265"/>
      <point x="348" y="274"/>
      <point x="332" y="257" type="curve" smooth="yes"/>
      <point x="283" y="203"/>
      <point x="240" y="157"/>
      <point x="195" y="104" type="curve" smooth="yes"/>
      <point x="142" y="43"/>
      <point x="152" y="40"/>
      <point x="189" y="31" type="curve" smooth="yes"/>
      <point x="196" y="29"/>
      <point x="205" y="16"/>
      <point x="199" y="6" type="curve"/>
      <point x="192" y="-3"/>
      <point x="163" y="-2"/>
      <point x="141" y="-1" type="curve" smooth="yes"/>
      <point x="74" y="1"/>
      <point x="40" y="3"/>
      <point x="-8" y="-4" type="curve" smooth="yes"/>
      <point x="-18" y="-6"/>
      <point x="-36" y="-1"/>
      <point x="-33" y="9" type="curve" smooth="yes"/>
      <point x="-29" y="19"/>
      <point x="-11" y="31"/>
    </contour>
  </outline>
</glyph>
<glyph name="Y" format="1">
  <advance width="582"/>
  <unicode hex="0059"/>
  <outline>
    <contour>
      <point x="203" y="29" type="curve" smooth="yes"/>
      <point x="274" y="34"/>
      <point x="274" y="56"/>
      <point x="288" y="107" type="curve" smooth="yes"/>
      <point x="300" y="151"/>
      <point x="308" y="180"/>
      <point x="322" y="247" type="curve"/>
      <point x="331" y="285"/>
      <point x="317" y="310"/>
      <point x="308" y="337" type="curve" smooth="yes"/>
      <point x="289" y="391"/>
      <point x="249" y="505"/>
      <point x="222" y="550" type="curve" smooth="yes"/>
      <point x="206" y="577"/>
      <point x="206" y="571"/>
      <point x="127" y="571" type="curve" smooth="yes"/>
      <point x="104" y="571"/>
      <point x="97" y="577"/>
      <point x="98" y="587" type="curve"/>
      <point x="101" y="601"/>
      <point x="121" y="601"/>
      <point x="132" y="602" type="curve" smooth="yes"/>
      <point x="152" y="604"/>
      <point x="179" y="604"/>
      <point x="206" y="604" type="curve"/>
      <point x="247" y="602"/>
      <point x="252" y="593"/>
      <point x="263" y="562" type="curve" smooth="yes"/>
      <point x="295" y="477"/>
      <point x="326" y="387"/>
      <point x="350" y="327" type="curve" smooth="yes"/>
      <point x="358" y="308"/>
      <point x="366" y="309"/>
      <point x="386" y="332" type="curve" smooth="yes"/>
      <point x="414" y="365"/>
      <point x="449" y="397"/>
      <point x="481" y="418" type="curve" smooth="yes"/>
      <point x="550" y="463"/>
      <point x="586" y="492"/>
      <point x="586" y="541" type="curve" smooth="yes"/>
      <point x="586" y="588"/>
      <point x="521" y="582"/>
      <point x="495" y="562" type="curve" smooth="yes"/>
      <point x="484" y="554"/>
      <point x="459" y="543"/>
      <point x="450" y="555" type="curve"/>
      <point x="444" y="566"/>
      <point x="455" y="577"/>
      <point x="470" y="588" type="curve"/>
      <point x="497" y="605"/>
      <point x="532" y="616"/>
      <point x="554" y="616" type="curve" smooth="yes"/>
      <point x="605" y="616"/>
      <point x="624" y="583"/>
      <point x="624" y="550" type="curve" smooth="yes"/>
      <point x="624" y="477"/>
      <point x="569" y="439"/>
      <point x="510" y="400" type="curve" smooth="yes"/>
      <point x="436" y="351"/>
      <point x="375" y="287"/>
      <point x="360" y="227" type="curve" smooth="yes"/>
      <point x="349" y="184"/>
      <point x="343" y="168"/>
      <point x="331" y="119" type="curve" smooth="yes"/>
      <point x="313" y="45"/>
      <point x="311" y="44"/>
      <point x="391" y="30" type="curve" smooth="yes"/>
      <point x="411" y="27"/>
      <point x="414" y="16"/>
      <point x="413" y="11" type="curve" smooth="yes"/>
      <point x="412" y="-3"/>
      <point x="376" y="-2"/>
      <point x="364" y="0" type="curve" smooth="yes"/>
      <point x="305" y="7"/>
      <point x="251" y="4"/>
      <point x="189" y="-4" type="curve"/>
      <point x="157" y="-7"/>
      <point x="153" y="-4"/>
      <point x="156" y="8" type="curve" smooth="yes"/>
      <point x="159" y="20"/>
      <point x="167" y="26"/>
    </contour>
  </outline>
</glyph>
<glyph name="bracketleft" format="1">
  <advance width="247"/>
  <unicode hex="005B"/>
  <outline>
    <contour>
      <point x="274" y="612" type="curve" smooth="yes"/>
      <point x="290" y="612"/>
      <point x="298" y="605"/>
      <point x="295" y="597" type="curve"/>
      <point x="293" y="586"/>
      <point x="280" y="580"/>
      <point x="270" y="579" type="curve" smooth="yes"/>
      <point x="259" y="578"/>
      <point x="211" y="578"/>
      <point x="195" y="577" type="curve"/>
      <point x="178" y="577"/>
      <point x="178" y="571"/>
      <point x="172" y="551" type="curve" smooth="yes"/>
      <point x="156" y="497"/>
      <point x="53" y="88"/>
      <point x="35" y="7" type="curve" smooth="yes"/>
      <point x="31" y="-7"/>
      <point x="31" y="-10"/>
      <point x="45" y="-12" type="curve" smooth="yes"/>
      <point x="51" y="-13"/>
      <point x="115" y="-16"/>
      <point x="127" y="-16" type="curve" smooth="yes"/>
      <point x="138" y="-16"/>
      <point x="144" y="-19"/>
      <point x="142" y="-31" type="curve" smooth="yes"/>
      <point x="141" y="-37"/>
      <point x="136" y="-45"/>
      <point x="119" y="-45" type="curve" smooth="yes"/>
      <point x="109" y="-45"/>
      <point x="21" y="-43"/>
      <point x="6" y="-43" type="curve" smooth="yes"/>
      <point x="-10" y="-43"/>
      <point x="-14" y="-39"/>
      <point x="-10" y="-23" type="curve" smooth="yes"/>
      <point x="40" y="169"/>
      <point x="79" y="327"/>
      <point x="143" y="587" type="curve" smooth="yes"/>
      <point x="146" y="603"/>
      <point x="151" y="609"/>
      <point x="172" y="609" type="curve" smooth="yes"/>
      <point x="182" y="609"/>
      <point x="266" y="612"/>
    </contour>
  </outline>
</glyph>
<glyph name="backslash" format="1">
  <advance width="383"/>
  <unicode hex="005C"/>
  <outline>
    <contour>
      <point x="124" y="593" type="curve" smooth="yes"/>
      <point x="136" y="594"/>
      <point x="146" y="590"/>
      <point x="157" y="554" type="curve" smooth="yes"/>
      <point x="188" y="460"/>
      <point x="274" y="146"/>
      <point x="291" y="95" type="curve" smooth="yes"/>
      <point x="303" y="58"/>
      <point x="316" y="52"/>
      <point x="315" y="25" type="curve"/>
      <point x="312" y="6"/>
      <point x="308" y="-6"/>
      <point x="298" y="-15" type="curve"/>
      <point x="290" y="-24"/>
      <point x="284" y="-21"/>
      <point x="278" y="-10" type="curve"/>
      <point x="270" y="8"/>
      <point x="262" y="40"/>
      <point x="258" y="60" type="curve" smooth="yes"/>
      <point x="238" y="143"/>
      <point x="152" y="456"/>
      <point x="127" y="531" type="curve" smooth="yes"/>
      <point x="112" y="575"/>
      <point x="102" y="590"/>
    </contour>
  </outline>
</glyph>
<glyph name="bracketright" format="1">
  <advance width="247"/>
  <unicode hex="005D"/>
  <outline>
    <contour>
      <point x="8" y="-46" type="curve" smooth="yes"/>
      <point x="-7" y="-46"/>
      <point x="-15" y="-40"/>
      <point x="-13" y="-31" type="curve" smooth="yes"/>
      <point x="-10" y="-20"/>
      <point x="3" y="-14"/>
      <point x="13" y="-13" type="curve"/>
      <point x="24" y="-13"/>
      <point x="72" y="-13"/>
      <point x="88" y="-12" type="curve" smooth="yes"/>
      <point x="104" y="-11"/>
      <point x="104" y="-5"/>
      <point x="111" y="14" type="curve"/>
      <point x="127" y="69"/>
      <point x="230" y="478"/>
      <point x="248" y="559" type="curve"/>
      <point x="252" y="572"/>
      <point x="252" y="576"/>
      <point x="238" y="577" type="curve" smooth="yes"/>
      <point x="232" y="578"/>
      <point x="168" y="582"/>
      <point x="156" y="582" type="curve" smooth="yes"/>
      <point x="145" y="582"/>
      <point x="139" y="585"/>
      <point x="141" y="597" type="curve" smooth="yes"/>
      <point x="142" y="603"/>
      <point x="146" y="611"/>
      <point x="164" y="611" type="curve" smooth="yes"/>
      <point x="174" y="611"/>
      <point x="262" y="609"/>
      <point x="277" y="609" type="curve" smooth="yes"/>
      <point x="293" y="609"/>
      <point x="297" y="604"/>
      <point x="293" y="588" type="curve" smooth="yes"/>
      <point x="243" y="396"/>
      <point x="204" y="239"/>
      <point x="140" y="-21" type="curve" smooth="yes"/>
      <point x="137" y="-37"/>
      <point x="132" y="-43"/>
      <point x="111" y="-43" type="curve" smooth="yes"/>
      <point x="101" y="-43"/>
      <point x="17" y="-46"/>
    </contour>
  </outline>
</glyph>
<glyph name="asciicircum" format="1">
  <advance width="477"/>
  <unicode hex="005E"/>
  <outline>
    <contour>
      <point x="272" y="547" type="curve"/>
      <point x="259" y="535"/>
      <point x="142" y="387"/>
      <point x="122" y="360" type="curve" smooth="yes"/>
      <point x="111" y="346"/>
      <point x="107" y="342"/>
      <point x="88" y="341" type="curve" smooth="yes"/>
      <point x="77" y="340"/>
      <point x="71" y="344"/>
      <point x="95" y="375" type="curve"/>
      <point x="112" y="395"/>
      <point x="219" y="530"/>
      <point x="258" y="583" type="curve" smooth="yes"/>
      <point x="264" y="592"/>
      <point x="273" y="603"/>
      <point x="290" y="605" type="curve"/>
      <point x="306" y="608"/>
      <point x="307" y="601"/>
      <point x="312" y="583" type="curve"/>
      <point x="334" y="521"/>
      <point x="361" y="444"/>
      <point x="370" y="427" type="curve"/>
      <point x="378" y="408"/>
      <point x="396" y="391"/>
      <point x="395" y="370" type="curve" smooth="yes"/>
      <point x="395" y="359"/>
      <point x="391" y="350"/>
      <point x="382" y="342" type="curve"/>
      <point x="376" y="335"/>
      <point x="366" y="336"/>
      <point x="361" y="344" type="curve" smooth="yes"/>
      <point x="352" y="360"/>
      <point x="346" y="380"/>
      <point x="341" y="394" type="curve" smooth="yes"/>
      <point x="332" y="418"/>
      <point x="312" y="485"/>
      <point x="290" y="547" type="curve" smooth="yes"/>
      <point x="286" y="556"/>
      <point x="279" y="556"/>
    </contour>
  </outline>
</glyph>
<glyph name="underscore" format="1">
  <advance width="439"/>
  <unicode hex="005F"/>
  <outline>
    <contour>
      <point x="-8" y="-65" type="curve" smooth="yes"/>
      <point x="-29" y="-65"/>
      <point x="-37" y="-60"/>
      <point x="-30" y="-47" type="curve"/>
      <point x="-21" y="-33"/>
      <point x="-8" y="-30"/>
      <point x="13" y="-30" type="curve" smooth="yes"/>
      <point x="98" y="-29"/>
      <point x="173" y="-31"/>
      <point x="236" y="-29" type="curve"/>
      <point x="268" y="-29"/>
      <point x="295" y="-29"/>
      <point x="320" y="-22" type="curve" smooth="yes"/>
      <point x="346" y="-14"/>
      <point x="375" y="-7"/>
      <point x="373" y="-24" type="curve"/>
      <point x="373" y="-33"/>
      <point x="359" y="-47"/>
      <point x="343" y="-56" type="curve"/>
      <point x="330" y="-62"/>
      <point x="317" y="-62"/>
      <point x="305" y="-62" type="curve" smooth="yes"/>
      <point x="258" y="-63"/>
      <point x="38" y="-65"/>
    </contour>
  </outline>
</glyph>
<glyph name="grave" format="1">
  <advance width="477"/>
  <unicode hex="0060"/>
  <outline>
    <contour>
      <point x="256" y="505" type="curve" smooth="yes"/>
      <point x="231" y="546"/>
      <point x="220" y="577"/>
      <point x="210" y="610" type="curve" smooth="yes"/>
      <point x="205" y="627"/>
      <point x="205" y="636"/>
      <point x="221" y="639" type="curve" smooth="yes"/>
      <point x="231" y="641"/>
      <point x="238" y="639"/>
      <point x="242" y="628" type="curve" smooth="yes"/>
      <point x="254" y="586"/>
      <point x="262" y="555"/>
      <point x="281" y="519" type="curve" smooth="yes"/>
      <point x="284" y="515"/>
      <point x="281" y="504"/>
      <point x="277" y="502" type="curve" smooth="yes"/>
      <point x="270" y="498"/>
      <point x="260" y="498"/>
    </contour>
  </outline>
</glyph>
<glyph name="b" format="1">
  <advance width="402"/>
  <unicode hex="0062"/>
  <outline>
    <contour>
      <point x="181" y="568" type="curve" smooth="yes"/>
      <point x="198" y="636"/>
      <point x="194" y="656"/>
      <point x="166" y="656" type="curve" smooth="yes"/>
      <point x="152" y="656"/>
      <point x="110" y="646"/>
      <point x="96" y="643" type="curve" smooth="yes"/>
      <point x="84" y="641"/>
      <point x="74" y="641"/>
      <point x="73" y="655" type="curve" smooth="yes"/>
      <point x="72" y="668"/>
      <point x="79" y="673"/>
      <point x="104" y="677" type="curve" smooth="yes"/>
      <point x="145" y="682"/>
      <point x="160" y="691"/>
      <point x="186" y="691" type="curve" smooth="yes"/>
      <point x="219" y="691"/>
      <point x="231" y="678"/>
      <point x="231" y="647" type="curve" smooth="yes"/>
      <point x="231" y="625"/>
      <point x="228" y="609"/>
      <point x="217" y="567" type="curve" smooth="yes"/>
      <point x="187" y="455"/>
      <point x="177" y="434"/>
      <point x="135" y="305" type="curve" smooth="yes"/>
      <point x="129" y="287"/>
      <point x="127" y="268"/>
      <point x="149" y="296" type="curve" smooth="yes"/>
      <point x="199" y="361"/>
      <point x="272" y="434"/>
      <point x="337" y="434" type="curve" smooth="yes"/>
      <point x="367" y="434"/>
      <point x="377" y="409"/>
      <point x="377" y="367" type="curve" smooth="yes"/>
      <point x="377" y="256"/>
      <point x="311" y="134"/>
      <point x="241" y="61" type="curve"/>
      <point x="188" y="4"/>
      <point x="152" y="-9"/>
      <point x="123" y="-9" type="curve" smooth="yes"/>
      <point x="71" y="-9"/>
      <point x="51" y="35"/>
      <point x="51" y="86" type="curve"/>
      <point x="49" y="118"/>
      <point x="60" y="170"/>
      <point x="69" y="199" type="curve" smooth="yes"/>
      <point x="115" y="351"/>
      <point x="149" y="440"/>
    </contour>
    <contour>
      <point x="88" y="86" type="curve" smooth="yes"/>
      <point x="88" y="45"/>
      <point x="109" y="24"/>
      <point x="135" y="24" type="curve" smooth="yes"/>
      <point x="155" y="24"/>
      <point x="189" y="52"/>
      <point x="215" y="80" type="curve" smooth="yes"/>
      <point x="287" y="157"/>
      <point x="338" y="264"/>
      <point x="339" y="357" type="curve" smooth="yes"/>
      <point x="339" y="374"/>
      <point x="332" y="391"/>
      <point x="319" y="391" type="curve" smooth="yes"/>
      <point x="263" y="391"/>
      <point x="178" y="289"/>
      <point x="146" y="245" type="curve" smooth="yes"/>
      <point x="105" y="188"/>
      <point x="88" y="139"/>
    </contour>
  </outline>
</glyph>
<glyph name="d" format="1">
  <advance width="439"/>
  <unicode hex="0064"/>
  <outline>
    <contour>
      <point x="277" y="-8" type="curve" smooth="yes"/>
      <point x="233" y="-8"/>
      <point x="231" y="58"/>
      <point x="248" y="116" type="curve" smooth="yes"/>
      <point x="256" y="142"/>
      <point x="247" y="145"/>
      <point x="231" y="124" type="curve"/>
      <point x="215" y="101"/>
      <point x="142" y="24"/>
      <point x="118" y="6" type="curve" smooth="yes"/>
      <point x="75" y="-27"/>
      <point x="42" y="-4"/>
      <point x="39" y="69" type="curve" smooth="yes"/>
      <point x="33" y="206"/>
      <point x="135" y="378"/>
      <point x="222" y="419" type="curve"/>
      <point x="248" y="430"/>
      <point x="282" y="419"/>
      <point x="304" y="405" type="curve" smooth="yes"/>
      <point x="327" y="391"/>
      <point x="327" y="396"/>
      <point x="338" y="422" type="curve" smooth="yes"/>
      <point x="361" y="475"/>
      <point x="402" y="584"/>
      <point x="409" y="619" type="curve"/>
      <point x="418" y="653"/>
      <point x="404" y="652"/>
      <point x="377" y="652" type="curve" smooth="yes"/>
      <point x="356" y="652"/>
      <point x="299" y="635"/>
      <point x="285" y="630" type="curve"/>
      <point x="276" y="628"/>
      <point x="271" y="638"/>
      <point x="271" y="646" type="curve"/>
      <point x="269" y="656"/>
      <point x="278" y="660"/>
      <point x="292" y="664" type="curve" smooth="yes"/>
      <point x="328" y="674"/>
      <point x="386" y="689"/>
      <point x="421" y="689" type="curve" smooth="yes"/>
      <point x="462" y="690"/>
      <point x="466" y="668"/>
      <point x="456" y="640" type="curve" smooth="yes"/>
      <point x="386" y="454"/>
      <point x="343" y="322"/>
      <point x="283" y="127" type="curve" smooth="yes"/>
      <point x="263" y="59"/>
      <point x="274" y="33"/>
      <point x="285" y="33" type="curve" smooth="yes"/>
      <point x="292" y="33"/>
      <point x="304" y="40"/>
      <point x="315" y="51" type="curve"/>
      <point x="344" y="84"/>
      <point x="369" y="111"/>
      <point x="391" y="138" type="curve" smooth="yes"/>
      <point x="402" y="153"/>
      <point x="409" y="154"/>
      <point x="418" y="146" type="curve"/>
      <point x="428" y="139"/>
      <point x="428" y="132"/>
      <point x="418" y="121" type="curve" smooth="yes"/>
      <point x="381" y="77"/>
      <point x="369" y="61"/>
      <point x="326" y="19" type="curve"/>
      <point x="311" y="2"/>
      <point x="295" y="-8"/>
    </contour>
    <contour>
      <point x="119" y="50" type="curve" smooth="yes"/>
      <point x="158" y="86"/>
      <point x="229" y="157"/>
      <point x="265" y="220" type="curve" smooth="yes"/>
      <point x="285" y="255"/>
      <point x="297" y="292"/>
      <point x="309" y="336" type="curve" smooth="yes"/>
      <point x="314" y="355"/>
      <point x="311" y="362"/>
      <point x="295" y="373" type="curve"/>
      <point x="272" y="387"/>
      <point x="244" y="396"/>
      <point x="217" y="379" type="curve" smooth="yes"/>
      <point x="152" y="339"/>
      <point x="72" y="201"/>
      <point x="77" y="69" type="curve" smooth="yes"/>
      <point x="78" y="35"/>
      <point x="90" y="23"/>
    </contour>
  </outline>
</glyph>
<glyph name="j" format="1">
  <advance width="226"/>
  <unicode hex="006A"/>
  <outline>
    <contour>
      <point x="184" y="265" type="curve"/>
      <point x="144" y="131"/>
      <point x="130" y="80"/>
      <point x="85" y="-35" type="curve" smooth="yes"/>
      <point x="68" y="-81"/>
      <point x="37" y="-144"/>
      <point x="-24" y="-211" type="curve"/>
      <point x="-51" y="-239"/>
      <point x="-88" y="-270"/>
      <point x="-138" y="-270" type="curve" smooth="yes"/>
      <point x="-172" y="-270"/>
      <point x="-195" y="-254"/>
      <point x="-195" y="-209" type="curve" smooth="yes"/>
      <point x="-195" y="-185"/>
      <point x="-172" y="-147"/>
      <point x="-144" y="-125" type="curve"/>
      <point x="-125" y="-108"/>
      <point x="-115" y="-102"/>
      <point x="-103" y="-110" type="curve" smooth="yes"/>
      <point x="-96" y="-114"/>
      <point x="-97" y="-125"/>
      <point x="-117" y="-141" type="curve" smooth="yes"/>
      <point x="-145" y="-164"/>
      <point x="-157" y="-188"/>
      <point x="-157" y="-206" type="curve" smooth="yes"/>
      <point x="-157" y="-224"/>
      <point x="-146" y="-232"/>
      <point x="-127" y="-232" type="curve" smooth="yes"/>
      <point x="-88" y="-232"/>
      <point x="-50" y="-194"/>
      <point x="-23" y="-161" type="curve" smooth="yes"/>
      <point x="3" y="-129"/>
      <point x="34" y="-78"/>
      <point x="55" y="-20" type="curve" smooth="yes"/>
      <point x="92" y="82"/>
      <point x="141" y="237"/>
      <point x="162" y="322" type="curve" smooth="yes"/>
      <point x="168" y="344"/>
      <point x="172" y="371"/>
      <point x="161" y="371" type="curve" smooth="yes"/>
      <point x="142" y="371"/>
      <point x="96" y="320"/>
      <point x="78" y="302" type="curve" smooth="yes"/>
      <point x="69" y="293"/>
      <point x="59" y="285"/>
      <point x="48" y="293" type="curve" smooth="yes"/>
      <point x="41" y="297"/>
      <point x="39" y="302"/>
      <point x="45" y="311" type="curve" smooth="yes"/>
      <point x="56" y="326"/>
      <point x="94" y="364"/>
      <point x="114" y="380" type="curve"/>
      <point x="141" y="406"/>
      <point x="162" y="425"/>
      <point x="184" y="425" type="curve" smooth="yes"/>
      <point x="199" y="425"/>
      <point x="208" y="415"/>
      <point x="208" y="378" type="curve" smooth="yes"/>
      <point x="208" y="357"/>
      <point x="199" y="311"/>
    </contour>
    <contour>
      <point x="293" y="576" type="curve"/>
      <point x="290" y="552"/>
      <point x="265" y="531"/>
      <point x="243" y="531" type="curve" smooth="yes"/>
      <point x="231" y="531"/>
      <point x="228" y="541"/>
      <point x="229" y="555" type="curve" smooth="yes"/>
      <point x="231" y="584"/>
      <point x="247" y="604"/>
      <point x="270" y="604" type="curve" smooth="yes"/>
      <point x="285" y="604"/>
      <point x="293" y="594"/>
    </contour>
  </outline>
</glyph>
<glyph name="k" format="1">
  <advance width="455"/>
  <unicode hex="006B"/>
  <outline>
    <contour>
      <point x="415" y="382" type="curve" smooth="yes"/>
      <point x="415" y="349"/>
      <point x="396" y="311"/>
      <point x="369" y="285" type="curve" smooth="yes"/>
      <point x="357" y="274"/>
      <point x="299" y="221"/>
      <point x="278" y="204" type="curve" smooth="yes"/>
      <point x="257" y="187"/>
      <point x="256" y="184"/>
      <point x="255" y="173" type="curve" smooth="yes"/>
      <point x="253" y="141"/>
      <point x="258" y="98"/>
      <point x="270" y="64" type="curve" smooth="yes"/>
      <point x="276" y="48"/>
      <point x="285" y="42"/>
      <point x="294" y="41" type="curve" smooth="yes"/>
      <point x="301" y="41"/>
      <point x="315" y="53"/>
      <point x="323" y="60" type="curve" smooth="yes"/>
      <point x="339" y="72"/>
      <point x="376" y="112"/>
      <point x="387" y="120" type="curve"/>
      <point x="402" y="133"/>
      <point x="407" y="137"/>
      <point x="415" y="129" type="curve" smooth="yes"/>
      <point x="423" y="120"/>
      <point x="420" y="116"/>
      <point x="406" y="99" type="curve"/>
      <point x="377" y="68"/>
      <point x="352" y="43"/>
      <point x="314" y="10" type="curve" smooth="yes"/>
      <point x="307" y="4"/>
      <point x="295" y="-5"/>
      <point x="279" y="-5" type="curve" smooth="yes"/>
      <point x="270" y="-5"/>
      <point x="258" y="5"/>
      <point x="253" y="14" type="curve" smooth="yes"/>
      <point x="226" y="55"/>
      <point x="218" y="130"/>
      <point x="220" y="180" type="curve" smooth="yes"/>
      <point x="220" y="194"/>
      <point x="225" y="201"/>
      <point x="237" y="211" type="curve" smooth="yes"/>
      <point x="270" y="236"/>
      <point x="322" y="282"/>
      <point x="343" y="303" type="curve" smooth="yes"/>
      <point x="369" y="329"/>
      <point x="378" y="348"/>
      <point x="378" y="375" type="curve" smooth="yes"/>
      <point x="378" y="383"/>
      <point x="370" y="396"/>
      <point x="354" y="396" type="curve" smooth="yes"/>
      <point x="323" y="396"/>
      <point x="261" y="327"/>
      <point x="227" y="287" type="curve" smooth="yes"/>
      <point x="175" y="227"/>
      <point x="140" y="187"/>
      <point x="107" y="124" type="curve" smooth="yes"/>
      <point x="95" y="103"/>
      <point x="81" y="65"/>
      <point x="70" y="37" type="curve" smooth="yes"/>
      <point x="58" y="4"/>
      <point x="59" y="-3"/>
      <point x="41" y="-4" type="curve" smooth="yes"/>
      <point x="23" y="-6"/>
      <point x="21" y="0"/>
      <point x="29" y="24" type="curve" smooth="yes"/>
      <point x="88" y="206"/>
      <point x="157" y="418"/>
      <point x="218" y="619" type="curve"/>
      <point x="230" y="652"/>
      <point x="211" y="652"/>
      <point x="184" y="652" type="curve" smooth="yes"/>
      <point x="163" y="652"/>
      <point x="106" y="635"/>
      <point x="93" y="630" type="curve"/>
      <point x="83" y="628"/>
      <point x="78" y="638"/>
      <point x="78" y="646" type="curve" smooth="yes"/>
      <point x="77" y="656"/>
      <point x="83" y="660"/>
      <point x="98" y="664" type="curve" smooth="yes"/>
      <point x="134" y="674"/>
      <point x="192" y="689"/>
      <point x="226" y="689" type="curve" smooth="yes"/>
      <point x="268" y="690"/>
      <point x="272" y="668"/>
      <point x="263" y="640" type="curve" smooth="yes"/>
      <point x="220" y="510"/>
      <point x="174" y="366"/>
      <point x="137" y="249" type="curve" smooth="yes"/>
      <point x="130" y="227"/>
      <point x="125" y="205"/>
      <point x="152" y="242" type="curve"/>
      <point x="243" y="361"/>
      <point x="308" y="431"/>
      <point x="364" y="431" type="curve" smooth="yes"/>
      <point x="402" y="431"/>
      <point x="415" y="401"/>
    </contour>
  </outline>
</glyph>
<glyph name="l" format="1">
  <advance width="261"/>
  <unicode hex="006C"/>
  <outline>
    <contour>
      <point x="91" y="641" type="curve" smooth="yes"/>
      <point x="91" y="648"/>
      <point x="94" y="653"/>
      <point x="111" y="655" type="curve" smooth="yes"/>
      <point x="125" y="657"/>
      <point x="146" y="663"/>
      <point x="169" y="672" type="curve" smooth="yes"/>
      <point x="184" y="677"/>
      <point x="204" y="687"/>
      <point x="218" y="687" type="curve" smooth="yes"/>
      <point x="235" y="687"/>
      <point x="242" y="672"/>
      <point x="242" y="653" type="curve" smooth="yes"/>
      <point x="242" y="631"/>
      <point x="239" y="608"/>
      <point x="218" y="551" type="curve" smooth="yes"/>
      <point x="164" y="408"/>
      <point x="136" y="305"/>
      <point x="104" y="189" type="curve" smooth="yes"/>
      <point x="90" y="136"/>
      <point x="69" y="35"/>
      <point x="95" y="35" type="curve" smooth="yes"/>
      <point x="104" y="35"/>
      <point x="125" y="53"/>
      <point x="141" y="69" type="curve" smooth="yes"/>
      <point x="169" y="98"/>
      <point x="188" y="122"/>
      <point x="199" y="136" type="curve"/>
      <point x="215" y="153"/>
      <point x="223" y="159"/>
      <point x="230" y="157" type="curve"/>
      <point x="239" y="151"/>
      <point x="242" y="142"/>
      <point x="226" y="121" type="curve"/>
      <point x="202" y="93"/>
      <point x="194" y="80"/>
      <point x="161" y="47" type="curve" smooth="yes"/>
      <point x="129" y="15"/>
      <point x="102" y="-8"/>
      <point x="82" y="-8" type="curve" smooth="yes"/>
      <point x="62" y="-8"/>
      <point x="49" y="6"/>
      <point x="49" y="41" type="curve" smooth="yes"/>
      <point x="49" y="105"/>
      <point x="64" y="152"/>
      <point x="72" y="189" type="curve" smooth="yes"/>
      <point x="97" y="294"/>
      <point x="148" y="446"/>
      <point x="184" y="553" type="curve" smooth="yes"/>
      <point x="189" y="566"/>
      <point x="198" y="592"/>
      <point x="205" y="614" type="curve" smooth="yes"/>
      <point x="210" y="632"/>
      <point x="205" y="646"/>
      <point x="196" y="646" type="curve" smooth="yes"/>
      <point x="189" y="646"/>
      <point x="175" y="641"/>
      <point x="161" y="637" type="curve" smooth="yes"/>
      <point x="140" y="630"/>
      <point x="130" y="628"/>
      <point x="117" y="626" type="curve" smooth="yes"/>
      <point x="98" y="624"/>
      <point x="91" y="633"/>
    </contour>
  </outline>
</glyph>
<glyph name="m" format="1">
  <advance width="687"/>
  <unicode hex="006D"/>
  <outline>
    <contour>
      <point x="37" y="326" type="curve"/>
      <point x="71" y="358"/>
      <point x="115" y="396"/>
      <point x="139" y="414" type="curve" smooth="yes"/>
      <point x="158" y="428"/>
      <point x="169" y="434"/>
      <point x="179" y="434" type="curve" smooth="yes"/>
      <point x="206" y="434"/>
      <point x="208" y="405"/>
      <point x="206" y="375" type="curve" smooth="yes"/>
      <point x="201" y="315"/>
      <point x="182" y="280"/>
      <point x="168" y="242" type="curve"/>
      <point x="161" y="220"/>
      <point x="155" y="198"/>
      <point x="182" y="234" type="curve"/>
      <point x="279" y="354"/>
      <point x="348" y="433"/>
      <point x="404" y="433" type="curve" smooth="yes"/>
      <point x="419" y="433"/>
      <point x="427" y="422"/>
      <point x="424" y="398" type="curve"/>
      <point x="420" y="345"/>
      <point x="386" y="275"/>
      <point x="368" y="223" type="curve" smooth="yes"/>
      <point x="364" y="211"/>
      <point x="368" y="209"/>
      <point x="387" y="234" type="curve" smooth="yes"/>
      <point x="484" y="354"/>
      <point x="554" y="433"/>
      <point x="609" y="433" type="curve" smooth="yes"/>
      <point x="625" y="433"/>
      <point x="632" y="422"/>
      <point x="630" y="398" type="curve" smooth="yes"/>
      <point x="627" y="366"/>
      <point x="609" y="327"/>
      <point x="597" y="287" type="curve"/>
      <point x="578" y="234"/>
      <point x="549" y="157"/>
      <point x="540" y="130" type="curve" smooth="yes"/>
      <point x="532" y="107"/>
      <point x="521" y="69"/>
      <point x="521" y="45" type="curve" smooth="yes"/>
      <point x="521" y="36"/>
      <point x="525" y="27"/>
      <point x="530" y="27" type="curve" smooth="yes"/>
      <point x="542" y="27"/>
      <point x="550" y="34"/>
      <point x="562" y="46" type="curve" smooth="yes"/>
      <point x="590" y="72"/>
      <point x="621" y="104"/>
      <point x="640" y="127" type="curve" smooth="yes"/>
      <point x="648" y="137"/>
      <point x="655" y="145"/>
      <point x="662" y="141" type="curve" smooth="yes"/>
      <point x="670" y="136"/>
      <point x="677" y="132"/>
      <point x="665" y="117" type="curve" smooth="yes"/>
      <point x="630" y="73"/>
      <point x="615" y="56"/>
      <point x="577" y="18" type="curve" smooth="yes"/>
      <point x="563" y="4"/>
      <point x="531" y="-14"/>
      <point x="518" y="-14" type="curve" smooth="yes"/>
      <point x="505" y="-14"/>
      <point x="482" y="-9"/>
      <point x="487" y="52" type="curve" smooth="yes"/>
      <point x="488" y="65"/>
      <point x="493" y="95"/>
      <point x="508" y="137" type="curve"/>
      <point x="566" y="288" type="line" smooth="yes"/>
      <point x="573" y="309"/>
      <point x="608" y="384"/>
      <point x="581" y="384" type="curve" smooth="yes"/>
      <point x="559" y="384"/>
      <point x="487" y="309"/>
      <point x="466" y="286" type="curve" smooth="yes"/>
      <point x="412" y="226"/>
      <point x="375" y="187"/>
      <point x="340" y="124" type="curve"/>
      <point x="327" y="103"/>
      <point x="311" y="65"/>
      <point x="300" y="37" type="curve" smooth="yes"/>
      <point x="286" y="4"/>
      <point x="287" y="-3"/>
      <point x="269" y="-4" type="curve" smooth="yes"/>
      <point x="251" y="-6"/>
      <point x="249" y="0"/>
      <point x="258" y="24" type="curve" smooth="yes"/>
      <point x="288" y="104"/>
      <point x="307" y="144"/>
      <point x="333" y="217" type="curve" smooth="yes"/>
      <point x="345" y="251"/>
      <point x="355" y="278"/>
      <point x="366" y="304" type="curve" smooth="yes"/>
      <point x="379" y="333"/>
      <point x="397" y="384"/>
      <point x="375" y="384" type="curve" smooth="yes"/>
      <point x="354" y="384"/>
      <point x="282" y="311"/>
      <point x="261" y="286" type="curve" smooth="yes"/>
      <point x="209" y="226"/>
      <point x="170" y="187"/>
      <point x="135" y="124" type="curve"/>
      <point x="122" y="103"/>
      <point x="106" y="65"/>
      <point x="94" y="37" type="curve" smooth="yes"/>
      <point x="81" y="4"/>
      <point x="82" y="-3"/>
      <point x="64" y="-4" type="curve" smooth="yes"/>
      <point x="45" y="-6"/>
      <point x="44" y="0"/>
      <point x="53" y="24" type="curve" smooth="yes"/>
      <point x="85" y="111"/>
      <point x="105" y="152"/>
      <point x="136" y="238" type="curve" smooth="yes"/>
      <point x="144" y="262"/>
      <point x="169" y="336"/>
      <point x="169" y="367" type="curve" smooth="yes"/>
      <point x="169" y="386"/>
      <point x="161" y="390"/>
      <point x="148" y="383" type="curve" smooth="yes"/>
      <point x="128" y="372"/>
      <point x="72" y="322"/>
      <point x="56" y="309" type="curve"/>
      <point x="49" y="302"/>
      <point x="37" y="300"/>
      <point x="33" y="303" type="curve" smooth="yes"/>
      <point x="24" y="310"/>
      <point x="29" y="316"/>
    </contour>
  </outline>
</glyph>
<glyph name="o" format="1">
  <advance width="381"/>
  <unicode hex="006F"/>
  <outline>
    <contour>
      <point x="129" y="-7" type="curve" smooth="yes"/>
      <point x="67" y="-7"/>
      <point x="51" y="70"/>
      <point x="52" y="129" type="curve" smooth="yes"/>
      <point x="54" y="258"/>
      <point x="162" y="428"/>
      <point x="275" y="428" type="curve" smooth="yes"/>
      <point x="339" y="428"/>
      <point x="344" y="346"/>
      <point x="344" y="311" type="curve" smooth="yes"/>
      <point x="343" y="170"/>
      <point x="231" y="-7"/>
    </contour>
    <contour>
      <point x="266" y="392" type="curve" smooth="yes"/>
      <point x="192" y="392"/>
      <point x="89" y="266"/>
      <point x="89" y="129" type="curve" smooth="yes"/>
      <point x="89" y="72"/>
      <point x="104" y="27"/>
      <point x="139" y="27" type="curve" smooth="yes"/>
      <point x="206" y="27"/>
      <point x="306" y="174"/>
      <point x="307" y="310" type="curve" smooth="yes"/>
      <point x="307" y="375"/>
      <point x="290" y="392"/>
    </contour>
  </outline>
</glyph>
<glyph name="p" format="1">
  <advance width="458"/>
  <unicode hex="0070"/>
  <outline>
    <contour>
      <point x="32" y="280" type="curve" smooth="yes"/>
      <point x="25" y="284"/>
      <point x="30" y="296"/>
      <point x="39" y="305" type="curve" smooth="yes"/>
      <point x="74" y="343"/>
      <point x="120" y="386"/>
      <point x="150" y="409" type="curve" smooth="yes"/>
      <point x="175" y="428"/>
      <point x="184" y="432"/>
      <point x="193" y="432" type="curve" smooth="yes"/>
      <point x="237" y="432"/>
      <point x="215" y="366"/>
      <point x="205" y="336" type="curve"/>
      <point x="201" y="319"/>
      <point x="190" y="285"/>
      <point x="187" y="273" type="curve" smooth="yes"/>
      <point x="179" y="249"/>
      <point x="188" y="242"/>
      <point x="205" y="265" type="curve" smooth="yes"/>
      <point x="228" y="295"/>
      <point x="248" y="321"/>
      <point x="270" y="346" type="curve" smooth="yes"/>
      <point x="307" y="388"/>
      <point x="349" y="429"/>
      <point x="391" y="429" type="curve" smooth="yes"/>
      <point x="412" y="429"/>
      <point x="431" y="412"/>
      <point x="427" y="333" type="curve"/>
      <point x="420" y="226"/>
      <point x="311" y="39"/>
      <point x="193" y="-1" type="curve" smooth="yes"/>
      <point x="177" y="-6"/>
      <point x="151" y="-1"/>
      <point x="135" y="-1" type="curve" smooth="yes"/>
      <point x="119" y="-1"/>
      <point x="117" y="-8"/>
      <point x="111" y="-24" type="curve"/>
      <point x="93" y="-93"/>
      <point x="82" y="-131"/>
      <point x="54" y="-184" type="curve" smooth="yes"/>
      <point x="37" y="-215"/>
      <point x="13" y="-258"/>
      <point x="0" y="-274" type="curve"/>
      <point x="-5" y="-282"/>
      <point x="-16" y="-283"/>
      <point x="-19" y="-283" type="curve" smooth="yes"/>
      <point x="-24" y="-283"/>
      <point x="-33" y="-275"/>
      <point x="-25" y="-262" type="curve" smooth="yes"/>
      <point x="-6" y="-229"/>
      <point x="12" y="-199"/>
      <point x="29" y="-154" type="curve"/>
      <point x="45" y="-118"/>
      <point x="64" y="-63"/>
      <point x="73" y="-28" type="curve" smooth="yes"/>
      <point x="107" y="98"/>
      <point x="145" y="229"/>
      <point x="172" y="336" type="curve" smooth="yes"/>
      <point x="179" y="366"/>
      <point x="178" y="379"/>
      <point x="171" y="379" type="curve" smooth="yes"/>
      <point x="166" y="379"/>
      <point x="155" y="374"/>
      <point x="146" y="366" type="curve"/>
      <point x="130" y="356"/>
      <point x="91" y="316"/>
      <point x="61" y="291" type="curve"/>
      <point x="53" y="283"/>
      <point x="44" y="274"/>
    </contour>
    <contour>
      <point x="374" y="387" type="curve" smooth="yes"/>
      <point x="348" y="386"/>
      <point x="314" y="352"/>
      <point x="297" y="333" type="curve" smooth="yes"/>
      <point x="247" y="275"/>
      <point x="177" y="196"/>
      <point x="152" y="120" type="curve" smooth="yes"/>
      <point x="144" y="98"/>
      <point x="136" y="76"/>
      <point x="130" y="51" type="curve"/>
      <point x="129" y="42"/>
      <point x="129" y="37"/>
      <point x="138" y="34" type="curve" smooth="yes"/>
      <point x="146" y="31"/>
      <point x="169" y="31"/>
      <point x="176" y="31" type="curve" smooth="yes"/>
      <point x="270" y="31"/>
      <point x="385" y="242"/>
      <point x="389" y="333" type="curve"/>
      <point x="393" y="365"/>
      <point x="385" y="387"/>
    </contour>
  </outline>
</glyph>
<glyph name="q" format="1">
  <advance width="391"/>
  <unicode hex="0071"/>
  <outline>
    <contour>
      <point x="399" y="462" type="curve" smooth="yes"/>
      <point x="405" y="459"/>
      <point x="413" y="457"/>
      <point x="405" y="439" type="curve" smooth="yes"/>
      <point x="338" y="294"/>
      <point x="265" y="104"/>
      <point x="225" y="-56" type="curve" smooth="yes"/>
      <point x="212" y="-105"/>
      <point x="187" y="-227"/>
      <point x="215" y="-227" type="curve" smooth="yes"/>
      <point x="229" y="-227"/>
      <point x="281" y="-187"/>
      <point x="286" y="-183" type="curve" smooth="yes"/>
      <point x="300" y="-173"/>
      <point x="314" y="-172"/>
      <point x="320" y="-179" type="curve"/>
      <point x="322" y="-183"/>
      <point x="325" y="-190"/>
      <point x="314" y="-199" type="curve" smooth="yes"/>
      <point x="275" y="-229"/>
      <point x="234" y="-269"/>
      <point x="190" y="-269" type="curve" smooth="yes"/>
      <point x="173" y="-269"/>
      <point x="163" y="-245"/>
      <point x="163" y="-224" type="curve" smooth="yes"/>
      <point x="163" y="-159"/>
      <point x="180" y="-97"/>
      <point x="192" y="-52" type="curve" smooth="yes"/>
      <point x="211" y="23"/>
      <point x="224" y="56"/>
      <point x="242" y="116" type="curve" smooth="yes"/>
      <point x="249" y="142"/>
      <point x="242" y="145"/>
      <point x="226" y="124" type="curve" smooth="yes"/>
      <point x="208" y="101"/>
      <point x="139" y="24"/>
      <point x="113" y="6" type="curve"/>
      <point x="69" y="-27"/>
      <point x="37" y="-4"/>
      <point x="37" y="69" type="curve" smooth="yes"/>
      <point x="37" y="206"/>
      <point x="146" y="378"/>
      <point x="235" y="419" type="curve"/>
      <point x="262" y="430"/>
      <point x="298" y="418"/>
      <point x="320" y="404" type="curve" smooth="yes"/>
      <point x="330" y="397"/>
      <point x="337" y="396"/>
      <point x="353" y="412" type="curve"/>
      <point x="362" y="423"/>
      <point x="368" y="433"/>
      <point x="375" y="447" type="curve" smooth="yes"/>
      <point x="383" y="461"/>
      <point x="389" y="467"/>
    </contour>
    <contour>
      <point x="116" y="50" type="curve"/>
      <point x="157" y="86"/>
      <point x="223" y="157"/>
      <point x="263" y="220" type="curve" smooth="yes"/>
      <point x="285" y="255"/>
      <point x="303" y="292"/>
      <point x="317" y="336" type="curve" smooth="yes"/>
      <point x="323" y="355"/>
      <point x="322" y="362"/>
      <point x="306" y="373" type="curve" smooth="yes"/>
      <point x="284" y="387"/>
      <point x="257" y="396"/>
      <point x="228" y="379" type="curve" smooth="yes"/>
      <point x="162" y="339"/>
      <point x="75" y="201"/>
      <point x="75" y="69" type="curve" smooth="yes"/>
      <point x="75" y="35"/>
      <point x="87" y="23"/>
    </contour>
  </outline>
</glyph>
<glyph name="v" format="1">
  <advance width="408"/>
  <unicode hex="0076"/>
  <outline>
    <contour>
      <point x="117" y="-10" type="curve" smooth="yes"/>
      <point x="59" y="-10"/>
      <point x="73" y="93"/>
      <point x="83" y="131" type="curve" smooth="yes"/>
      <point x="94" y="173"/>
      <point x="144" y="305"/>
      <point x="158" y="348" type="curve" smooth="yes"/>
      <point x="163" y="364"/>
      <point x="165" y="377"/>
      <point x="157" y="377" type="curve" smooth="yes"/>
      <point x="152" y="377"/>
      <point x="136" y="363"/>
      <point x="123" y="348" type="curve"/>
      <point x="62" y="285" type="line" smooth="yes"/>
      <point x="56" y="279"/>
      <point x="45" y="274"/>
      <point x="39" y="279" type="curve" smooth="yes"/>
      <point x="33" y="285"/>
      <point x="36" y="296"/>
      <point x="45" y="308" type="curve"/>
      <point x="99" y="366"/>
      <point x="109" y="375"/>
      <point x="141" y="404" type="curve"/>
      <point x="148" y="412"/>
      <point x="163" y="425"/>
      <point x="187" y="425" type="curve" smooth="yes"/>
      <point x="219" y="425"/>
      <point x="196" y="365"/>
      <point x="191" y="351" type="curve" smooth="yes"/>
      <point x="182" y="327"/>
      <point x="130" y="166"/>
      <point x="120" y="129" type="curve" smooth="yes"/>
      <point x="104" y="75"/>
      <point x="109" y="29"/>
      <point x="129" y="29" type="curve" smooth="yes"/>
      <point x="156" y="29"/>
      <point x="199" y="79"/>
      <point x="223" y="109" type="curve" smooth="yes"/>
      <point x="274" y="170"/>
      <point x="327" y="250"/>
      <point x="341" y="307" type="curve"/>
      <point x="356" y="354"/>
      <point x="359" y="387"/>
      <point x="338" y="387" type="curve" smooth="yes"/>
      <point x="317" y="387"/>
      <point x="301" y="364"/>
      <point x="286" y="345" type="curve" smooth="yes"/>
      <point x="270" y="324"/>
      <point x="264" y="326"/>
      <point x="254" y="329" type="curve" smooth="yes"/>
      <point x="247" y="332"/>
      <point x="246" y="342"/>
      <point x="250" y="347" type="curve" smooth="yes"/>
      <point x="267" y="366"/>
      <point x="312" y="426"/>
      <point x="345" y="426" type="curve" smooth="yes"/>
      <point x="397" y="426"/>
      <point x="398" y="375"/>
      <point x="381" y="318" type="curve" smooth="yes"/>
      <point x="352" y="219"/>
      <point x="284" y="131"/>
      <point x="225" y="63" type="curve" smooth="yes"/>
      <point x="207" y="43"/>
      <point x="152" y="-10"/>
    </contour>
  </outline>
</glyph>
<glyph name="x" format="1">
  <advance width="515"/>
  <unicode hex="0078"/>
  <outline>
    <contour>
      <point x="88" y="302" type="curve"/>
      <point x="82" y="307"/>
      <point x="85" y="316"/>
      <point x="93" y="325" type="curve" smooth="yes"/>
      <point x="98" y="331"/>
      <point x="165" y="402"/>
      <point x="189" y="418" type="curve" smooth="yes"/>
      <point x="205" y="428"/>
      <point x="214" y="428"/>
      <point x="226" y="418" type="curve" smooth="yes"/>
      <point x="260" y="391"/>
      <point x="275" y="350"/>
      <point x="279" y="312" type="curve" smooth="yes"/>
      <point x="283" y="281"/>
      <point x="291" y="295"/>
      <point x="303" y="315" type="curve" smooth="yes"/>
      <point x="336" y="370"/>
      <point x="393" y="427"/>
      <point x="458" y="427" type="curve" smooth="yes"/>
      <point x="484" y="427"/>
      <point x="498" y="408"/>
      <point x="500" y="375" type="curve"/>
      <point x="500" y="351"/>
      <point x="481" y="325"/>
      <point x="462" y="306" type="curve" smooth="yes"/>
      <point x="453" y="298"/>
      <point x="442" y="287"/>
      <point x="434" y="294" type="curve" smooth="yes"/>
      <point x="428" y="299"/>
      <point x="427" y="307"/>
      <point x="440" y="322" type="curve"/>
      <point x="451" y="333"/>
      <point x="465" y="347"/>
      <point x="465" y="362" type="curve" smooth="yes"/>
      <point x="465" y="379"/>
      <point x="461" y="386"/>
      <point x="448" y="386" type="curve" smooth="yes"/>
      <point x="368" y="386"/>
      <point x="288" y="243"/>
      <point x="285" y="202" type="curve"/>
      <point x="279" y="147"/>
      <point x="293" y="70"/>
      <point x="319" y="45" type="curve" smooth="yes"/>
      <point x="342" y="23"/>
      <point x="343" y="24"/>
      <point x="368" y="48" type="curve" smooth="yes"/>
      <point x="386" y="64"/>
      <point x="428" y="109"/>
      <point x="445" y="127" type="curve" smooth="yes"/>
      <point x="452" y="135"/>
      <point x="459" y="136"/>
      <point x="467" y="132" type="curve" smooth="yes"/>
      <point x="471" y="130"/>
      <point x="473" y="119"/>
      <point x="467" y="110" type="curve" smooth="yes"/>
      <point x="444" y="79"/>
      <point x="400" y="38"/>
      <point x="370" y="8" type="curve" smooth="yes"/>
      <point x="341" y="-21"/>
      <point x="321" y="-10"/>
      <point x="299" y="12" type="curve" smooth="yes"/>
      <point x="282" y="29"/>
      <point x="265" y="58"/>
      <point x="258" y="103" type="curve" smooth="yes"/>
      <point x="253" y="134"/>
      <point x="248" y="130"/>
      <point x="232" y="104" type="curve" smooth="yes"/>
      <point x="205" y="60"/>
      <point x="142" y="-9"/>
      <point x="68" y="-9" type="curve" smooth="yes"/>
      <point x="38" y="-9"/>
      <point x="25" y="15"/>
      <point x="24" y="45" type="curve" smooth="yes"/>
      <point x="24" y="74"/>
      <point x="50" y="109"/>
      <point x="74" y="130" type="curve" smooth="yes"/>
      <point x="80" y="135"/>
      <point x="88" y="137"/>
      <point x="91" y="135" type="curve" smooth="yes"/>
      <point x="95" y="131"/>
      <point x="99" y="119"/>
      <point x="90" y="109" type="curve" smooth="yes"/>
      <point x="73" y="91"/>
      <point x="59" y="68"/>
      <point x="59" y="50" type="curve" smooth="yes"/>
      <point x="59" y="31"/>
      <point x="66" y="26"/>
      <point x="79" y="26" type="curve" smooth="yes"/>
      <point x="152" y="26"/>
      <point x="242" y="155"/>
      <point x="250" y="224" type="curve"/>
      <point x="258" y="308"/>
      <point x="236" y="359"/>
      <point x="213" y="375" type="curve" smooth="yes"/>
      <point x="200" y="385"/>
      <point x="195" y="386"/>
      <point x="178" y="370" type="curve"/>
      <point x="167" y="358"/>
      <point x="128" y="322"/>
      <point x="120" y="313" type="curve" smooth="yes"/>
      <point x="109" y="301"/>
      <point x="98" y="297"/>
    </contour>
  </outline>
</glyph>
<glyph name="y" format="1">
  <advance width="442"/>
  <unicode hex="0079"/>
  <outline>
    <contour>
      <point x="339" y="132" type="curve" smooth="yes"/>
      <point x="332" y="104"/>
      <point x="331" y="55"/>
      <point x="337" y="33" type="curve" smooth="yes"/>
      <point x="345" y="0"/>
      <point x="355" y="-29"/>
      <point x="355" y="-63" type="curve" smooth="yes"/>
      <point x="355" y="-197"/>
      <point x="216" y="-271"/>
      <point x="100" y="-271" type="curve" smooth="yes"/>
      <point x="-27" y="-271"/>
      <point x="-61" y="-220"/>
      <point x="-61" y="-176" type="curve" smooth="yes"/>
      <point x="-61" y="-128"/>
      <point x="-17" y="-93"/>
      <point x="35" y="-47" type="curve" smooth="yes"/>
      <point x="45" y="-37"/>
      <point x="59" y="-37"/>
      <point x="63" y="-42" type="curve" smooth="yes"/>
      <point x="69" y="-51"/>
      <point x="61" y="-66"/>
      <point x="50" y="-75" type="curve" smooth="yes"/>
      <point x="18" y="-103"/>
      <point x="-17" y="-137"/>
      <point x="-17" y="-171" type="curve" smooth="yes"/>
      <point x="-17" y="-224"/>
      <point x="43" y="-239"/>
      <point x="105" y="-239" type="curve" smooth="yes"/>
      <point x="212" y="-239"/>
      <point x="315" y="-169"/>
      <point x="315" y="-66" type="curve" smooth="yes"/>
      <point x="315" y="-35"/>
      <point x="303" y="-5"/>
      <point x="300" y="22" type="curve" smooth="yes"/>
      <point x="296" y="50"/>
      <point x="295" y="105"/>
      <point x="308" y="136" type="curve" smooth="yes"/>
      <point x="324" y="172"/>
      <point x="313" y="170"/>
      <point x="285" y="134" type="curve" smooth="yes"/>
      <point x="250" y="88"/>
      <point x="226" y="64"/>
      <point x="188" y="24" type="curve" smooth="yes"/>
      <point x="179" y="15"/>
      <point x="150" y="-10"/>
      <point x="125" y="-10" type="curve" smooth="yes"/>
      <point x="59" y="-10"/>
      <point x="81" y="82"/>
      <point x="93" y="126" type="curve" smooth="yes"/>
      <point x="112" y="196"/>
      <point x="141" y="279"/>
      <point x="160" y="341" type="curve" smooth="yes"/>
      <point x="174" y="387"/>
      <point x="157" y="384"/>
      <point x="132" y="364" type="curve" smooth="yes"/>
      <point x="118" y="353"/>
      <point x="76" y="316"/>
      <point x="64" y="306" type="curve" smooth="yes"/>
      <point x="56" y="299"/>
      <point x="42" y="294"/>
      <point x="37" y="301" type="curve" smooth="yes"/>
      <point x="30" y="309"/>
      <point x="35" y="319"/>
      <point x="63" y="343" type="curve" smooth="yes"/>
      <point x="93" y="369"/>
      <point x="154" y="428"/>
      <point x="181" y="428" type="curve" smooth="yes"/>
      <point x="195" y="428"/>
      <point x="205" y="413"/>
      <point x="205" y="390" type="curve" smooth="yes"/>
      <point x="205" y="371"/>
      <point x="197" y="343"/>
      <point x="191" y="325" type="curve" smooth="yes"/>
      <point x="175" y="276"/>
      <point x="143" y="185"/>
      <point x="125" y="114" type="curve" smooth="yes"/>
      <point x="119" y="91"/>
      <point x="104" y="28"/>
      <point x="133" y="28" type="curve" smooth="yes"/>
      <point x="151" y="28"/>
      <point x="196" y="74"/>
      <point x="221" y="104" type="curve" smooth="yes"/>
      <point x="308" y="205"/>
      <point x="342" y="249"/>
      <point x="395" y="397" type="curve" smooth="yes"/>
      <point x="401" y="414"/>
      <point x="410" y="427"/>
      <point x="429" y="427" type="curve" smooth="yes"/>
      <point x="436" y="427"/>
      <point x="439" y="413"/>
      <point x="432" y="399" type="curve"/>
      <point x="407" y="339"/>
      <point x="359" y="204"/>
    </contour>
  </outline>
</glyph>
<glyph name="braceleft" format="1">
  <advance width="256"/>
  <unicode hex="007B"/>
  <outline>
    <contour>
      <point x="269" y="608" type="curve" smooth="yes"/>
      <point x="290" y="608"/>
      <point x="290" y="601"/>
      <point x="290" y="594" type="curve"/>
      <point x="289" y="588"/>
      <point x="282" y="576"/>
      <point x="259" y="575" type="curve" smooth="yes"/>
      <point x="211" y="572"/>
      <point x="161" y="556"/>
      <point x="157" y="511" type="curve" smooth="yes"/>
      <point x="152" y="461"/>
      <point x="218" y="406"/>
      <point x="217" y="363" type="curve" smooth="yes"/>
      <point x="217" y="336"/>
      <point x="208" y="312"/>
      <point x="184" y="299" type="curve" smooth="yes"/>
      <point x="173" y="293"/>
      <point x="167" y="291"/>
      <point x="165" y="283" type="curve" smooth="yes"/>
      <point x="161" y="270"/>
      <point x="189" y="275"/>
      <point x="184" y="237" type="curve" smooth="yes"/>
      <point x="178" y="185"/>
      <point x="54" y="111"/>
      <point x="54" y="42" type="curve" smooth="yes"/>
      <point x="54" y="3"/>
      <point x="77" y="-7"/>
      <point x="116" y="-7" type="curve" smooth="yes"/>
      <point x="137" y="-7"/>
      <point x="150" y="-13"/>
      <point x="147" y="-24" type="curve" smooth="yes"/>
      <point x="145" y="-35"/>
      <point x="135" y="-38"/>
      <point x="107" y="-38" type="curve" smooth="yes"/>
      <point x="49" y="-38"/>
      <point x="17" y="-13"/>
      <point x="17" y="42" type="curve" smooth="yes"/>
      <point x="17" y="120"/>
      <point x="146" y="187"/>
      <point x="146" y="244" type="curve" smooth="yes"/>
      <point x="146" y="264"/>
      <point x="129" y="270"/>
      <point x="93" y="270" type="curve" smooth="yes"/>
      <point x="78" y="270"/>
      <point x="63" y="268"/>
      <point x="52" y="268" type="curve" smooth="yes"/>
      <point x="40" y="268"/>
      <point x="38" y="274"/>
      <point x="41" y="285" type="curve" smooth="yes"/>
      <point x="45" y="296"/>
      <point x="52" y="301"/>
      <point x="63" y="301" type="curve" smooth="yes"/>
      <point x="75" y="301"/>
      <point x="85" y="298"/>
      <point x="104" y="298" type="curve" smooth="yes"/>
      <point x="143" y="298"/>
      <point x="180" y="312"/>
      <point x="180" y="354" type="curve"/>
      <point x="178" y="399"/>
      <point x="113" y="452"/>
      <point x="122" y="515" type="curve" smooth="yes"/>
      <point x="130" y="569"/>
      <point x="198" y="608"/>
    </contour>
  </outline>
</glyph>
<glyph name="bar" format="1">
  <advance width="300"/>
  <unicode hex="007C"/>
  <outline>
    <contour>
      <point x="126" y="-25" type="curve" smooth="yes"/>
      <point x="126" y="20"/>
      <point x="128" y="497"/>
      <point x="129" y="544" type="curve" smooth="yes"/>
      <point x="129" y="556"/>
      <point x="126" y="570"/>
      <point x="133" y="581" type="curve"/>
      <point x="141" y="597"/>
      <point x="156" y="609"/>
      <point x="163" y="609" type="curve" smooth="yes"/>
      <point x="176" y="609"/>
      <point x="175" y="590"/>
      <point x="168" y="572" type="curve" smooth="yes"/>
      <point x="164" y="564"/>
      <point x="163" y="553"/>
      <point x="162" y="545" type="curve" smooth="yes"/>
      <point x="157" y="450"/>
      <point x="158" y="153"/>
      <point x="161" y="-8" type="curve" smooth="yes"/>
      <point x="161" y="-29"/>
      <point x="158" y="-42"/>
      <point x="144" y="-49" type="curve" smooth="yes"/>
      <point x="131" y="-55"/>
      <point x="126" y="-46"/>
    </contour>
  </outline>
</glyph>
<glyph name="braceright" format="1">
  <advance width="256"/>
  <unicode hex="007D"/>
  <outline>
    <contour>
      <point x="35" y="-40" type="curve" smooth="yes"/>
      <point x="13" y="-40"/>
      <point x="13" y="-34"/>
      <point x="13" y="-27" type="curve"/>
      <point x="15" y="-21"/>
      <point x="22" y="-8"/>
      <point x="45" y="-8" type="curve"/>
      <point x="93" y="-5"/>
      <point x="142" y="12"/>
      <point x="147" y="56" type="curve" smooth="yes"/>
      <point x="152" y="106"/>
      <point x="87" y="162"/>
      <point x="88" y="205" type="curve" smooth="yes"/>
      <point x="88" y="232"/>
      <point x="96" y="256"/>
      <point x="120" y="269" type="curve" smooth="yes"/>
      <point x="131" y="275"/>
      <point x="137" y="277"/>
      <point x="139" y="285" type="curve" smooth="yes"/>
      <point x="143" y="298"/>
      <point x="115" y="293"/>
      <point x="120" y="332" type="curve"/>
      <point x="125" y="384"/>
      <point x="251" y="457"/>
      <point x="251" y="527" type="curve" smooth="yes"/>
      <point x="251" y="566"/>
      <point x="227" y="577"/>
      <point x="189" y="577" type="curve" smooth="yes"/>
      <point x="168" y="577"/>
      <point x="155" y="582"/>
      <point x="157" y="593" type="curve" smooth="yes"/>
      <point x="160" y="604"/>
      <point x="170" y="607"/>
      <point x="198" y="607" type="curve" smooth="yes"/>
      <point x="256" y="607"/>
      <point x="288" y="582"/>
      <point x="288" y="527" type="curve" smooth="yes"/>
      <point x="288" y="448"/>
      <point x="158" y="382"/>
      <point x="158" y="324" type="curve" smooth="yes"/>
      <point x="158" y="304"/>
      <point x="176" y="298"/>
      <point x="212" y="298" type="curve" smooth="yes"/>
      <point x="226" y="298"/>
      <point x="241" y="301"/>
      <point x="253" y="301" type="curve" smooth="yes"/>
      <point x="264" y="301"/>
      <point x="267" y="295"/>
      <point x="263" y="283" type="curve" smooth="yes"/>
      <point x="260" y="272"/>
      <point x="253" y="267"/>
      <point x="241" y="267" type="curve" smooth="yes"/>
      <point x="229" y="267"/>
      <point x="220" y="270"/>
      <point x="200" y="270" type="curve" smooth="yes"/>
      <point x="162" y="270"/>
      <point x="124" y="256"/>
      <point x="124" y="214" type="curve"/>
      <point x="126" y="168"/>
      <point x="192" y="116"/>
      <point x="183" y="52" type="curve"/>
      <point x="174" y="-2"/>
      <point x="106" y="-40"/>
    </contour>
  </outline>
</glyph>
<glyph name="asciitilde" format="1">
  <advance width="418"/>
  <unicode hex="007E"/>
  <outline>
    <contour>
      <point x="24" y="225" type="curve" smooth="yes"/>
      <point x="20" y="231"/>
      <point x="29" y="243"/>
      <point x="41" y="253" type="curve" smooth="yes"/>
      <point x="103" y="300"/>
      <point x="151" y="285"/>
      <point x="212" y="263" type="curve"/>
      <point x="265" y="242"/>
      <point x="313" y="241"/>
      <point x="354" y="270" type="curve" smooth="yes"/>
      <point x="370" y="281"/>
      <point x="377" y="292"/>
      <point x="388" y="289" type="curve"/>
      <point x="394" y="286"/>
      <point x="398" y="278"/>
      <point x="384" y="262" type="curve" smooth="yes"/>
      <point x="334" y="206"/>
      <point x="256" y="212"/>
      <point x="195" y="235" type="curve"/>
      <point x="134" y="256"/>
      <point x="110" y="260"/>
      <point x="56" y="231" type="curve" smooth="yes"/>
      <point x="45" y="224"/>
      <point x="29" y="218"/>
    </contour>
  </outline>
</glyph>
<glyph name="exclamdown" format="1">
  <advance width="257"/>
  <unicode hex="00A1"/>
  <outline>
    <contour>
      <point x="162" y="233" type="curve" smooth="yes"/>
      <point x="152" y="189"/>
      <point x="88" y="-88"/>
      <point x="76" y="-134" type="curve" smooth="yes"/>
      <point x="72" y="-146"/>
      <point x="68" y="-160"/>
      <point x="60" y="-170" type="curve" smooth="yes"/>
      <point x="48" y="-185"/>
      <point x="27" y="-195"/>
      <point x="17" y="-189" type="curve" smooth="yes"/>
      <point x="7" y="-184"/>
      <point x="14" y="-169"/>
      <point x="26" y="-152" type="curve" smooth="yes"/>
      <point x="31" y="-146"/>
      <point x="37" y="-135"/>
      <point x="40" y="-127" type="curve" smooth="yes"/>
      <point x="66" y="-36"/>
      <point x="89" y="66"/>
      <point x="124" y="226" type="curve" smooth="yes"/>
      <point x="128" y="246"/>
      <point x="134" y="257"/>
      <point x="150" y="260" type="curve" smooth="yes"/>
      <point x="163" y="263"/>
      <point x="167" y="254"/>
    </contour>
    <contour>
      <point x="175" y="356" type="curve" smooth="yes"/>
      <point x="157" y="354"/>
      <point x="135" y="364"/>
      <point x="135" y="383" type="curve" smooth="yes"/>
      <point x="135" y="414"/>
      <point x="160" y="424"/>
      <point x="178" y="427" type="curve"/>
      <point x="207" y="430"/>
      <point x="220" y="412"/>
      <point x="220" y="396" type="curve" smooth="yes"/>
      <point x="220" y="372"/>
      <point x="195" y="358"/>
    </contour>
  </outline>
</glyph>
<glyph name="cent" format="1">
  <advance width="336"/>
  <unicode hex="00A2"/>
  <outline>
    <contour>
      <point x="39" y="131" type="curve" smooth="yes"/>
      <point x="43" y="213"/>
      <point x="109" y="368"/>
      <point x="234" y="419" type="curve"/>
      <point x="250" y="424"/>
      <point x="250" y="424"/>
      <point x="255" y="440" type="curve" smooth="yes"/>
      <point x="263" y="464"/>
      <point x="270" y="490"/>
      <point x="279" y="517" type="curve" smooth="yes"/>
      <point x="285" y="537"/>
      <point x="292" y="548"/>
      <point x="308" y="551" type="curve"/>
      <point x="322" y="555"/>
      <point x="324" y="545"/>
      <point x="319" y="524" type="curve"/>
      <point x="291" y="441" type="line"/>
      <point x="287" y="426"/>
      <point x="283" y="425"/>
      <point x="296" y="418" type="curve"/>
      <point x="310" y="412"/>
      <point x="320" y="399"/>
      <point x="320" y="379" type="curve" smooth="yes"/>
      <point x="320" y="352"/>
      <point x="299" y="322"/>
      <point x="280" y="306" type="curve" smooth="yes"/>
      <point x="268" y="295"/>
      <point x="257" y="301"/>
      <point x="253" y="307" type="curve" smooth="yes"/>
      <point x="249" y="314"/>
      <point x="252" y="322"/>
      <point x="261" y="330" type="curve" smooth="yes"/>
      <point x="274" y="341"/>
      <point x="285" y="361"/>
      <point x="285" y="370" type="curve" smooth="yes"/>
      <point x="285" y="397"/>
      <point x="256" y="392"/>
      <point x="240" y="386" type="curve" smooth="yes"/>
      <point x="139" y="345"/>
      <point x="77" y="215"/>
      <point x="77" y="131" type="curve"/>
      <point x="76" y="77"/>
      <point x="91" y="29"/>
      <point x="130" y="29" type="curve" smooth="yes"/>
      <point x="151" y="29"/>
      <point x="165" y="40"/>
      <point x="183" y="54" type="curve" smooth="yes"/>
      <point x="204" y="71"/>
      <point x="240" y="102"/>
      <point x="258" y="120" type="curve"/>
      <point x="263" y="127"/>
      <point x="277" y="130"/>
      <point x="283" y="125" type="curve" smooth="yes"/>
      <point x="289" y="119"/>
      <point x="287" y="112"/>
      <point x="276" y="101" type="curve" smooth="yes"/>
      <point x="257" y="82"/>
      <point x="221" y="45"/>
      <point x="191" y="22" type="curve" smooth="yes"/>
      <point x="178" y="13"/>
      <point x="168" y="4"/>
      <point x="155" y="-1" type="curve" smooth="yes"/>
      <point x="141" y="-7"/>
      <point x="141" y="-5"/>
      <point x="136" y="-20" type="curve" smooth="yes"/>
      <point x="128" y="-47"/>
      <point x="120" y="-76"/>
      <point x="110" y="-106" type="curve" smooth="yes"/>
      <point x="104" y="-126"/>
      <point x="97" y="-137"/>
      <point x="81" y="-141" type="curve" smooth="yes"/>
      <point x="67" y="-144"/>
      <point x="65" y="-135"/>
      <point x="70" y="-114" type="curve" smooth="yes"/>
      <point x="74" y="-99"/>
      <point x="86" y="-64"/>
      <point x="100" y="-20" type="curve" smooth="yes"/>
      <point x="106" y="-3"/>
      <point x="104" y="-7"/>
      <point x="89" y="1" type="curve" smooth="yes"/>
      <point x="52" y="20"/>
      <point x="37" y="74"/>
    </contour>
  </outline>
</glyph>
<glyph name="sterling" format="1">
  <advance width="568"/>
  <unicode hex="00A3"/>
  <outline>
    <contour>
      <point x="231" y="274" type="curve" smooth="yes"/>
      <point x="159" y="274" type="line" smooth="yes"/>
      <point x="138" y="274"/>
      <point x="130" y="278"/>
      <point x="136" y="290" type="curve" smooth="yes"/>
      <point x="144" y="305"/>
      <point x="157" y="306"/>
      <point x="178" y="306" type="curve"/>
      <point x="197" y="305"/>
      <point x="208" y="305"/>
      <point x="221" y="305" type="curve" smooth="yes"/>
      <point x="237" y="305"/>
      <point x="242" y="305"/>
      <point x="233" y="319" type="curve"/>
      <point x="224" y="336"/>
      <point x="210" y="349"/>
      <point x="197" y="362" type="curve" smooth="yes"/>
      <point x="173" y="385"/>
      <point x="151" y="416"/>
      <point x="151" y="453" type="curve" smooth="yes"/>
      <point x="151" y="555"/>
      <point x="304" y="613"/>
      <point x="381" y="613" type="curve" smooth="yes"/>
      <point x="431" y="613"/>
      <point x="512" y="608"/>
      <point x="512" y="551" type="curve" smooth="yes"/>
      <point x="512" y="517"/>
      <point x="485" y="476"/>
      <point x="450" y="453" type="curve" smooth="yes"/>
      <point x="439" y="445"/>
      <point x="425" y="435"/>
      <point x="417" y="444" type="curve" smooth="yes"/>
      <point x="410" y="451"/>
      <point x="422" y="471"/>
      <point x="430" y="478" type="curve" smooth="yes"/>
      <point x="454" y="496"/>
      <point x="468" y="518"/>
      <point x="468" y="540" type="curve" smooth="yes"/>
      <point x="468" y="568"/>
      <point x="430" y="577"/>
      <point x="375" y="577" type="curve" smooth="yes"/>
      <point x="304" y="577"/>
      <point x="194" y="524"/>
      <point x="194" y="456" type="curve" smooth="yes"/>
      <point x="194" y="425"/>
      <point x="202" y="411"/>
      <point x="237" y="378" type="curve" smooth="yes"/>
      <point x="252" y="363"/>
      <point x="267" y="345"/>
      <point x="278" y="322" type="curve" smooth="yes"/>
      <point x="286" y="305"/>
      <point x="281" y="304"/>
      <point x="301" y="304" type="curve" smooth="yes"/>
      <point x="328" y="304"/>
      <point x="350" y="305"/>
      <point x="396" y="306" type="curve" smooth="yes"/>
      <point x="403" y="306"/>
      <point x="419" y="308"/>
      <point x="428" y="312" type="curve" smooth="yes"/>
      <point x="453" y="324"/>
      <point x="471" y="328"/>
      <point x="471" y="315" type="curve" smooth="yes"/>
      <point x="471" y="307"/>
      <point x="458" y="293"/>
      <point x="442" y="285" type="curve" smooth="yes"/>
      <point x="430" y="278"/>
      <point x="417" y="274"/>
      <point x="404" y="274" type="curve" smooth="yes"/>
      <point x="301" y="274" type="line" smooth="yes"/>
      <point x="285" y="274"/>
      <point x="285" y="270"/>
      <point x="284" y="257" type="curve"/>
      <point x="274" y="195"/>
      <point x="235" y="149"/>
      <point x="185" y="109" type="curve" smooth="yes"/>
      <point x="164" y="92"/>
      <point x="163" y="87"/>
      <point x="179" y="89" type="curve" smooth="yes"/>
      <point x="193" y="91"/>
      <point x="202" y="91"/>
      <point x="215" y="91" type="curve" smooth="yes"/>
      <point x="255" y="91"/>
      <point x="298" y="73"/>
      <point x="326" y="47" type="curve" smooth="yes"/>
      <point x="334" y="40"/>
      <point x="349" y="29"/>
      <point x="366" y="29" type="curve" smooth="yes"/>
      <point x="402" y="29"/>
      <point x="468" y="94"/>
      <point x="470" y="148" type="curve" smooth="yes"/>
      <point x="470" y="166"/>
      <point x="472" y="177"/>
      <point x="484" y="178" type="curve" smooth="yes"/>
      <point x="502" y="179"/>
      <point x="503" y="162"/>
      <point x="503" y="146" type="curve" smooth="yes"/>
      <point x="503" y="95"/>
      <point x="441" y="-8"/>
      <point x="359" y="-8" type="curve" smooth="yes"/>
      <point x="338" y="-8"/>
      <point x="322" y="-3"/>
      <point x="308" y="8" type="curve"/>
      <point x="272" y="43"/>
      <point x="242" y="52"/>
      <point x="205" y="52" type="curve" smooth="yes"/>
      <point x="149" y="52"/>
      <point x="82" y="42"/>
      <point x="50" y="14" type="curve" smooth="yes"/>
      <point x="37" y="3"/>
      <point x="14" y="-13"/>
      <point x="0" y="2" type="curve"/>
      <point x="-15" y="14"/>
      <point x="-4" y="30"/>
      <point x="16" y="40" type="curve" smooth="yes"/>
      <point x="62" y="64"/>
      <point x="108" y="88"/>
      <point x="143" y="120" type="curve" smooth="yes"/>
      <point x="158" y="135"/>
      <point x="230" y="189"/>
      <point x="242" y="248" type="curve" smooth="yes"/>
      <point x="244" y="257"/>
      <point x="248" y="274"/>
    </contour>
  </outline>
</glyph>
<glyph name="currency" format="1">
  <advance width="477"/>
  <unicode hex="00A4"/>
  <outline>
    <contour>
      <point x="118" y="433" type="curve" smooth="yes"/>
      <point x="127" y="425"/>
      <point x="137" y="418"/>
      <point x="147" y="412" type="curve" smooth="yes"/>
      <point x="152" y="409"/>
      <point x="157" y="408"/>
      <point x="162" y="412" type="curve" smooth="yes"/>
      <point x="198" y="433"/>
      <point x="235" y="439"/>
      <point x="266" y="439" type="curve" smooth="yes"/>
      <point x="308" y="439"/>
      <point x="340" y="432"/>
      <point x="367" y="414" type="curve" smooth="yes"/>
      <point x="373" y="410"/>
      <point x="377" y="411"/>
      <point x="386" y="414" type="curve" smooth="yes"/>
      <point x="395" y="418"/>
      <point x="403" y="424"/>
      <point x="415" y="430" type="curve" smooth="yes"/>
      <point x="431" y="439"/>
      <point x="444" y="440"/>
      <point x="448" y="432" type="curve" smooth="yes"/>
      <point x="451" y="425"/>
      <point x="445" y="418"/>
      <point x="439" y="411" type="curve"/>
      <point x="429" y="404"/>
      <point x="420" y="396"/>
      <point x="408" y="389" type="curve" smooth="yes"/>
      <point x="402" y="385"/>
      <point x="400" y="380"/>
      <point x="404" y="375" type="curve" smooth="yes"/>
      <point x="422" y="352"/>
      <point x="427" y="328"/>
      <point x="423" y="296" type="curve" smooth="yes"/>
      <point x="420" y="264"/>
      <point x="406" y="240"/>
      <point x="382" y="216" type="curve" smooth="yes"/>
      <point x="380" y="215"/>
      <point x="376" y="209"/>
      <point x="380" y="206" type="curve" smooth="yes"/>
      <point x="391" y="194"/>
      <point x="405" y="184"/>
      <point x="414" y="176" type="curve"/>
      <point x="420" y="169"/>
      <point x="424" y="161"/>
      <point x="418" y="152" type="curve"/>
      <point x="412" y="146"/>
      <point x="395" y="144"/>
      <point x="383" y="155" type="curve" smooth="yes"/>
      <point x="373" y="164"/>
      <point x="366" y="170"/>
      <point x="356" y="176" type="curve" smooth="yes"/>
      <point x="348" y="181"/>
      <point x="346" y="181"/>
      <point x="338" y="177" type="curve" smooth="yes"/>
      <point x="309" y="161"/>
      <point x="271" y="152"/>
      <point x="237" y="152" type="curve" smooth="yes"/>
      <point x="189" y="152"/>
      <point x="160" y="163"/>
      <point x="136" y="176" type="curve" smooth="yes"/>
      <point x="130" y="179"/>
      <point x="125" y="178"/>
      <point x="118" y="175" type="curve" smooth="yes"/>
      <point x="107" y="169"/>
      <point x="94" y="162"/>
      <point x="82" y="154" type="curve" smooth="yes"/>
      <point x="67" y="145"/>
      <point x="54" y="148"/>
      <point x="50" y="154" type="curve" smooth="yes"/>
      <point x="44" y="165"/>
      <point x="48" y="173"/>
      <point x="59" y="181" type="curve" smooth="yes"/>
      <point x="69" y="188"/>
      <point x="82" y="195"/>
      <point x="95" y="205" type="curve" smooth="yes"/>
      <point x="102" y="210"/>
      <point x="103" y="214"/>
      <point x="98" y="220" type="curve" smooth="yes"/>
      <point x="82" y="243"/>
      <point x="77" y="265"/>
      <point x="80" y="294" type="curve"/>
      <point x="82" y="325"/>
      <point x="97" y="349"/>
      <point x="115" y="372" type="curve" smooth="yes"/>
      <point x="121" y="380"/>
      <point x="121" y="385"/>
      <point x="117" y="389" type="curve" smooth="yes"/>
      <point x="107" y="399"/>
      <point x="98" y="404"/>
      <point x="90" y="411" type="curve" smooth="yes"/>
      <point x="82" y="418"/>
      <point x="81" y="427"/>
      <point x="87" y="434" type="curve" smooth="yes"/>
      <point x="93" y="440"/>
      <point x="104" y="444"/>
    </contour>
    <contour>
      <point x="116" y="296" type="curve" smooth="yes"/>
      <point x="110" y="238"/>
      <point x="164" y="186"/>
      <point x="242" y="186" type="curve" smooth="yes"/>
      <point x="316" y="186"/>
      <point x="379" y="234"/>
      <point x="386" y="298" type="curve"/>
      <point x="391" y="358"/>
      <point x="342" y="405"/>
      <point x="263" y="405" type="curve" smooth="yes"/>
      <point x="187" y="405"/>
      <point x="122" y="352"/>
    </contour>
  </outline>
</glyph>
<glyph name="yen" format="1">
  <advance width="582"/>
  <unicode hex="00A5"/>
  <outline>
    <contour>
      <point x="277" y="141" type="curve" smooth="yes"/>
      <point x="167" y="141" type="line" smooth="yes"/>
      <point x="146" y="141"/>
      <point x="137" y="145"/>
      <point x="144" y="157" type="curve" smooth="yes"/>
      <point x="152" y="172"/>
      <point x="164" y="173"/>
      <point x="185" y="173" type="curve" smooth="yes"/>
      <point x="230" y="172"/>
      <point x="262" y="171"/>
      <point x="290" y="171" type="curve" smooth="yes"/>
      <point x="301" y="171"/>
      <point x="304" y="171"/>
      <point x="307" y="183" type="curve" smooth="yes"/>
      <point x="311" y="197"/>
      <point x="316" y="213"/>
      <point x="321" y="233" type="curve" smooth="yes"/>
      <point x="323" y="244"/>
      <point x="327" y="252"/>
      <point x="305" y="252" type="curve" smooth="yes"/>
      <point x="193" y="252" type="line" smooth="yes"/>
      <point x="172" y="252"/>
      <point x="163" y="255"/>
      <point x="170" y="268" type="curve" smooth="yes"/>
      <point x="178" y="282"/>
      <point x="190" y="283"/>
      <point x="211" y="283" type="curve" smooth="yes"/>
      <point x="253" y="282"/>
      <point x="285" y="281"/>
      <point x="311" y="281" type="curve" smooth="yes"/>
      <point x="328" y="281"/>
      <point x="326" y="288"/>
      <point x="320" y="303" type="curve" smooth="yes"/>
      <point x="295" y="366"/>
      <point x="252" y="495"/>
      <point x="222" y="550" type="curve" smooth="yes"/>
      <point x="208" y="577"/>
      <point x="206" y="571"/>
      <point x="127" y="571" type="curve" smooth="yes"/>
      <point x="104" y="571"/>
      <point x="97" y="577"/>
      <point x="98" y="587" type="curve"/>
      <point x="101" y="601"/>
      <point x="121" y="601"/>
      <point x="132" y="602" type="curve" smooth="yes"/>
      <point x="152" y="604"/>
      <point x="179" y="604"/>
      <point x="206" y="604" type="curve"/>
      <point x="247" y="602"/>
      <point x="252" y="593"/>
      <point x="263" y="562" type="curve" smooth="yes"/>
      <point x="295" y="477"/>
      <point x="326" y="387"/>
      <point x="350" y="327" type="curve" smooth="yes"/>
      <point x="358" y="308"/>
      <point x="366" y="309"/>
      <point x="386" y="332" type="curve" smooth="yes"/>
      <point x="414" y="365"/>
      <point x="449" y="397"/>
      <point x="481" y="418" type="curve" smooth="yes"/>
      <point x="550" y="463"/>
      <point x="586" y="492"/>
      <point x="586" y="541" type="curve" smooth="yes"/>
      <point x="586" y="588"/>
      <point x="521" y="582"/>
      <point x="495" y="562" type="curve" smooth="yes"/>
      <point x="484" y="554"/>
      <point x="459" y="543"/>
      <point x="450" y="555" type="curve"/>
      <point x="444" y="566"/>
      <point x="455" y="577"/>
      <point x="470" y="588" type="curve"/>
      <point x="497" y="605"/>
      <point x="532" y="616"/>
      <point x="554" y="616" type="curve" smooth="yes"/>
      <point x="605" y="616"/>
      <point x="624" y="583"/>
      <point x="624" y="550" type="curve" smooth="yes"/>
      <point x="624" y="477"/>
      <point x="569" y="439"/>
      <point x="510" y="400" type="curve" smooth="yes"/>
      <point x="465" y="370"/>
      <point x="424" y="334"/>
      <point x="396" y="298" type="curve" smooth="yes"/>
      <point x="386" y="285"/>
      <point x="388" y="282"/>
      <point x="399" y="282" type="curve" smooth="yes"/>
      <point x="418" y="282"/>
      <point x="439" y="283"/>
      <point x="464" y="284" type="curve" smooth="yes"/>
      <point x="471" y="284"/>
      <point x="487" y="285"/>
      <point x="495" y="290" type="curve"/>
      <point x="520" y="301"/>
      <point x="539" y="306"/>
      <point x="538" y="292" type="curve" smooth="yes"/>
      <point x="538" y="285"/>
      <point x="525" y="270"/>
      <point x="509" y="262" type="curve" smooth="yes"/>
      <point x="497" y="255"/>
      <point x="484" y="252"/>
      <point x="471" y="252" type="curve" smooth="yes"/>
      <point x="444" y="251"/>
      <point x="415" y="251"/>
      <point x="384" y="251" type="curve" smooth="yes"/>
      <point x="366" y="251"/>
      <point x="364" y="245"/>
      <point x="359" y="227" type="curve" smooth="yes"/>
      <point x="354" y="210"/>
      <point x="352" y="197"/>
      <point x="348" y="185" type="curve"/>
      <point x="346" y="174"/>
      <point x="347" y="170"/>
      <point x="357" y="171" type="curve" smooth="yes"/>
      <point x="380" y="172"/>
      <point x="406" y="173"/>
      <point x="438" y="173" type="curve" smooth="yes"/>
      <point x="444" y="173"/>
      <point x="460" y="175"/>
      <point x="469" y="179" type="curve" smooth="yes"/>
      <point x="494" y="191"/>
      <point x="513" y="195"/>
      <point x="512" y="182" type="curve" smooth="yes"/>
      <point x="512" y="174"/>
      <point x="499" y="160"/>
      <point x="483" y="152" type="curve" smooth="yes"/>
      <point x="471" y="145"/>
      <point x="458" y="141"/>
      <point x="445" y="141" type="curve" smooth="yes"/>
      <point x="354" y="141" type="line" smooth="yes"/>
      <point x="339" y="141"/>
      <point x="336" y="140"/>
      <point x="331" y="119" type="curve" smooth="yes"/>
      <point x="313" y="45"/>
      <point x="311" y="44"/>
      <point x="391" y="30" type="curve" smooth="yes"/>
      <point x="411" y="27"/>
      <point x="414" y="16"/>
      <point x="413" y="11" type="curve" smooth="yes"/>
      <point x="412" y="-3"/>
      <point x="376" y="-2"/>
      <point x="364" y="0" type="curve" smooth="yes"/>
      <point x="305" y="7"/>
      <point x="251" y="4"/>
      <point x="189" y="-4" type="curve"/>
      <point x="157" y="-7"/>
      <point x="153" y="-4"/>
      <point x="156" y="8" type="curve" smooth="yes"/>
      <point x="159" y="20"/>
      <point x="167" y="26"/>
      <point x="203" y="29" type="curve" smooth="yes"/>
      <point x="274" y="34"/>
      <point x="274" y="56"/>
      <point x="289" y="107" type="curve" smooth="yes"/>
      <point x="296" y="134"/>
      <point x="290" y="141"/>
    </contour>
  </outline>
</glyph>
